<?xml version="1.0" encoding="UTF-8" standalone="no"?>
<!DOCTYPE svg PUBLIC "-//W3C//DTD SVG 1.1//EN" "http://www.w3.org/Graphics/SVG/1.1/DTD/svg11.dtd">
<svg width="100%" height="100%" viewBox="0 0 1736 285" version="1.1" xmlns="http://www.w3.org/2000/svg" xmlns:xlink="http://www.w3.org/1999/xlink" xml:space="preserve" xmlns:serif="http://www.serif.com/" style="fill-rule:evenodd;clip-rule:evenodd;stroke-linejoin:round;stroke-miterlimit:2;">
    <g id="Layer1">
        <rect x="0" y="0" width="1736" height="285"/>
    </g>
    <g transform="matrix(1,0,0,1,64.2943,0)">
        <g id="Type-Black">
            <g>
                <g transform="matrix(1,0,0,1,1171.53,0)">
                    <path id="Combined-Shape" d="M202.23,131.48L202.23,173.12C202.23,186.373 205.403,197.3 211.75,205.9C218.097,214.5 227.097,218.803 238.75,218.81C253.703,218.81 262.757,211.42 265.91,196.64L290.78,196.64C288.893,209.347 283.577,219.53 274.83,227.19C266.083,234.85 254.057,238.677 238.75,238.67C218.29,238.67 202.34,232.273 190.9,219.48C179.907,207.193 174.193,192.527 173.76,175.48L173.76,131.48L202.27,131.48L202.27,108.38L268.27,108.38L268.27,126.89L292.42,126.89L292.42,155.74L267.85,155.74L267.85,131.48L202.23,131.48Z" style="fill:white;"/>
                    <path d="M530.72,216.81L530.44,188L479.67,188L479.67,168.3L530.25,168.3L530.25,163.97C530.25,159.383 530.16,155.717 529.98,152.97C529.728,149.794 529.185,146.647 528.36,143.57C527.717,140.613 526.449,137.827 524.64,135.4C522.703,133.199 520.273,131.486 517.55,130.4C513.951,128.915 510.082,128.2 506.19,128.3C493.31,128.3 485.47,134.203 482.67,146.01L458.89,146.01C461.683,120.87 477.9,108.343 507.54,108.43C526.547,108.43 539.657,113.273 546.87,122.96C554.083,132.647 557.69,146.05 557.69,163.17L557.69,236.56L479.69,236.56L479.69,216.86L530.72,216.81ZM455.14,216.81L455.14,188L479.67,188L479.67,216.85L455.14,216.81Z" style="fill:white;"/>
                    <path id="Fill-9" d="M41.16,219.62C29.72,206.913 24,191.593 24,173.66C24,155.727 29.72,140.367 41.16,127.58C52.613,114.78 68.653,108.38 89.28,108.38C109.907,108.38 125.943,114.78 137.39,127.58C148.843,140.373 154.567,155.733 154.56,173.66C154.553,191.587 148.83,206.92 137.39,219.66C125.95,232.327 109.913,238.66 89.28,238.66C68.647,238.66 52.607,232.313 41.16,219.62ZM62,141.23C55.68,149.79 52.52,160.713 52.52,174C52.52,187.287 55.697,198.077 62.05,206.37C68.403,214.663 77.48,218.81 89.28,218.81C101.08,218.81 110.157,214.663 116.51,206.37C122.87,198.083 126.033,187.293 126,174C125.967,160.707 122.79,149.76 116.47,141.16C110.117,132.56 101.04,128.257 89.24,128.25C77.44,128.243 68.36,132.57 62,141.23Z" style="fill:white;"/>
                    <path id="Fill-12" d="M311.2,172.58C311.2,154.647 316.583,139.467 327.35,127.04C338.117,114.613 353.953,108.393 374.86,108.38C413.24,108.38 432.61,131.627 432.97,178.12L339.72,178.12C339.9,190.467 343.03,200.333 349.11,207.72C355.19,215.107 364.043,218.803 375.67,218.81C383.603,218.81 390.247,216.96 395.6,213.26C400.953,209.56 404.357,204.2 405.81,197.18L431.22,197.18C429.42,208.44 423.81,218.17 414.39,226.37C404.97,234.57 391.97,238.67 375.39,238.67C354.57,238.67 338.667,232.23 327.68,219.35C316.693,206.47 311.2,190.88 311.2,172.58ZM340.8,160.42L405.27,160.42C404.01,138.973 393.693,128.25 374.32,128.25C355.12,128.25 343.947,138.973 340.8,160.42Z" style="fill:white;"/>
                </g>
                <g transform="matrix(1,0,0,1,-580.686,0)">
                    <path d="M530.72,216.81L530.44,188L479.67,188L479.67,168.3L530.25,168.3L530.25,163.97C530.25,159.383 530.16,155.717 529.98,152.97C529.728,149.794 529.185,146.647 528.36,143.57C527.717,140.613 526.449,137.827 524.64,135.4C522.703,133.199 520.273,131.486 517.55,130.4C513.951,128.915 510.082,128.2 506.19,128.3C493.31,128.3 485.47,134.203 482.67,146.01L458.89,146.01C461.683,120.87 477.9,108.343 507.54,108.43C526.547,108.43 539.657,113.273 546.87,122.96C554.083,132.647 557.69,146.05 557.69,163.17L557.69,236.56L479.69,236.56L479.69,216.86L530.72,216.81ZM455.14,216.81L455.14,188L479.67,188L479.67,216.85L455.14,216.81Z" style="fill:white;"/>
                    <path d="M867.82,168.26L867.82,163.93C867.82,159.343 867.73,155.677 867.55,152.93C867.298,149.754 866.755,146.607 865.93,143.53C865.287,140.573 864.019,137.787 862.21,135.36C860.273,133.159 857.843,131.446 855.12,130.36C851.521,128.875 847.652,128.16 843.76,128.26C830.88,128.26 823.043,134.163 820.25,145.97L796.46,145.97C799.247,120.83 815.463,108.303 845.11,108.39C864.13,108.39 877.24,113.233 884.44,122.92C891.64,132.607 895.247,146.01 895.26,163.13L895.26,236.52L817.26,236.52L817.26,216.82L868.26,216.82L868,188L817.24,188L817.24,168.3L867.82,168.26ZM792.08,216.81L792.08,188L817.24,188L817.24,216.85L792.08,216.81Z" style="fill:white;"/>
                    <path d="M953.59,124.38L977.21,124.38L977.21,153.23L953.59,153.23L953.59,236.51L926.16,236.51L926.16,111.9L953.59,111.9L953.59,124.38Z" style="fill:white;"/>
                    <path d="M1164.2,129.07L1189.2,129.07L1189.2,109.47L1221.89,109.47L1221.89,129.07L1249.04,129.07L1249.04,236.51L1221.7,236.51L1221.7,129.07L1189.24,129.07L1189.24,157.91L1164.24,157.91L1164.24,236.51L1136.8,236.51L1136.8,46L1164.24,46L1164.2,129.07Z" style="fill:white;"/>
                    <path id="Fill-18" d="M588.29,236.51L588.29,111.9L615.73,111.9L615.73,130.82C626.27,115.86 640.55,108.38 658.57,108.38C686.57,108.38 700.57,124.69 700.57,157.31L700.57,236.51L673.3,236.51L673.3,161.77C673.3,151.05 671.813,143.077 668.84,137.85C665.867,132.623 659.967,130.007 651.14,130C639.52,130 630.713,134.233 624.72,142.7C618.727,151.167 615.727,162.34 615.72,176.22L615.72,236.5L588.29,236.51Z" style="fill:white;"/>
                    <path id="Fill-22" d="M1060.14,108.38C1075.47,108.38 1087.5,112.21 1096.23,119.87C1104.96,127.53 1110.29,137.713 1112.23,150.42L1087.36,150.42C1084.21,135.64 1075.16,128.25 1060.19,128.25C1048.57,128.25 1039.57,132.553 1033.19,141.16C1026.81,149.767 1023.63,160.69 1023.66,173.93C1023.66,186.997 1026.84,197.743 1033.19,206.17C1039.54,214.597 1048.81,218.81 1061,218.81C1077.58,218.81 1086.91,210.023 1089,192.45L1113.87,192.45C1112.61,205.523 1107.83,216.493 1099.54,225.36C1091.25,234.227 1078.4,238.663 1061,238.67C1040.01,238.67 1023.8,232.337 1012.35,219.67C1000.9,207.003 995.18,191.67 995.18,173.67C995.18,155.737 1000.9,140.377 1012.35,127.59C1023.8,114.803 1039.73,108.4 1060.14,108.38Z" style="fill:white;"/>
                    <path id="Fill-23" d="M1281.86,236.51L1281.86,112.24L1309.3,112.24L1309.3,236.51L1281.86,236.51ZM1281.86,91.51L1281.86,66.13L1309.3,66.13L1309.3,91.49L1281.86,91.51Z" style="fill:white;"/>
                    <path id="Fill-24" d="M1331.73,112.24L1360.52,112.24L1391.87,209.07L1423.02,112.24L1451.81,112.24L1408.77,237.32L1374.98,237.32L1331.73,112.24Z" style="fill:white;"/>
                    <path id="Fill-25" d="M1459.71,172.58C1459.71,154.647 1465.09,139.467 1475.86,127.04C1486.63,114.613 1502.46,108.393 1523.37,108.38C1561.75,108.38 1581.12,131.627 1581.49,178.12L1488.23,178.12C1488.41,190.467 1491.54,200.333 1497.62,207.72C1503.7,215.107 1512.55,218.803 1524.18,218.81C1532.11,218.81 1538.75,216.96 1544.12,213.26C1549.49,209.56 1552.89,204.2 1554.32,197.18L1579.73,197.18C1577.93,208.44 1572.32,218.17 1562.9,226.37C1553.48,234.57 1540.48,238.67 1523.9,238.67C1503.09,238.67 1487.18,232.23 1476.19,219.35C1465.2,206.47 1459.7,190.88 1459.71,172.58ZM1489.31,160.42L1553.78,160.42C1552.52,138.973 1542.19,128.25 1522.78,128.25C1503.59,128.25 1492.44,138.973 1489.31,160.42Z" style="fill:white;"/>
                </g>
            </g>
        </g>
    </g>
</svg>
