<svg id="Layer_1" data-name="Layer 1" xmlns="http://www.w3.org/2000/svg" viewBox="0 0 1606 285"><defs><style>.cls-1{fill:#fff;fill-rule:evenodd;}</style></defs><title>OA_logo copy</title><g id="Type-White"><rect width="1606" height="285"/><path id="Combined-Shape" class="cls-1" d="M173.74,175.48h0v-44h28.51v41.64h0q0,19.88,9.52,32.78t27,12.91q22.43,0,27.16-22.17h24.87q-2.83,19.06-15.95,30.55t-36.08,11.48q-30.69,0-47.85-19.19Q174.4,201,173.74,175.48Zm94.11-44H202.23v-23.1h66v18.51h24.15v28.85H267.85Z"/><path class="cls-1" d="M530.72,216.81,530.44,188H479.67v-19.7h50.58v-4.33q0-6.88-.27-11a52.26,52.26,0,0,0-1.62-9.4,21.21,21.21,0,0,0-3.72-8.17,18.65,18.65,0,0,0-7.09-5,27.9,27.9,0,0,0-11.36-2.1q-19.32,0-23.52,17.71H458.89q4.19-37.71,48.65-37.58,28.51,0,39.33,14.53t10.82,40.21v73.39h-78v-19.7Zm-75.58,0V188h24.53v28.85Z"/><path class="cls-1" d="M867.82,168.26v-4.33q0-6.88-.27-11a52.26,52.26,0,0,0-1.62-9.4,21.21,21.21,0,0,0-3.72-8.17,18.65,18.65,0,0,0-7.09-5,27.9,27.9,0,0,0-11.36-2.1q-19.32,0-23.51,17.71H796.46q4.18-37.71,48.65-37.58,28.53,0,39.33,14.53t10.82,40.21v73.39h-78v-19.7h51L868,188H817.24v-19.7Zm-75.74,48.55V188h25.16v28.85Z"/><path class="cls-1" d="M953.59,124.38h23.62v28.85H953.59v83.28H926.16V111.9h27.43Z"/><path class="cls-1" d="M1164.2,129.07h25v-19.6h32.69v19.6h27.15V236.51H1221.7V129.07h-32.46v28.84h-25v78.6h-27.44V46h27.44Z"/><path id="Fill-9" class="cls-1" d="M41.16,219.62Q24,200.56,24,173.66t17.16-46.08q17.18-19.2,48.12-19.2t48.11,19.2q17.18,19.19,17.17,46.08t-17.17,46q-17.16,19-48.11,19T41.16,219.62ZM62,141.23Q52.52,154.07,52.52,174t9.53,32.37q9.53,12.44,27.23,12.44t27.23-12.44Q126.05,193.94,126,174t-9.53-32.84q-9.53-12.9-27.23-12.91T62,141.23Z"/><path id="Fill-12" class="cls-1" d="M311.2,172.58q0-26.9,16.15-45.54t47.51-18.66q57.57,0,58.11,69.74H339.72q.27,18.52,9.39,29.6t26.56,11.09q11.9,0,19.93-5.55t10.21-16.08h25.41q-2.7,16.89-16.83,29.19t-39,12.3q-31.23,0-47.71-19.32T311.2,172.58Zm29.6-12.16h64.47q-1.89-32.17-30.95-32.17Q345.52,128.25,340.8,160.42Z"/><path id="Fill-18" class="cls-1" d="M588.29,236.51V111.9h27.44v18.92q15.81-22.44,42.84-22.44,42,0,42,48.93v79.2H673.3V161.77q0-16.08-4.46-23.92T651.14,130q-17.43,0-26.42,12.7t-9,33.52v60.28Z"/><path id="Fill-22" class="cls-1" d="M1060.14,108.38q23,0,36.09,11.49t16,30.55h-24.87q-4.72-22.17-27.17-22.17-17.43,0-27,12.91t-9.53,32.77q0,19.6,9.53,32.24T1061,218.81q24.87,0,28-26.36h24.87q-1.89,19.61-14.33,32.91T1061,238.67q-31.48,0-48.65-19t-17.17-46q0-26.9,17.17-46.08T1060.14,108.38Z"/><path id="Fill-23" class="cls-1" d="M1281.86,236.51V112.24h27.44V236.51Zm0-145V66.13h27.44V91.49Z"/><polygon id="Fill-24" class="cls-1" points="1331.73 112.24 1360.52 112.24 1391.87 209.07 1423.02 112.24 1451.81 112.24 1408.77 237.32 1374.98 237.32 1331.73 112.24"/><path id="Fill-25" class="cls-1" d="M1459.71,172.58q0-26.9,16.15-45.54t47.51-18.66q57.57,0,58.12,69.74h-93.26q.27,18.52,9.39,29.6t26.56,11.09q11.89,0,19.94-5.55t10.2-16.08h25.41q-2.7,16.89-16.83,29.19t-39,12.3q-31.22,0-47.71-19.32T1459.71,172.58Zm29.6-12.16h64.47q-1.89-32.17-31-32.17Q1494,128.25,1489.31,160.42Z"/></g></svg>