<?xml version="1.0" standalone="no"?>
<!DOCTYPE svg PUBLIC "-//W3C//DTD SVG 1.1//EN" "http://www.w3.org/Graphics/SVG/1.1/DTD/svg11.dtd" >
<svg xmlns="http://www.w3.org/2000/svg" xmlns:xlink="http://www.w3.org/1999/xlink" version="1.1">
<metadata>
Created by FontForge 20181214 at Fri Mar 15 10:24:17 2019
 By convertio
Copyright 2019 Adobe Systems Incorporated. All rights reserved.
</metadata>
<defs>
<font id="Amare-Linnea" horiz-adv-x="451" >
  <font-face 
    font-family="Amare Linnea"
    font-weight="400"
    font-stretch="normal"
    units-per-em="1000"
    panose-1="0 0 0 0 0 0 0 0 0 0"
    ascent="750"
    descent="-250"
    x-height="514"
    cap-height="714"
    bbox="-39 -213 851 950"
    underline-thickness="50"
    underline-position="-100"
    stemh="20"
    stemv="21"
    unicode-range="U+0020-2026"
  />
<missing-glyph horiz-adv-x="270" 
 />
    <glyph glyph-name=".notdef" horiz-adv-x="270" 
 />
    <glyph glyph-name="space" unicode=" " horiz-adv-x="270" 
 />
    <glyph glyph-name="exclam" unicode="!" horiz-adv-x="177" 
d="M85 714h20v-532h-20v532zM85 98h20v-98h-20v98z" />
    <glyph glyph-name="quotedbl" unicode="&#x22;" horiz-adv-x="256" 
d="M76 489v225h21v-225h-21zM172 489v225h20v-225h-20z" />
    <glyph glyph-name="numbersign" unicode="#" horiz-adv-x="493" 
d="M200 446h142l26 234h20l-26 -234h99v-20h-103l-21 -177h100v-20h-103l-26 -229h-21l26 229h-142l-27 -229h-20l26 229h-106v20h111l20 177h-107v20h111l27 234h20zM317 249l20 177h-142l-20 -177h142z" />
    <glyph glyph-name="dollar" unicode="$" horiz-adv-x="542" 
d="M475 500c-4 141 -80 205 -187 210v-330c107 -34 216 -72 216 -205c0 -135 -112 -190 -216 -191v-88h-20v89c-124 5 -224 66 -221 239h20c0 -163 90 -216 201 -221v362c-104 31 -207 62 -207 182c0 138 108 182 207 184v81h20v-82c118 -5 201 -76 208 -230h-21zM81 547
c0 -100 90 -131 187 -162v326c-90 -2 -187 -39 -187 -164zM483 176c0 118 -95 153 -195 183v-356c93 0 195 50 195 173z" />
    <glyph glyph-name="percent" unicode="%" horiz-adv-x="602" 
d="M517 714l-405 -747h-23l405 747h23zM32 519c0 100 48 173 131 173c87 0 133 -72 133 -172c0 -92 -47 -170 -133 -170c-90 0 -131 81 -131 169zM53 519c0 -81 35 -149 110 -149s113 69 113 149c0 92 -36 153 -113 153s-110 -65 -110 -153zM318 157c0 100 47 173 131 173
c86 0 133 -72 133 -172c0 -92 -48 -169 -133 -169c-90 0 -131 79 -131 168zM338 157c0 -81 36 -149 111 -149c74 0 113 69 113 149c0 92 -36 153 -113 153c-78 0 -111 -65 -111 -153z" />
    <glyph glyph-name="ampersand" unicode="&#x26;" horiz-adv-x="508" 
d="M478 0l-74 110c-34 -71 -92 -126 -177 -126c-86 0 -175 65 -175 176c0 117 91 181 164 234h-1l-25 38c-30 46 -65 99 -65 149c0 92 64 133 126 133c68 0 125 -49 125 -133c0 -79 -56 -127 -107 -169c-8 -7 -19 -15 -27 -23h1l158 -235c11 29 21 71 19 123h20
c1 -59 -9 -100 -25 -144c29 -43 59 -90 89 -133h-26zM145 583c0 -43 31 -92 87 -178l15 13c46 37 109 91 109 163c0 69 -48 113 -105 113s-106 -42 -106 -111zM211 366c-65 -48 -139 -103 -139 -206c0 -102 77 -157 155 -157c80 0 133 55 165 129l-166 245z" />
    <glyph glyph-name="quotesingle" unicode="'" horiz-adv-x="162" 
d="M98 714v-225h-21v225h21z" />
    <glyph glyph-name="parenleft" unicode="(" horiz-adv-x="209" 
d="M191 731c-65 -137 -99 -292 -99 -449c0 -161 34 -317 100 -458h-20c-66 152 -100 284 -100 458c0 157 34 312 99 449h20z" />
    <glyph glyph-name="parenright" unicode=")" horiz-adv-x="209" 
d="M30 -176c64 137 98 291 98 448c0 161 -34 318 -99 459h20c66 -152 100 -286 100 -459c0 -157 -34 -311 -99 -448h-20z" />
    <glyph glyph-name="asterisk" unicode="*" horiz-adv-x="319" 
d="M174 575l112 43l4 -20l-112 -43h1l71 -109l-16 -14l-70 107l-71 -102l-16 14l75 104h1l-112 43l6 20l107 -43v139h20v-139z" />
    <glyph glyph-name="plus" unicode="+" horiz-adv-x="530" 
d="M281 506v-243h206v-20h-206v-243h-20v243h-206v20h206v243h20z" />
    <glyph glyph-name="comma" unicode="," horiz-adv-x="256" 
d="M112 -115h-20l32 213h20z" />
    <glyph glyph-name="hyphen" unicode="-" horiz-adv-x="388" 
d="M338 314v-20h-275v20h275z" />
    <glyph glyph-name="period" unicode="." horiz-adv-x="256" 
d="M124 0v98h20v-98h-20z" />
    <glyph glyph-name="slash" unicode="/" horiz-adv-x="303" 
d="M286 731h21l-278 -747h-20z" />
    <glyph glyph-name="zero" unicode="0" horiz-adv-x="497" 
d="M474 359c0 -172 -51 -370 -220 -370c-168 0 -220 198 -220 370c0 171 52 371 220 371c169 0 220 -200 220 -371zM454 359c0 152 -43 351 -200 351c-156 0 -199 -199 -199 -351s43 -351 199 -351c157 0 200 199 200 351z" />
    <glyph glyph-name="one" unicode="1" horiz-adv-x="414" 
d="M268 714c16 -1 27 -14 27 -44v-670h-21v662c0 21 -2 26 -9 28s-20 -6 -43 -27c-59 -54 -83 -67 -122 -67h-4v20h7c34 0 52 13 108 63c22 20 39 36 57 35z" />
    <glyph glyph-name="two" unicode="2" horiz-adv-x="503" 
d="M469 0h-408c-3 104 90 191 192 276c86 71 187 142 187 260c0 105 -72 174 -163 174c-120 0 -185 -85 -185 -210h-21c1 149 82 230 206 230c100 0 183 -76 183 -194c0 -128 -116 -213 -207 -287c-73 -62 -165 -142 -172 -229h388v-20z" />
    <glyph glyph-name="three" unicode="3" horiz-adv-x="531" 
d="M340 386c69 -14 151 -74 151 -190c0 -136 -99 -212 -211 -212c-160 0 -227 142 -232 240h20c8 -112 84 -221 212 -221c97 0 190 69 190 193s-98 181 -182 181h-46v20h46c79 0 170 40 170 158c-3 115 -90 155 -174 155c-120 0 -192 -85 -192 -210h-21
c1 149 89 230 213 230c98 0 195 -47 195 -175c0 -98 -65 -156 -139 -169z" />
    <glyph glyph-name="four" unicode="4" horiz-adv-x="541" 
d="M408 208h110v-20h-110v-188h-21v188h-289c-25 0 -41 11 -41 28c0 19 10 34 21 51l250 417c15 25 29 31 47 30c13 -1 33 -11 33 -41v-465zM387 208v454c0 21 -5 29 -13 31c-7 2 -16 -1 -28 -20l-253 -422c-9 -15 -14 -23 -13 -30c1 -10 9 -13 26 -13h281z" />
    <glyph glyph-name="five" unicode="5" horiz-adv-x="510" 
d="M264 487c127 0 210 -97 210 -242c0 -153 -88 -261 -215 -261s-214 93 -211 240h21c-3 -136 74 -221 191 -221s193 102 193 242c0 132 -74 221 -189 221c-71 0 -137 -38 -171 -110h-25l59 320c5 25 21 38 40 38h283v-20h-282c-14 0 -19 -11 -21 -26l-50 -272
c35 56 98 91 167 91z" />
    <glyph glyph-name="six" unicode="6" horiz-adv-x="493" 
d="M451 550c-24 130 -110 160 -170 160c-176 0 -213 -240 -209 -410c22 120 105 183 198 183c107 0 213 -99 213 -247c0 -144 -100 -252 -213 -252c-226 0 -220 315 -220 355c0 179 51 393 232 393c106 0 179 -81 190 -182h-21zM462 236c0 126 -86 227 -192 227
s-188 -101 -188 -227s82 -233 188 -233s192 107 192 233z" />
    <glyph glyph-name="seven" unicode="7" horiz-adv-x="493" 
d="M465 690c3 -18 -8 -38 -19 -55l-62 -97c-100 -156 -171 -322 -171 -538h-20c-2 211 71 389 173 549l65 102c9 15 15 26 12 33c-4 9 -12 10 -29 10h-356v20h368c25 0 37 -13 39 -24z" />
    <glyph glyph-name="eight" unicode="8" horiz-adv-x="525" 
d="M332 394c98 -11 158 -84 158 -194c0 -149 -103 -216 -224 -216c-120 0 -223 67 -223 216c0 107 65 181 158 197c-68 13 -127 72 -127 153c0 130 85 180 192 180s194 -50 194 -180c0 -83 -57 -142 -128 -153h2v-3h-2zM438 550c0 123 -84 160 -172 160
c-87 0 -171 -37 -171 -160c0 -103 91 -146 171 -146c82 0 172 43 172 146zM469 200c0 138 -98 183 -203 183c-104 0 -202 -45 -202 -183c0 -139 95 -197 202 -197s203 58 203 197z" />
    <glyph glyph-name="nine" unicode="9" horiz-adv-x="509" 
d="M79 169c24 -130 113 -161 173 -161c176 0 210 243 208 407c-21 -106 -108 -179 -203 -179c-107 0 -214 99 -214 247c0 144 101 248 214 248c172 0 228 -171 222 -351s-46 -392 -228 -392c-105 0 -181 79 -193 181h21zM449 483c-6 136 -78 228 -192 228
c-106 0 -191 -102 -191 -228s85 -227 191 -227s198 101 192 227z" />
    <glyph glyph-name="colon" unicode=":" horiz-adv-x="256" 
d="M124 514h20v-98h-20v98zM124 98h20v-98h-20v98z" />
    <glyph glyph-name="semicolon" unicode=";" horiz-adv-x="256" 
d="M124 514h20v-98h-20v98zM144 0c0 -60 -10 -95 -40 -120v21c14 17 20 45 20 99v98h20v-98z" />
    <glyph glyph-name="less" unicode="&#x3c;" horiz-adv-x="530" 
d="M53 241v24l436 250v-22l-418 -240l418 -240v-21z" />
    <glyph glyph-name="equal" unicode="=" horiz-adv-x="530" 
d="M55 360h432v-20h-432v20zM55 166h432v-20h-432v20z" />
    <glyph glyph-name="greater" unicode="&#x3e;" horiz-adv-x="530" 
d="M53 493v22l436 -250v-24l-436 -249v21l418 240z" />
    <glyph glyph-name="question" unicode="?" horiz-adv-x="445" 
d="M44 500c-4 140 66 231 186 231c94 0 169 -59 169 -166c0 -91 -47 -139 -75 -170c-70 -76 -92 -115 -92 -213h-21c0 100 32 160 93 221c23 23 75 73 75 162c0 94 -64 146 -149 146c-111 0 -170 -82 -166 -211h-20zM211 98h21v-98h-21v98z" />
    <glyph glyph-name="at" unicode="@" horiz-adv-x="700" 
d="M540 547l-94 -288c-9 -28 -28 -107 20 -107c68 0 163 112 163 259c0 166 -108 281 -255 281c-165 0 -291 -151 -291 -339c0 -227 134 -345 289 -345c103 0 202 69 255 158h21c-55 -108 -171 -177 -276 -177c-153 0 -309 110 -309 364c0 207 142 359 311 359
c153 0 275 -116 275 -301c0 -154 -102 -279 -185 -279c-39 0 -53 39 -50 72c-28 -46 -78 -72 -118 -72c-66 0 -117 65 -117 145c0 124 82 289 203 289c53 0 101 -30 118 -79l19 60h21zM489 456c-15 68 -68 90 -110 90c-106 0 -179 -158 -179 -269c0 -71 42 -125 100 -125
c43 0 97 32 129 120c20 60 42 125 60 184z" />
    <glyph glyph-name="A" unicode="A" horiz-adv-x="554" 
d="M551 0h-22l-70 204h-360l-70 -204h-22l230 668c11 32 24 46 42 46s30 -14 41 -46zM452 224l-149 436c-8 23 -13 34 -24 34s-16 -11 -24 -34l-149 -436h346z" />
    <glyph glyph-name="B" unicode="B" horiz-adv-x="520" 
d="M330 371c81 -7 163 -74 163 -180c0 -129 -97 -191 -229 -191h-177c-19 0 -33 13 -33 38v638c0 25 14 38 33 38h177c115 0 205 -52 205 -177c0 -95 -66 -155 -139 -166zM92 694c-14 0 -17 -11 -17 -26v-286h197c92 0 175 53 175 155c0 108 -71 157 -185 157h-170zM269 20
c113 0 202 53 202 170c0 115 -102 172 -199 172h-197v-316c0 -15 3 -26 17 -26h177z" />
    <glyph glyph-name="C" unicode="C" horiz-adv-x="608" 
d="M569 224c-9 -102 -85 -240 -256 -240c-162 0 -277 154 -277 367c0 173 79 380 287 380c161 0 241 -143 244 -231h-21c-6 103 -99 211 -223 211c-199 0 -267 -212 -267 -360c0 -181 94 -348 257 -348c145 0 226 109 235 221h21z" />
    <glyph glyph-name="D" unicode="D" horiz-adv-x="577" 
d="M274 714c122 0 260 -77 260 -357c0 -256 -139 -357 -286 -357h-155c-19 0 -33 13 -33 38v638c0 25 14 38 33 38h181zM252 20c143 0 262 108 262 337c0 267 -123 337 -244 337h-172c-14 0 -17 -11 -17 -26v-622c0 -15 3 -26 17 -26h154z" />
    <glyph glyph-name="E" unicode="E" horiz-adv-x="482" 
d="M470 20v-20h-377c-19 0 -33 13 -33 38v638c0 25 14 38 33 38h373v-20h-368c-14 0 -17 -11 -17 -26v-286h363v-20h-363v-316c0 -15 3 -26 17 -26h372z" />
    <glyph glyph-name="F" unicode="F" horiz-adv-x="435" 
d="M60 0v676c0 25 14 38 33 38h345v-20h-340c-14 0 -17 -11 -17 -26v-286h323v-20h-323v-362h-21z" />
    <glyph glyph-name="G" unicode="G" horiz-adv-x="640" 
d="M558 328c19 0 33 -13 33 -38v-290h-21v161c-35 -102 -128 -177 -245 -177c-162 0 -283 156 -283 369c0 173 82 378 290 378c161 0 244 -143 247 -231h-21c-6 103 -102 211 -226 211c-199 0 -270 -210 -270 -358c0 -181 102 -350 265 -350c129 0 243 115 243 263v16
c0 15 -3 26 -17 26h-208v20h213z" />
    <glyph glyph-name="H" unicode="H" horiz-adv-x="593" 
d="M81 0h-21v714h21v-332h437v332h21v-714h-21v362h-437v-362z" />
    <glyph glyph-name="I" unicode="I" horiz-adv-x="164" 
d="M93 714v-714h-21v714h21z" />
    <glyph glyph-name="J" unicode="J" horiz-adv-x="420" 
d="M361 714v-528c0 -120 -45 -202 -168 -202c-117 0 -163 82 -163 194v43h20v-43c0 -117 48 -175 143 -175c96 0 148 49 148 198v513h20z" />
    <glyph glyph-name="K" unicode="K" horiz-adv-x="530" 
d="M81 0h-21v714h21v-431c139 143 278 288 418 431h27l-293 -304l310 -410h-25l-300 397l-138 -144h1v-253z" />
    <glyph glyph-name="L" unicode="L" horiz-adv-x="435" 
d="M98 20h336v-20h-341c-19 0 -33 13 -33 38v676h21v-668c0 -15 3 -26 17 -26z" />
    <glyph glyph-name="M" unicode="M" horiz-adv-x="741" 
d="M653 714c13 -1 35 -14 35 -44v-670h-21v662c0 21 -7 29 -15 31c-8 1 -19 -2 -28 -29l-209 -619c-11 -32 -24 -45 -42 -45s-31 12 -42 45l-208 619c-9 28 -20 30 -28 29c-8 -2 -15 -10 -15 -31v-662h-21v670c0 30 22 43 35 44c18 1 34 -5 46 -41l209 -617
c7 -21 13 -36 24 -36s17 15 25 36l208 617c12 36 29 42 47 41z" />
    <glyph glyph-name="N" unicode="N" horiz-adv-x="651" 
d="M568 714h21v-670c0 -30 -20 -43 -33 -44c-18 -1 -31 5 -46 30l-388 643c-12 19 -21 22 -28 20c-8 -2 -13 -10 -13 -31v-662h-21v670c0 30 20 43 33 44c18 1 32 -5 47 -30l387 -643c12 -19 21 -22 28 -20c8 2 13 10 13 31v662z" />
    <glyph glyph-name="O" unicode="O" horiz-adv-x="639" 
d="M41 357c0 203 100 374 282 374s281 -171 281 -374c0 -204 -99 -373 -281 -373s-282 169 -282 373zM62 357c2 -205 98 -354 261 -354c162 0 258 149 261 354c-3 205 -99 354 -261 354c-163 0 -259 -149 -261 -354z" />
    <glyph glyph-name="P" unicode="P" horiz-adv-x="509" 
d="M292 714c117 0 197 -66 197 -195c0 -126 -90 -194 -203 -194h-205v-325h-21v676c0 25 14 38 33 38h199zM295 345c94 0 173 63 173 174c0 113 -64 175 -176 175h-194c-14 0 -17 -11 -17 -26v-323h214z" />
    <glyph glyph-name="Q" unicode="Q" horiz-adv-x="639" 
d="M377 -11l247 -46v-20l-344 64l-15 3l-3 1h1c-144 33 -222 186 -222 366c0 203 100 374 282 374s281 -171 281 -374c0 -183 -79 -337 -227 -368zM62 357c2 -205 98 -354 261 -354c162 0 258 149 261 354c-3 205 -99 354 -261 354c-163 0 -259 -149 -261 -354z" />
    <glyph glyph-name="R" unicode="R" horiz-adv-x="517" 
d="M321 308l184 -308h-25l-177 297c-12 19 -20 28 -44 28h-178v-325h-21v676c0 25 14 38 33 38h192c109 0 201 -64 201 -193c0 -112 -82 -187 -179 -195c5 -5 9 -11 14 -18zM295 345c90 0 170 72 170 176c0 113 -73 173 -180 173h-187c-14 0 -17 -11 -17 -26v-323h214z" />
    <glyph glyph-name="S" unicode="S" horiz-adv-x="545" 
d="M475 500c-4 147 -86 211 -201 211c-91 0 -193 -36 -193 -164c0 -216 423 -110 423 -372c0 -136 -113 -191 -218 -191c-132 0 -242 59 -239 240h20c0 -171 100 -221 219 -221c94 0 197 49 197 173c0 249 -422 128 -422 371c0 141 113 184 213 184c126 0 215 -71 222 -231
h-21z" />
    <glyph glyph-name="T" unicode="T" 
d="M1 714h456v-20h-218v-694h-21v694h-217v20z" />
    <glyph glyph-name="U" unicode="U" horiz-adv-x="563" 
d="M509 714v-448c0 -192 -78 -282 -224 -282c-147 0 -225 90 -225 282v448h21v-448c0 -172 64 -263 204 -263c139 0 204 91 204 263v448h20z" />
    <glyph glyph-name="V" unicode="V" horiz-adv-x="520" 
d="M0 714h21l218 -660c8 -23 13 -34 24 -34s16 11 24 34l219 660h21l-222 -668c-11 -32 -24 -46 -42 -46s-30 14 -41 46z" />
    <glyph glyph-name="W" unicode="W" horiz-adv-x="819" 
d="M820 713l-170 -666c-8 -32 -18 -47 -34 -47c-17 0 -25 13 -33 45l-156 605c-6 23 -8 43 -17 43c-8 0 -10 -23 -16 -46l-156 -602c-8 -32 -16 -45 -33 -45c-16 0 -26 15 -34 47l-170 667h22l164 -651c6 -23 9 -43 18 -43c8 0 11 22 17 45l156 602c8 32 15 46 32 46
c16 0 24 -14 32 -46l157 -602c6 -23 9 -45 17 -45c9 0 12 20 18 43l164 650h22z" />
    <glyph glyph-name="X" unicode="X" horiz-adv-x="468" 
d="M472 714l-221 -347l232 -367h-25l-220 348c-73 -116 -148 -232 -221 -348h-25l233 367l-220 347h25l208 -328c70 109 139 219 210 328h24z" />
    <glyph glyph-name="Y" unicode="Y" horiz-adv-x="483" 
d="M500 714l-245 -413v-301h-21v301l-244 413h24l231 -389l232 389h23z" />
    <glyph glyph-name="Z" unicode="Z" 
d="M34 33c1 -10 9 -13 26 -13h388v-20h-396c-25 0 -39 11 -40 28c-1 18 9 34 20 51l363 572c9 15 15 26 12 33c-4 9 -12 10 -29 10h-356v20h368c25 0 37 -13 39 -24c3 -18 -8 -38 -19 -55l-363 -572c-9 -15 -14 -23 -13 -30z" />
    <glyph glyph-name="bracketleft" unicode="[" horiz-adv-x="209" 
d="M195 711h-79v-867h79v-20h-99v907h99v-20z" />
    <glyph glyph-name="backslash" unicode="\" horiz-adv-x="303" 
d="M9 731h20l278 -747h-21z" />
    <glyph glyph-name="bracketright" unicode="]" horiz-adv-x="209" 
d="M25 -156h79v867h-79v20h100v-907h-100v20z" />
    <glyph glyph-name="asciicircum" unicode="^" horiz-adv-x="530" 
d="M457 227l-186 429l-186 -429h-21l197 453h20l197 -453h-21z" />
    <glyph glyph-name="underscore" unicode="_" horiz-adv-x="445" 
d="M14 -88h429v-20h-429v20z" />
    <glyph glyph-name="grave" unicode="`" horiz-adv-x="223" 
d="M223 633v-20l-223 81v20z" />
    <glyph glyph-name="a" unicode="a" horiz-adv-x="435" 
d="M60 372c4 97 55 154 163 154c79 0 149 -35 152 -147v-276c0 -55 16 -84 35 -103h-26c-18 18 -30 49 -30 105v5c-20 -64 -84 -121 -173 -121s-148 46 -148 138c0 108 73 147 174 155c98 8 147 12 147 82c0 61 -16 142 -131 142c-90 0 -136 -38 -142 -134h-21zM179 8
c113 0 175 92 175 188v108c-23 -34 -83 -35 -141 -41c-93 -9 -160 -32 -160 -136c0 -59 32 -119 126 -119z" />
    <glyph glyph-name="b" unicode="b" horiz-adv-x="482" 
d="M81 377c23 89 84 149 176 149c120 0 187 -126 187 -270c0 -155 -71 -267 -187 -267c-86 0 -148 58 -176 143v-132h-20v714h20v-337zM81 256c0 -133 64 -248 176 -248s167 116 167 248c0 119 -49 250 -167 250c-106 0 -176 -89 -176 -250z" />
    <glyph glyph-name="c" unicode="c" 
d="M420 153c-10 -100 -83 -164 -176 -164c-126 0 -203 119 -203 259c0 148 61 278 201 278c83 0 157 -48 171 -154h-20c-21 97 -79 134 -151 134c-138 0 -181 -137 -181 -258c0 -125 68 -240 183 -240c78 0 143 50 156 145h20z" />
    <glyph glyph-name="d" unicode="d" horiz-adv-x="482" 
d="M421 714v-714h-20l-2 130c-27 -79 -91 -141 -173 -141c-117 0 -188 112 -188 267c0 144 67 270 188 270c91 0 151 -53 175 -142v330h20zM401 256c0 161 -70 250 -175 250c-118 0 -168 -131 -168 -250c0 -132 56 -248 168 -248c111 0 175 115 175 248z" />
    <glyph glyph-name="e" unicode="e" 
d="M394 153h20c-10 -100 -83 -164 -176 -164c-126 0 -203 119 -203 259c0 148 61 278 201 278c126 0 178 -112 177 -249h-357c-12 -105 42 -269 182 -269c78 0 143 50 156 145zM236 506c-120 0 -168 -103 -179 -209h334c-3 124 -52 209 -155 209z" />
    <glyph glyph-name="f" unicode="f" horiz-adv-x="199" 
d="M14 514h74v114c0 82 50 86 88 86h28v-20h-32c-52 0 -63 -22 -63 -73v-107h94v-20h-94v-494h-21v494h-74v20z" />
    <glyph glyph-name="g" unicode="g" horiz-adv-x="467" 
d="M233 -164c106 0 160 55 160 183v146c-21 -88 -98 -137 -171 -137c-123 0 -184 114 -184 246c0 138 66 252 190 252c80 0 142 -58 165 -136v124h21v-495c0 -141 -63 -203 -180 -203c-89 0 -166 35 -166 138h20c0 -91 68 -118 145 -118zM393 274c0 118 -57 232 -165 232
c-113 0 -170 -107 -170 -232c0 -127 57 -226 163 -226c111 0 172 102 172 226z" />
    <glyph glyph-name="h" unicode="h" 
d="M81 714l2 -312c19 72 74 124 156 124c91 0 157 -65 157 -185v-341h-20v338c0 119 -63 168 -137 168c-104 0 -158 -100 -158 -215v-291h-20v714h20z" />
    <glyph glyph-name="i" unicode="i" horiz-adv-x="144" 
d="M61 613v101h20v-101h-20zM61 0v514h20v-514h-20z" />
    <glyph glyph-name="j" unicode="j" horiz-adv-x="144" 
d="M61 613v101h20v-101h-20zM81 -74c0 -94 -39 -102 -108 -102v20c65 0 88 4 88 89v581h20v-588z" />
    <glyph glyph-name="k" unicode="k" horiz-adv-x="403" 
d="M81 0h-20v714h20v-493l300 293h26l-201 -196h1l215 -318h-26l-204 303l-111 -109v-194z" />
    <glyph glyph-name="l" unicode="l" horiz-adv-x="136" 
d="M81 714v-714h-20v714h20z" />
    <glyph glyph-name="m" unicode="m" horiz-adv-x="687" 
d="M83 514l2 -112c19 72 73 124 138 124c66 3 115 -40 132 -112c19 68 73 112 139 112c107 0 140 -77 140 -188v-338h-20v338c0 101 -27 168 -120 168c-84 0 -135 -84 -135 -180v-326h-21v330c0 96 -19 176 -115 176c-86 0 -140 -100 -140 -215v-291h-20v514h20z" />
    <glyph glyph-name="n" unicode="n" 
d="M83 514l2 -112c19 72 74 124 156 124c91 0 157 -65 157 -185v-341h-20v338c0 119 -63 168 -137 168c-104 0 -158 -100 -158 -215v-291h-20v514h20z" />
    <glyph glyph-name="o" unicode="o" horiz-adv-x="478" 
d="M239 526c140 0 204 -130 204 -278c0 -140 -78 -259 -204 -259s-203 119 -203 259c0 148 63 278 203 278zM239 8c115 0 184 115 184 240c0 121 -46 258 -184 258s-183 -137 -183 -258c0 -125 68 -240 183 -240z" />
    <glyph glyph-name="p" unicode="p" horiz-adv-x="482" 
d="M61 -176v690h20l2 -131c27 79 92 143 174 143c116 0 187 -113 187 -268c0 -145 -67 -269 -187 -269c-91 0 -152 52 -176 141v-306h-20zM257 8c118 0 167 131 167 250c0 132 -55 248 -167 248s-176 -115 -176 -248c0 -161 70 -250 176 -250z" />
    <glyph glyph-name="q" unicode="q" horiz-adv-x="482" 
d="M421 514v-690h-20l-2 306c-23 -83 -86 -141 -173 -141c-121 0 -188 124 -188 269c0 155 71 268 188 268c87 0 149 -59 175 -144v132h20zM401 258c0 133 -64 248 -175 248c-112 0 -168 -116 -168 -248c0 -119 50 -250 168 -250c105 0 175 89 175 250z" />
    <glyph glyph-name="r" unicode="r" horiz-adv-x="255" 
d="M61 0v514h20l2 -113c19 70 72 128 172 125v-20c-120 8 -174 -103 -174 -215v-291h-20z" />
    <glyph glyph-name="s" unicode="s" horiz-adv-x="420" 
d="M349 373c0 96 -59 133 -143 133c-120 0 -132 -90 -132 -109c0 -89 73 -102 148 -124c82 -24 156 -45 156 -142c0 -104 -83 -142 -160 -142c-117 0 -178 53 -178 164h20c0 -98 56 -145 158 -145c63 0 140 33 140 121c0 84 -67 104 -149 127c-80 23 -155 40 -155 141
c0 57 43 129 152 129c99 0 163 -46 163 -153h-20z" />
    <glyph glyph-name="t" unicode="t" horiz-adv-x="231" 
d="M111 100c0 -77 34 -80 61 -80h27v-20h-35c-41 0 -73 23 -73 96v398h-80v20h80v162h20v-162h99v-20h-99v-394z" />
    <glyph glyph-name="u" unicode="u" 
d="M376 0l-2 112c-20 -73 -74 -123 -156 -123c-92 0 -157 63 -157 184v341h20v-338c0 -119 63 -168 137 -168c104 0 158 100 158 215v291h20v-514h-20z" />
    <glyph glyph-name="v" unicode="v" horiz-adv-x="404" 
d="M6 514h22l151 -460c8 -23 13 -34 24 -34s16 11 24 34l153 460h22l-156 -468c-11 -32 -25 -46 -43 -46s-31 14 -42 46z" />
    <glyph glyph-name="w" unicode="w" horiz-adv-x="624" 
d="M600 514h22l-120 -467c-8 -32 -18 -47 -34 -47c-17 0 -25 13 -33 45l-104 406c-6 23 -8 43 -17 43c-8 0 -10 -23 -16 -46l-105 -403c-8 -32 -16 -45 -33 -45c-16 0 -26 15 -34 47l-120 467h22l114 -451c6 -23 9 -43 18 -43c8 0 11 22 17 45l105 403c8 32 15 46 32 46
c16 0 24 -14 32 -46l105 -403c6 -23 9 -45 17 -45c9 0 12 20 18 43z" />
    <glyph glyph-name="x" unicode="x" horiz-adv-x="372" 
d="M361 514l-160 -248l175 -266h-24l-163 248c-55 -83 -108 -166 -163 -248h-24l175 266l-159 248h25l146 -230l148 230h24z" />
    <glyph glyph-name="y" unicode="y" horiz-adv-x="372" 
d="M374 514l-202 -618c-23 -69 -65 -72 -119 -72v20c59 0 82 4 102 66l32 95l-182 509h21l172 -482l155 482h21z" />
    <glyph glyph-name="z" unicode="z" horiz-adv-x="372" 
d="M34 33c1 -10 9 -13 26 -13h298v-20h-306c-25 0 -39 11 -40 28c-1 18 8 35 20 51l278 372c10 14 12 22 11 30c-1 10 -10 13 -24 13h-257v20h263c26 0 37 -14 39 -25c3 -18 -5 -38 -17 -54l-278 -372c-10 -14 -14 -23 -13 -30z" />
    <glyph glyph-name="braceleft" unicode="{" horiz-adv-x="303" 
d="M211 -176c-49 0 -63 35 -63 111v162c0 82 -11 135 -61 174v19c37 8 61 86 61 167v165c0 76 14 109 63 109h45v-20h-43c-33 0 -45 -24 -45 -107v-164c0 -58 -20 -139 -62 -162c37 -23 62 -91 62 -164v-161c0 -89 15 -109 45 -109h43v-20h-45z" />
    <glyph glyph-name="bar" unicode="|" horiz-adv-x="209" 
d="M100 786h21v-999h-21v999z" />
    <glyph glyph-name="braceright" unicode="}" horiz-adv-x="303" 
d="M104 731c49 0 63 -35 63 -111v-163c0 -82 11 -137 61 -174v-19c-37 -8 -61 -86 -61 -167v-164c0 -76 -14 -109 -63 -109h-45v20h43c33 0 45 24 45 107v163c0 58 20 139 62 162c-37 23 -62 91 -62 164v162c0 89 -15 109 -45 109h-43v20h45z" />
    <glyph glyph-name="asciitilde" unicode="~" horiz-adv-x="530" 
d="M455 293h18c-11 -52 -47 -93 -101 -93c-38 0 -66 14 -115 41c-39 21 -64 37 -103 37c-37 0 -68 -27 -82 -74h-18c11 52 47 93 101 93c38 0 66 -14 115 -41c39 -21 64 -37 103 -37c37 0 68 27 82 74z" />
    <glyph glyph-name="cent" unicode="&#xa2;" horiz-adv-x="493" 
d="M268 8c83 0 142 71 152 167h20c-13 -116 -81 -184 -174 -186v-109h-21v109c-122 6 -181 131 -181 269c0 132 62 262 183 267h-2v88h21v-88c90 -3 159 -59 170 -167h-21c-13 96 -71 143 -149 147v-497h2zM245 505c-110 -6 -160 -128 -160 -247c0 -123 50 -244 160 -250
v497z" />
    <glyph glyph-name="sterling" unicode="&#xa3;" horiz-adv-x="493" 
d="M296 345h-153c18 -41 25 -90 25 -136c0 -73 -27 -131 -76 -185c21 16 47 29 79 29c64 0 101 -50 165 -50c55 0 88 35 130 84l13 -16c-50 -66 -90 -87 -143 -87c-66 0 -110 49 -165 49c-39 0 -73 -20 -107 -50l-16 20c55 56 100 125 100 206c0 50 -11 101 -27 136h-65v20
h56l-12 26c-21 46 -47 104 -47 154c0 128 99 186 198 186c145 0 203 -111 204 -231h-19c-9 137 -70 211 -185 211c-87 0 -178 -49 -178 -166c0 -47 25 -99 46 -144l16 -36h161v-20z" />
    <glyph glyph-name="section" unicode="&#xa7;" horiz-adv-x="569" 
d="M504 275c0 -43 -11 -78 -30 -105c19 -27 30 -60 30 -103c0 -136 -113 -191 -218 -191c-132 0 -242 59 -239 240h20c0 -171 100 -221 219 -221c94 0 197 49 197 173c0 249 -422 128 -422 371c0 48 13 84 33 111c-20 24 -33 55 -33 97c0 141 113 184 213 184
c126 0 215 -71 222 -231h-21c-4 147 -86 211 -201 211c-91 0 -193 -36 -193 -164c0 -216 423 -110 423 -372zM81 439c0 -172 270 -139 378 -252c15 24 24 53 24 89c0 197 -264 163 -374 260c-18 -24 -28 -56 -28 -97z" />
    <glyph glyph-name="dieresis" unicode="&#xa8;" horiz-adv-x="130" 
d="M11 714h22l-32 -101h-20zM142 714h23l-32 -101h-21z" />
    <glyph glyph-name="copyright" unicode="&#xa9;" horiz-adv-x="700" 
d="M36 357c0 207 143 374 320 374s320 -167 320 -374c0 -208 -143 -373 -320 -373s-320 165 -320 373zM57 357c0 -197 132 -354 299 -354c165 0 299 157 299 354c0 195 -134 354 -299 354c-167 0 -299 -159 -299 -354zM501 428c-11 88 -71 131 -138 131
c-106 0 -166 -90 -166 -207s63 -212 168 -212c62 0 118 48 136 136h21c-18 -92 -78 -156 -157 -156c-114 0 -188 101 -188 231c0 132 69 228 186 228c81 0 148 -54 159 -151h-21z" />
    <glyph glyph-name="registered" unicode="&#xae;" horiz-adv-x="700" 
d="M36 357c0 207 143 374 320 374s320 -167 320 -374c0 -208 -143 -373 -320 -373s-320 165 -320 373zM57 357c0 -197 132 -354 299 -354c165 0 299 157 299 354c0 195 -134 354 -299 354c-167 0 -299 -159 -299 -354zM369 565c83 0 122 -43 122 -116s-43 -107 -95 -112
l112 -202h-25l-108 199h-107v-199h-21v430h122zM354 354c50 0 117 10 117 95c0 79 -50 96 -104 96h-99v-191h86z" />
    <glyph glyph-name="acute" unicode="&#xb4;" horiz-adv-x="223" 
d="M223 714v-20l-223 -81v20z" />
    <glyph glyph-name="cedilla" unicode="&#xb8;" horiz-adv-x="130" 
d="M-24 -143c30 -11 62 -19 89 -19s70 9 70 50c0 28 -35 43 -55 43c-21 0 -42 -4 -57 -11l-12 8l57 72h20l-41 -55c9 1 17 4 36 4c30 0 72 -17 72 -61c0 -59 -55 -70 -90 -70s-70 10 -89 17v22z" />
    <glyph glyph-name="Agrave" unicode="&#xc0;" horiz-adv-x="554" 
d="M388 833v-20l-223 81v20zM551 0h-22l-70 204h-360l-70 -204h-22l230 668c11 32 24 46 42 46s30 -14 41 -46zM452 224l-149 436c-8 23 -13 34 -24 34s-16 -11 -24 -34l-149 -436h346z" />
    <glyph glyph-name="Aacute" unicode="&#xc1;" horiz-adv-x="554" 
d="M388 914v-20l-223 -81v20zM551 0h-22l-70 204h-360l-70 -204h-22l230 668c11 32 24 46 42 46s30 -14 41 -46zM452 224l-149 436c-8 23 -13 34 -24 34s-16 -11 -24 -34l-149 -436h346z" />
    <glyph glyph-name="Acircumflex" unicode="&#xc2;" horiz-adv-x="554" 
d="M331 889l45 -76h-21l-41 68c-11 18 -19 33 -37 33s-26 -15 -37 -33l-41 -68h-21l45 76c16 28 26 42 54 42s38 -14 54 -42zM551 0h-22l-70 204h-360l-70 -204h-22l230 668c11 32 24 46 42 46s30 -14 41 -46zM452 224l-149 436c-8 23 -13 34 -24 34s-16 -11 -24 -34
l-149 -436h346z" />
    <glyph glyph-name="Atilde" unicode="&#xc3;" horiz-adv-x="554" 
d="M408 875h20c-9 -37 -38 -69 -77 -69c-32 0 -57 15 -82 29c-24 13 -46 26 -72 26c-25 0 -47 -19 -57 -51h-20c9 37 38 69 77 69c33 0 58 -15 83 -29c23 -13 46 -26 71 -26s47 19 57 51zM551 0h-22l-70 204h-360l-70 -204h-22l230 668c11 32 24 46 42 46s30 -14 41 -46z
M452 224l-149 436c-8 23 -13 34 -24 34s-16 -11 -24 -34l-149 -436h346z" />
    <glyph glyph-name="Adieresis" unicode="&#xc4;" horiz-adv-x="554" 
d="M215 914h22l-32 -101h-20zM346 914h23l-32 -101h-21zM551 0h-22l-70 204h-360l-70 -204h-22l230 668c11 32 24 46 42 46s30 -14 41 -46zM452 224l-149 436c-8 23 -13 34 -24 34s-16 -11 -24 -34l-149 -436h346z" />
    <glyph glyph-name="Aring" unicode="&#xc5;" horiz-adv-x="554" 
d="M280 950c46 0 84 -39 84 -88s-38 -88 -84 -88s-83 39 -83 88s37 88 83 88zM280 795c35 0 64 29 64 67s-29 67 -64 67s-63 -29 -63 -67s28 -67 63 -67zM551 0h-22l-70 204h-360l-70 -204h-22l230 668c11 32 24 46 42 46s30 -14 41 -46zM452 224l-149 436
c-8 23 -13 34 -24 34s-16 -11 -24 -34l-149 -436h346z" />
    <glyph glyph-name="AE" unicode="&#xc6;" horiz-adv-x="827" 
d="M434 20h372v-20h-377c-19 0 -33 13 -33 38v166h-297l-70 -204h-22l230 668c11 32 24 46 42 46h523v-20h-385v-312h363v-20h-363v-316c0 -15 3 -26 17 -26zM106 224h290v470h-117c-11 0 -16 -11 -24 -34z" />
    <glyph glyph-name="Ccedilla" unicode="&#xc7;" horiz-adv-x="608" 
d="M569 224c-9 -99 -81 -233 -243 -240l-34 -45c9 1 17 4 36 4c30 0 72 -17 72 -61c0 -59 -55 -70 -90 -70s-70 10 -89 17v22c30 -11 62 -19 89 -19s70 9 70 50c0 28 -35 43 -55 43c-21 0 -42 -4 -57 -11l-12 8l49 62c-158 5 -269 157 -269 367c0 173 79 380 287 380
c161 0 241 -143 244 -231h-21c-6 103 -99 211 -223 211c-199 0 -267 -212 -267 -360c0 -181 94 -348 257 -348c145 0 226 109 235 221h21z" />
    <glyph glyph-name="Egrave" unicode="&#xc8;" horiz-adv-x="482" 
d="M352 833v-20l-223 81v20zM470 20v-20h-377c-19 0 -33 13 -33 38v638c0 25 14 38 33 38h373v-20h-368c-14 0 -17 -11 -17 -26v-286h363v-20h-363v-316c0 -15 3 -26 17 -26h372z" />
    <glyph glyph-name="Eacute" unicode="&#xc9;" horiz-adv-x="482" 
d="M352 914v-20l-223 -81v20zM470 20v-20h-377c-19 0 -33 13 -33 38v638c0 25 14 38 33 38h373v-20h-368c-14 0 -17 -11 -17 -26v-286h363v-20h-363v-316c0 -15 3 -26 17 -26h372z" />
    <glyph glyph-name="Ecircumflex" unicode="&#xca;" horiz-adv-x="482" 
d="M295 889l45 -76h-21l-41 68c-11 18 -19 33 -37 33s-26 -15 -37 -33l-41 -68h-21l45 76c16 28 26 42 54 42s38 -14 54 -42zM470 20v-20h-377c-19 0 -33 13 -33 38v638c0 25 14 38 33 38h373v-20h-368c-14 0 -17 -11 -17 -26v-286h363v-20h-363v-316c0 -15 3 -26 17 -26
h372z" />
    <glyph glyph-name="Edieresis" unicode="&#xcb;" horiz-adv-x="482" 
d="M179 914h22l-32 -101h-20zM310 914h23l-32 -101h-21zM470 20v-20h-377c-19 0 -33 13 -33 38v638c0 25 14 38 33 38h373v-20h-368c-14 0 -17 -11 -17 -26v-286h363v-20h-363v-316c0 -15 3 -26 17 -26h372z" />
    <glyph glyph-name="Igrave" unicode="&#xcc;" horiz-adv-x="164" 
d="M194 833v-20l-223 81v20zM93 714v-714h-21v714h21z" />
    <glyph glyph-name="Iacute" unicode="&#xcd;" horiz-adv-x="164" 
d="M194 914v-20l-223 -81v20zM93 714v-714h-21v714h21z" />
    <glyph glyph-name="Icircumflex" unicode="&#xce;" horiz-adv-x="164" 
d="M136 889l45 -76h-21l-41 68c-11 18 -19 33 -37 33s-26 -15 -37 -33l-41 -68h-21l45 76c16 28 26 42 54 42s38 -14 54 -42zM93 714v-714h-21v714h21z" />
    <glyph glyph-name="Idieresis" unicode="&#xcf;" horiz-adv-x="164" 
d="M20 914h22l-32 -101h-20zM151 914h23l-32 -101h-21zM93 714v-714h-21v714h21z" />
    <glyph glyph-name="Ntilde" unicode="&#xd1;" horiz-adv-x="651" 
d="M459 875h20c-9 -37 -38 -69 -77 -69c-32 0 -57 15 -82 29c-24 13 -46 26 -72 26c-25 0 -47 -19 -57 -51h-20c9 37 38 69 77 69c33 0 58 -15 83 -29c23 -13 46 -26 71 -26s47 19 57 51zM568 714h21v-670c0 -30 -20 -43 -33 -44c-18 -1 -31 5 -46 30l-388 643
c-12 19 -21 22 -28 20c-8 -2 -13 -10 -13 -31v-662h-21v670c0 30 20 43 33 44c18 1 32 -5 47 -30l387 -643c12 -19 21 -22 28 -20c8 2 13 10 13 31v662z" />
    <glyph glyph-name="Ograve" unicode="&#xd2;" horiz-adv-x="639" 
d="M431 833v-20l-223 81v20zM41 357c0 203 100 374 282 374s281 -171 281 -374c0 -204 -99 -373 -281 -373s-282 169 -282 373zM62 357c2 -205 98 -354 261 -354c162 0 258 149 261 354c-3 205 -99 354 -261 354c-163 0 -259 -149 -261 -354z" />
    <glyph glyph-name="Oacute" unicode="&#xd3;" horiz-adv-x="639" 
d="M431 914v-20l-223 -81v20zM41 357c0 203 100 374 282 374s281 -171 281 -374c0 -204 -99 -373 -281 -373s-282 169 -282 373zM62 357c2 -205 98 -354 261 -354c162 0 258 149 261 354c-3 205 -99 354 -261 354c-163 0 -259 -149 -261 -354z" />
    <glyph glyph-name="Ocircumflex" unicode="&#xd4;" horiz-adv-x="639" 
d="M373 889l45 -76h-21l-41 68c-11 18 -19 33 -37 33s-26 -15 -37 -33l-41 -68h-21l45 76c16 28 26 42 54 42s38 -14 54 -42zM41 357c0 203 100 374 282 374s281 -171 281 -374c0 -204 -99 -373 -281 -373s-282 169 -282 373zM62 357c2 -205 98 -354 261 -354
c162 0 258 149 261 354c-3 205 -99 354 -261 354c-163 0 -259 -149 -261 -354z" />
    <glyph glyph-name="Otilde" unicode="&#xd5;" horiz-adv-x="639" 
d="M453 875h20c-9 -37 -38 -69 -77 -69c-32 0 -57 15 -82 29c-24 13 -46 26 -72 26c-25 0 -47 -19 -57 -51h-20c9 37 38 69 77 69c33 0 58 -15 83 -29c23 -13 46 -26 71 -26s47 19 57 51zM41 357c0 203 100 374 282 374s281 -171 281 -374c0 -204 -99 -373 -281 -373
s-282 169 -282 373zM62 357c2 -205 98 -354 261 -354c162 0 258 149 261 354c-3 205 -99 354 -261 354c-163 0 -259 -149 -261 -354z" />
    <glyph glyph-name="Odieresis" unicode="&#xd6;" horiz-adv-x="639" 
d="M257 914h22l-32 -101h-20zM388 914h23l-32 -101h-21zM41 357c0 203 100 374 282 374s281 -171 281 -374c0 -204 -99 -373 -281 -373s-282 169 -282 373zM62 357c2 -205 98 -354 261 -354c162 0 258 149 261 354c-3 205 -99 354 -261 354c-163 0 -259 -149 -261 -354z" />
    <glyph glyph-name="Oslash" unicode="&#xd8;" horiz-adv-x="639" 
d="M478 678c82 -66 126 -186 126 -321c0 -204 -99 -373 -281 -373c-54 0 -101 15 -140 41l-18 -41h-20l23 52c-83 65 -127 185 -127 321c0 203 100 374 282 374c54 0 100 -15 139 -41l19 41h21zM62 357c1 -133 42 -242 115 -302l277 616c-37 26 -81 40 -131 40
c-163 0 -259 -149 -261 -354zM323 3c162 0 258 149 261 354c-2 132 -43 241 -115 302l-277 -616c36 -26 81 -40 131 -40z" />
    <glyph glyph-name="Ugrave" unicode="&#xd9;" horiz-adv-x="563" 
d="M393 833v-20l-223 81v20zM509 714v-448c0 -192 -78 -282 -224 -282c-147 0 -225 90 -225 282v448h21v-448c0 -172 64 -263 204 -263c139 0 204 91 204 263v448h20z" />
    <glyph glyph-name="Uacute" unicode="&#xda;" horiz-adv-x="563" 
d="M393 914v-20l-223 -81v20zM509 714v-448c0 -192 -78 -282 -224 -282c-147 0 -225 90 -225 282v448h21v-448c0 -172 64 -263 204 -263c139 0 204 91 204 263v448h20z" />
    <glyph glyph-name="Ucircumflex" unicode="&#xdb;" horiz-adv-x="563" 
d="M335 889l45 -76h-21l-41 68c-11 18 -19 33 -37 33s-26 -15 -37 -33l-41 -68h-21l45 76c16 28 26 42 54 42s38 -14 54 -42zM509 714v-448c0 -192 -78 -282 -224 -282c-147 0 -225 90 -225 282v448h21v-448c0 -172 64 -263 204 -263c139 0 204 91 204 263v448h20z" />
    <glyph glyph-name="Udieresis" unicode="&#xdc;" horiz-adv-x="563" 
d="M219 914h22l-32 -101h-20zM350 914h23l-32 -101h-21zM509 714v-448c0 -192 -78 -282 -224 -282c-147 0 -225 90 -225 282v448h21v-448c0 -172 64 -263 204 -263c139 0 204 91 204 263v448h20z" />
    <glyph glyph-name="Yacute" unicode="&#xdd;" horiz-adv-x="483" 
d="M353 914v-20l-223 -81v20zM500 714l-245 -413v-301h-21v301l-244 413h24l231 -389l232 389h23z" />
    <glyph glyph-name="germandbls" unicode="&#xdf;" horiz-adv-x="441" 
d="M280 398c97 -12 141 -90 141 -194c0 -108 -59 -204 -212 -204h-55v20h55c114 0 191 58 191 184c0 147 -81 183 -195 183v20h2c85 -3 162 37 162 154c0 91 -66 145 -143 145c-49 0 -133 -14 -133 -153v-553h-20v494h-57v20h57v42c0 128 76 170 153 170
c82 0 163 -61 163 -165c0 -82 -38 -145 -109 -163z" />
    <glyph glyph-name="agrave" unicode="&#xe0;" horiz-adv-x="435" 
d="M329 633v-20l-223 81v20zM60 372c4 97 55 154 163 154c79 0 149 -35 152 -147v-276c0 -55 16 -84 35 -103h-26c-18 18 -30 49 -30 105v5c-20 -64 -84 -121 -173 -121s-148 46 -148 138c0 108 73 147 174 155c98 8 147 12 147 82c0 61 -16 142 -131 142
c-90 0 -136 -38 -142 -134h-21zM179 8c113 0 175 92 175 188v108c-23 -34 -83 -35 -141 -41c-93 -9 -160 -32 -160 -136c0 -59 32 -119 126 -119z" />
    <glyph glyph-name="aacute" unicode="&#xe1;" horiz-adv-x="435" 
d="M329 714v-20l-223 -81v20zM60 372c4 97 55 154 163 154c79 0 149 -35 152 -147v-276c0 -55 16 -84 35 -103h-26c-18 18 -30 49 -30 105v5c-20 -64 -84 -121 -173 -121s-148 46 -148 138c0 108 73 147 174 155c98 8 147 12 147 82c0 61 -16 142 -131 142
c-90 0 -136 -38 -142 -134h-21zM179 8c113 0 175 92 175 188v108c-23 -34 -83 -35 -141 -41c-93 -9 -160 -32 -160 -136c0 -59 32 -119 126 -119z" />
    <glyph glyph-name="acircumflex" unicode="&#xe2;" horiz-adv-x="435" 
d="M271 689l45 -76h-21l-41 68c-11 18 -19 33 -37 33s-26 -15 -37 -33l-41 -68h-21l45 76c16 28 26 42 54 42s38 -14 54 -42zM60 372c4 97 55 154 163 154c79 0 149 -35 152 -147v-276c0 -55 16 -84 35 -103h-26c-18 18 -30 49 -30 105v5c-20 -64 -84 -121 -173 -121
s-148 46 -148 138c0 108 73 147 174 155c98 8 147 12 147 82c0 61 -16 142 -131 142c-90 0 -136 -38 -142 -134h-21zM179 8c113 0 175 92 175 188v108c-23 -34 -83 -35 -141 -41c-93 -9 -160 -32 -160 -136c0 -59 32 -119 126 -119z" />
    <glyph glyph-name="atilde" unicode="&#xe3;" horiz-adv-x="435" 
d="M351 675h20c-9 -37 -38 -69 -77 -69c-32 0 -57 15 -82 29c-24 13 -46 26 -72 26c-25 0 -47 -19 -57 -51h-20c9 37 38 69 77 69c33 0 58 -15 83 -29c23 -13 46 -26 71 -26s47 19 57 51zM60 372c4 97 55 154 163 154c79 0 149 -35 152 -147v-276c0 -55 16 -84 35 -103h-26
c-18 18 -30 49 -30 105v5c-20 -64 -84 -121 -173 -121s-148 46 -148 138c0 108 73 147 174 155c98 8 147 12 147 82c0 61 -16 142 -131 142c-90 0 -136 -38 -142 -134h-21zM179 8c113 0 175 92 175 188v108c-23 -34 -83 -35 -141 -41c-93 -9 -160 -32 -160 -136
c0 -59 32 -119 126 -119z" />
    <glyph glyph-name="adieresis" unicode="&#xe4;" horiz-adv-x="435" 
d="M170 714h22l-32 -101h-20zM301 714h23l-32 -101h-21zM60 372c4 97 55 154 163 154c79 0 149 -35 152 -147v-276c0 -55 16 -84 35 -103h-26c-18 18 -30 49 -30 105v5c-20 -64 -84 -121 -173 -121s-148 46 -148 138c0 108 73 147 174 155c98 8 147 12 147 82
c0 61 -16 142 -131 142c-90 0 -136 -38 -142 -134h-21zM179 8c113 0 175 92 175 188v108c-23 -34 -83 -35 -141 -41c-93 -9 -160 -32 -160 -136c0 -59 32 -119 126 -119z" />
    <glyph glyph-name="aring" unicode="&#xe5;" horiz-adv-x="435" 
d="M223 750c46 0 84 -39 84 -88s-38 -88 -84 -88s-83 39 -83 88s37 88 83 88zM223 595c35 0 64 29 64 67s-29 67 -64 67s-63 -29 -63 -67s28 -67 63 -67zM60 372c4 97 55 154 163 154c79 0 149 -35 152 -147v-276c0 -55 16 -84 35 -103h-26c-18 18 -30 49 -30 105v5
c-20 -64 -84 -121 -173 -121s-148 46 -148 138c0 108 73 147 174 155c98 8 147 12 147 82c0 61 -16 142 -131 142c-90 0 -136 -38 -142 -134h-21zM179 8c113 0 175 92 175 188v108c-23 -34 -83 -35 -141 -41c-93 -9 -160 -32 -160 -136c0 -59 32 -119 126 -119z" />
    <glyph glyph-name="ae" unicode="&#xe6;" horiz-adv-x="770" 
d="M715 153h20c-10 -100 -83 -164 -176 -164s-159 64 -188 154c-29 -94 -101 -154 -190 -154s-148 46 -148 138c0 108 73 147 174 155c98 8 147 12 147 82c0 61 -16 142 -131 142c-90 0 -136 -38 -142 -134h-21c4 97 55 154 163 154c79 0 148 -35 152 -145
c28 85 86 145 182 145c126 0 178 -112 177 -249h-357c-12 -105 42 -269 182 -269c78 0 143 50 156 145zM557 506c-120 0 -168 -103 -179 -209h334c-3 124 -52 209 -155 209zM354 196v108c-23 -34 -83 -35 -141 -41c-93 -9 -160 -32 -160 -136c0 -59 32 -119 126 -119
c113 0 175 99 175 188z" />
    <glyph glyph-name="ccedilla" unicode="&#xe7;" 
d="M420 153c-10 -98 -79 -161 -169 -164l-36 -48c9 1 17 4 36 4c30 0 72 -17 72 -61c0 -59 -55 -70 -90 -70s-70 10 -89 17v22c30 -11 62 -19 89 -19s70 9 70 50c0 28 -35 43 -55 43c-21 0 -42 -4 -57 -11l-12 8l52 65c-118 8 -190 124 -190 259c0 148 61 278 201 278
c83 0 157 -48 171 -154h-20c-21 97 -79 134 -151 134c-138 0 -181 -137 -181 -258c0 -125 68 -240 183 -240c78 0 143 50 156 145h20z" />
    <glyph glyph-name="egrave" unicode="&#xe8;" 
d="M337 633v-20l-223 81v20zM394 153h20c-10 -100 -83 -164 -176 -164c-126 0 -203 119 -203 259c0 148 61 278 201 278c126 0 178 -112 177 -249h-357c-12 -105 42 -269 182 -269c78 0 143 50 156 145zM236 506c-120 0 -168 -103 -179 -209h334c-3 124 -52 209 -155 209z
" />
    <glyph glyph-name="eacute" unicode="&#xe9;" 
d="M337 714v-20l-223 -81v20zM394 153h20c-10 -100 -83 -164 -176 -164c-126 0 -203 119 -203 259c0 148 61 278 201 278c126 0 178 -112 177 -249h-357c-12 -105 42 -269 182 -269c78 0 143 50 156 145zM236 506c-120 0 -168 -103 -179 -209h334c-3 124 -52 209 -155 209z
" />
    <glyph glyph-name="ecircumflex" unicode="&#xea;" 
d="M279 689l45 -76h-21l-41 68c-11 18 -19 33 -37 33s-26 -15 -37 -33l-41 -68h-21l45 76c16 28 26 42 54 42s38 -14 54 -42zM394 153h20c-10 -100 -83 -164 -176 -164c-126 0 -203 119 -203 259c0 148 61 278 201 278c126 0 178 -112 177 -249h-357
c-12 -105 42 -269 182 -269c78 0 143 50 156 145zM236 506c-120 0 -168 -103 -179 -209h334c-3 124 -52 209 -155 209z" />
    <glyph glyph-name="edieresis" unicode="&#xeb;" 
d="M178 714h22l-32 -101h-20zM309 714h23l-32 -101h-21zM394 153h20c-10 -100 -83 -164 -176 -164c-126 0 -203 119 -203 259c0 148 61 278 201 278c126 0 178 -112 177 -249h-357c-12 -105 42 -269 182 -269c78 0 143 50 156 145zM236 506c-120 0 -168 -103 -179 -209h334
c-3 124 -52 209 -155 209z" />
    <glyph glyph-name="igrave" unicode="&#xec;" horiz-adv-x="144" 
d="M184 633v-20l-223 81v20zM61 0v514h20v-514h-20z" />
    <glyph glyph-name="iacute" unicode="&#xed;" horiz-adv-x="144" 
d="M184 714v-20l-223 -81v20zM61 0v514h20v-514h-20z" />
    <glyph glyph-name="icircumflex" unicode="&#xee;" horiz-adv-x="144" 
d="M126 689l45 -76h-21l-41 68c-11 18 -19 33 -37 33s-26 -15 -37 -33l-41 -68h-21l45 76c16 28 26 42 54 42s38 -14 54 -42zM61 0v514h20v-514h-20z" />
    <glyph glyph-name="idieresis" unicode="&#xef;" horiz-adv-x="144" 
d="M10 714h22l-32 -101h-20zM141 714h23l-32 -101h-21zM61 0v514h20v-514h-20z" />
    <glyph glyph-name="ntilde" unicode="&#xf1;" 
d="M359 675h20c-9 -37 -38 -69 -77 -69c-32 0 -57 15 -82 29c-24 13 -46 26 -72 26c-25 0 -47 -19 -57 -51h-20c9 37 38 69 77 69c33 0 58 -15 83 -29c23 -13 46 -26 71 -26s47 19 57 51zM83 514l2 -112c19 72 74 124 156 124c91 0 157 -65 157 -185v-341h-20v338
c0 119 -63 168 -137 168c-104 0 -158 -100 -158 -215v-291h-20v514h20z" />
    <glyph glyph-name="ograve" unicode="&#xf2;" horiz-adv-x="478" 
d="M350 633v-20l-223 81v20zM239 526c140 0 204 -130 204 -278c0 -140 -78 -259 -204 -259s-203 119 -203 259c0 148 63 278 203 278zM239 8c115 0 184 115 184 240c0 121 -46 258 -184 258s-183 -137 -183 -258c0 -125 68 -240 183 -240z" />
    <glyph glyph-name="oacute" unicode="&#xf3;" horiz-adv-x="478" 
d="M350 714v-20l-223 -81v20zM239 526c140 0 204 -130 204 -278c0 -140 -78 -259 -204 -259s-203 119 -203 259c0 148 63 278 203 278zM239 8c115 0 184 115 184 240c0 121 -46 258 -184 258s-183 -137 -183 -258c0 -125 68 -240 183 -240z" />
    <glyph glyph-name="ocircumflex" unicode="&#xf4;" horiz-adv-x="478" 
d="M293 689l45 -76h-21l-41 68c-11 18 -19 33 -37 33s-26 -15 -37 -33l-41 -68h-21l45 76c16 28 26 42 54 42s38 -14 54 -42zM239 526c140 0 204 -130 204 -278c0 -140 -78 -259 -204 -259s-203 119 -203 259c0 148 63 278 203 278zM239 8c115 0 184 115 184 240
c0 121 -46 258 -184 258s-183 -137 -183 -258c0 -125 68 -240 183 -240z" />
    <glyph glyph-name="otilde" unicode="&#xf5;" horiz-adv-x="478" 
d="M373 675h20c-9 -37 -38 -69 -77 -69c-32 0 -57 15 -82 29c-24 13 -46 26 -72 26c-25 0 -47 -19 -57 -51h-20c9 37 38 69 77 69c33 0 58 -15 83 -29c23 -13 46 -26 71 -26s47 19 57 51zM239 526c140 0 204 -130 204 -278c0 -140 -78 -259 -204 -259s-203 119 -203 259
c0 148 63 278 203 278zM239 8c115 0 184 115 184 240c0 121 -46 258 -184 258s-183 -137 -183 -258c0 -125 68 -240 183 -240z" />
    <glyph glyph-name="odieresis" unicode="&#xf6;" horiz-adv-x="478" 
d="M183 714h22l-32 -101h-20zM314 714h23l-32 -101h-21zM239 526c140 0 204 -130 204 -278c0 -140 -78 -259 -204 -259s-203 119 -203 259c0 148 63 278 203 278zM239 8c115 0 184 115 184 240c0 121 -46 258 -184 258s-183 -137 -183 -258c0 -125 68 -240 183 -240z" />
    <glyph glyph-name="oslash" unicode="&#xf8;" horiz-adv-x="478" 
d="M363 479c54 -51 80 -138 80 -231c0 -140 -78 -259 -204 -259c-32 0 -61 8 -87 22l-12 -27h-20l16 37c-63 44 -100 131 -100 227c0 148 63 278 203 278c44 0 80 -13 109 -35l18 40h21zM56 248c0 -86 32 -166 89 -209l195 434c-26 21 -59 33 -101 33
c-138 0 -183 -137 -183 -258zM239 8c115 0 184 115 184 240c0 77 -19 161 -68 212l-195 -431c23 -13 50 -21 79 -21z" />
    <glyph glyph-name="ugrave" unicode="&#xf9;" 
d="M337 633v-20l-223 81v20zM376 0l-2 112c-20 -73 -74 -123 -156 -123c-92 0 -157 63 -157 184v341h20v-338c0 -119 63 -168 137 -168c104 0 158 100 158 215v291h20v-514h-20z" />
    <glyph glyph-name="uacute" unicode="&#xfa;" 
d="M348 714v-20l-223 -81v20zM376 0l-2 112c-20 -73 -74 -123 -156 -123c-92 0 -157 63 -157 184v341h20v-338c0 -119 63 -168 137 -168c104 0 158 100 158 215v291h20v-514h-20z" />
    <glyph glyph-name="ucircumflex" unicode="&#xfb;" 
d="M279 689l45 -76h-21l-41 68c-11 18 -19 33 -37 33s-26 -15 -37 -33l-41 -68h-21l45 76c16 28 26 42 54 42s38 -14 54 -42zM376 0l-2 112c-20 -73 -74 -123 -156 -123c-92 0 -157 63 -157 184v341h20v-338c0 -119 63 -168 137 -168c104 0 158 100 158 215v291h20v-514h-20
z" />
    <glyph glyph-name="udieresis" unicode="&#xfc;" horiz-adv-x="445" 
d="M185 714h22l-32 -101h-20zM316 714h23l-32 -101h-21zM382 0l-2 112c-20 -73 -74 -123 -156 -123c-92 0 -157 63 -157 184v341h20v-338c0 -119 63 -168 137 -168c104 0 158 100 158 215v291h20v-514h-20z" />
    <glyph glyph-name="yacute" unicode="&#xfd;" horiz-adv-x="372" 
d="M297 714v-20l-223 -81v20zM374 514l-202 -618c-23 -69 -65 -72 -119 -72v20c59 0 82 4 102 66l32 95l-182 509h21l172 -482l155 482h21z" />
    <glyph glyph-name="ydieresis" unicode="&#xff;" horiz-adv-x="372" 
d="M124 714h22l-32 -101h-20zM255 714h23l-32 -101h-21zM374 514l-202 -618c-23 -69 -65 -72 -119 -72v20c59 0 82 4 102 66l32 95l-182 509h21l172 -482l155 482h21z" />
    <glyph glyph-name="dotlessi" unicode="&#x131;" horiz-adv-x="144" 
d="M61 0v514h20v-514h-20z" />
    <glyph glyph-name="OE" unicode="&#x152;" horiz-adv-x="871" 
d="M462 20h389v-20h-486c-147 0 -305 101 -305 357c0 280 157 357 279 357h508v-20h-385v-312h363v-20h-363v-342zM441 20v674h-98c-121 0 -263 -70 -263 -337c0 -229 138 -337 281 -337h80z" />
    <glyph glyph-name="oe" unicode="&#x153;" horiz-adv-x="837" 
d="M784 153h20c-10 -100 -83 -164 -176 -164c-101 0 -170 76 -194 178c-24 -102 -94 -178 -195 -178c-126 0 -203 119 -203 259c0 148 63 278 203 278c109 0 172 -79 195 -184c21 105 82 184 192 184c126 0 178 -112 177 -249h-357c-12 -105 42 -269 182 -269
c78 0 143 50 156 145zM239 8c115 0 184 115 184 240c0 121 -46 258 -184 258s-183 -137 -183 -258c0 -125 68 -240 183 -240zM626 506c-120 0 -168 -103 -179 -209h334c-3 124 -52 209 -155 209z" />
    <glyph glyph-name="Scaron" unicode="&#x160;" horiz-adv-x="539" 
d="M315 847l39 84h19l-42 -91c-15 -32 -27 -49 -50 -49s-35 16 -50 49l-42 91h20l39 -84c10 -21 19 -36 33 -36s24 15 34 36zM481 500c-4 147 -86 211 -201 211c-91 0 -193 -36 -193 -164c0 -216 423 -110 423 -372c0 -136 -113 -191 -218 -191c-132 0 -242 59 -239 240h20
c0 -171 100 -221 219 -221c94 0 197 49 197 173c0 249 -422 128 -422 371c0 141 113 184 213 184c126 0 215 -71 222 -231h-21z" />
    <glyph glyph-name="scaron" unicode="&#x161;" horiz-adv-x="414" 
d="M253 647l39 84h19l-42 -91c-15 -32 -27 -49 -50 -49s-35 16 -50 49l-42 91h20l39 -84c10 -21 19 -36 33 -36s24 15 34 36zM355 373c0 96 -59 133 -143 133c-120 0 -132 -90 -132 -109c0 -89 73 -102 148 -124c82 -24 156 -45 156 -142c0 -104 -83 -142 -160 -142
c-117 0 -178 53 -178 164h20c0 -98 56 -145 158 -145c63 0 140 33 140 121c0 84 -67 104 -149 127c-80 23 -155 40 -155 141c0 57 43 129 152 129c99 0 163 -46 163 -153h-20z" />
    <glyph glyph-name="Ydieresis" unicode="&#x178;" horiz-adv-x="483" 
d="M179 914h22l-32 -101h-20zM310 914h23l-32 -101h-21zM500 714l-245 -413v-301h-21v301l-244 413h24l231 -389l232 389h23z" />
    <glyph glyph-name="Zcaron" unicode="&#x17d;" horiz-adv-x="445" 
d="M268 847l39 84h19l-42 -91c-15 -32 -27 -49 -50 -49s-35 16 -50 49l-42 91h20l39 -84c10 -21 19 -36 33 -36s24 15 34 36zM40 33c1 -10 9 -13 26 -13h388v-20h-396c-25 0 -39 11 -40 28c-1 18 9 34 20 51l363 572c9 15 15 26 12 33c-4 9 -12 10 -29 10h-356v20h368
c25 0 37 -13 39 -24c3 -18 -8 -38 -19 -55l-363 -572c-9 -15 -14 -23 -13 -30z" />
    <glyph glyph-name="zcaron" unicode="&#x17e;" horiz-adv-x="366" 
d="M229 647l39 84h19l-42 -91c-15 -32 -27 -49 -50 -49s-35 16 -50 49l-42 91h20l39 -84c10 -21 19 -36 33 -36s24 15 34 36zM40 33c1 -10 9 -13 26 -13h298v-20h-306c-25 0 -39 11 -40 28c-1 18 8 35 20 51l278 372c10 14 12 22 11 30c-1 10 -10 13 -24 13h-257v20h263
c26 0 37 -14 39 -25c3 -18 -5 -38 -17 -54l-278 -372c-10 -14 -14 -23 -13 -30z" />
    <glyph glyph-name="circumflex" unicode="&#x2c6;" horiz-adv-x="198" 
d="M153 689l45 -76h-21l-41 68c-11 18 -19 33 -37 33s-26 -15 -37 -33l-41 -68h-21l45 76c16 28 26 42 54 42s38 -14 54 -42z" />
    <glyph glyph-name="caron" unicode="&#x2c7;" horiz-adv-x="130" 
d="M107 647l39 84h19l-42 -91c-15 -32 -27 -49 -50 -49s-35 16 -50 49l-42 91h20l39 -84c10 -21 19 -36 33 -36s24 15 34 36z" />
    <glyph glyph-name="breve" unicode="&#x2d8;" horiz-adv-x="130" 
d="M-14 731c6 -52 38 -87 83 -87c47 0 82 27 88 87h20c-6 -68 -50 -107 -108 -107c-56 0 -96 43 -103 107h20z" />
    <glyph glyph-name="dotaccent" unicode="&#x2d9;" horiz-adv-x="130" 
d="M81 590h-20v81h20v-81z" />
    <glyph glyph-name="ring" unicode="&#x2da;" horiz-adv-x="168" 
d="M84 750c46 0 84 -39 84 -88s-38 -88 -84 -88s-83 39 -83 88s37 88 83 88zM84 595c35 0 64 29 64 67s-29 67 -64 67s-63 -29 -63 -67s28 -67 63 -67z" />
    <glyph glyph-name="ogonek" unicode="&#x2db;" horiz-adv-x="130" 
d="M110 0c-63 -57 -86 -92 -86 -125c0 -21 12 -45 42 -45c26 0 53 19 66 34l12 -14c-16 -19 -40 -38 -81 -38c-44 0 -61 27 -61 62c0 49 42 89 82 126h26z" />
    <glyph glyph-name="tilde" unicode="&#x2dc;" horiz-adv-x="344" 
d="M308 675h20c-9 -37 -38 -69 -77 -69c-32 0 -57 15 -82 29c-24 13 -46 26 -72 26c-25 0 -47 -19 -57 -51h-20c9 37 38 69 77 69c33 0 58 -15 83 -29c23 -13 46 -26 71 -26s47 19 57 51z" />
    <glyph glyph-name="hungarumlaut" unicode="&#x2dd;" horiz-adv-x="130" 
d="M-8 587h-14l111 144h26zM119 587h-15l113 144h26z" />
    <glyph glyph-name="endash" unicode="&#x2013;" horiz-adv-x="605" 
d="M544 314v-20h-481v20h481z" />
    <glyph glyph-name="emdash" unicode="&#x2014;" horiz-adv-x="729" 
d="M669 314v-20h-606v20h606z" />
    <glyph glyph-name="quoteleft" unicode="&#x2018;" horiz-adv-x="162" 
d="M75 489h-20l32 213h20z" />
    <glyph glyph-name="quoteright" unicode="&#x2019;" horiz-adv-x="162" 
d="M74 489h-20l32 213h20z" />
    <glyph glyph-name="quotedblleft" unicode="&#x201c;" horiz-adv-x="256" 
d="M106 489h-20l32 213h20zM189 489h-20l32 213h20z" />
    <glyph glyph-name="quotedblright" unicode="&#x201d;" horiz-adv-x="256" 
d="M82 489h-20l32 213h20zM165 489h-20l32 213h20z" />
    <glyph glyph-name="dagger" unicode="&#x2020;" horiz-adv-x="493" 
d="M262 471h177v-20h-177v-590h-20v590h-177v20h177v243h20v-243z" />
    <glyph glyph-name="daggerdbl" unicode="&#x2021;" horiz-adv-x="493" 
d="M65 77h177v420h-177v20h177v197h20v-197h177v-20h-177v-420h177v-20h-177v-196h-20v196h-177v20z" />
    <glyph glyph-name="ellipsis" unicode="&#x2026;" horiz-adv-x="729" 
d="M124 0v98h20v-98h-20zM360 0v98h21v-98h-21zM597 0v98h20v-98h-20z" />
    <glyph glyph-name="breve.001" horiz-adv-x="130" 
d="M70 624c-58 0 -94 36 -105 107h20c10 -58 38 -87 85 -87c51 0 79 29 87 87h20c-10 -71 -46 -107 -107 -107z" />
    </font>
</defs>
</svg>
