<?xml version="1.0" standalone="no"?>
<!DOCTYPE svg PUBLIC "-//W3C//DTD SVG 1.1//EN" "http://www.w3.org/Graphics/SVG/1.1/DTD/svg11.dtd" >
<svg xmlns="http://www.w3.org/2000/svg" xmlns:xlink="http://www.w3.org/1999/xlink" version="1.1">
<metadata>
Created by FontForge 20181214 at Fri Mar 15 10:16:29 2019
 By convertio
Copyright 2019 Adobe Systems Incorporated. All rights reserved.
</metadata>
<defs>
<font id="Amare-Alta" horiz-adv-x="0" >
  <font-face 
    font-family="Amare Alta"
    font-weight="400"
    font-stretch="normal"
    units-per-em="1000"
    panose-1="2 0 5 3 4 0 0 2 0 4"
    ascent="750"
    descent="-250"
    x-height="536"
    cap-height="736"
    bbox="-348.019 -206 1182 1001"
    underline-thickness="50"
    underline-position="-100"
    stemh="63"
    stemv="77"
    unicode-range="U+0020-FB02"
  />
<missing-glyph horiz-adv-x="278" 
 />
    <glyph glyph-name=".notdef" horiz-adv-x="278" 
 />
    <glyph glyph-name="space" unicode=" " horiz-adv-x="230" 
 />
    <glyph glyph-name="exclam" unicode="!" horiz-adv-x="185" 
d="M107 736c20 0 32 -12 32 -25v-493c0 -13 -12 -25 -32 -25h-20c-20 0 -32 12 -32 25v493c0 13 12 25 32 25h20zM107 141c20 0 32 -12 32 -25v-91c0 -13 -12 -25 -32 -25h-20c-20 0 -32 12 -32 25v91c0 13 12 25 32 25h20z" />
    <glyph glyph-name="quotedbl" unicode="&#x22;" horiz-adv-x="316" 
d="M100 736c20 0 32 -12 32 -25v-218c0 -13 -12 -25 -32 -25h-21c-20 0 -32 12 -32 25v218c0 13 12 25 32 25h21zM230 736c20 0 32 -12 32 -25v-218c0 -13 -12 -25 -32 -25h-21c-20 0 -32 12 -32 25v218c0 13 12 25 32 25h21z" />
    <glyph glyph-name="numbersign" unicode="#" horiz-adv-x="583" 
d="M491 480c20 0 32 -12 32 -25v-20c0 -13 -12 -25 -32 -25h-62l-15 -120h58c20 0 32 -12 32 -25v-20c0 -13 -12 -25 -32 -25h-67l-24 -196c-2 -16 -12 -24 -32 -24h-20c-19 0 -28 10 -26 26l24 194h-102l-24 -196c-2 -16 -12 -24 -32 -24h-20c-19 0 -28 10 -26 26l24 194
h-62c-13 0 -25 12 -25 25v20c0 13 12 25 25 25h71l15 120h-67c-13 0 -25 12 -25 25v20c0 13 12 25 25 25h75l25 198c2 16 12 24 32 24h20c19 0 28 -10 26 -26l-24 -196h101l25 198c2 16 12 24 32 24h20c19 0 28 -10 26 -26l-24 -196h53zM351 410h-102l-15 -120h102z" />
    <glyph glyph-name="dollar" unicode="$" horiz-adv-x="568" 
d="M293 830c20 0 29 -12 29 -25v-54c134 -14 198 -107 204 -228c1 -15 -7 -25 -28 -25h-25c-20 0 -31 12 -32 25c-7 86 -49 139 -119 152v-261c101 -38 206 -87 206 -229c0 -115 -85 -189 -206 -199v-73c0 -13 -9 -25 -29 -25h-15c-20 0 -32 12 -32 25v75
c-114 18 -196 102 -206 218c-1 15 18 25 32 25h21c20 0 31 -12 32 -25c5 -68 56 -123 121 -142v290c-98 35 -195 76 -195 201c0 128 93 185 195 196v54c0 13 10 25 30 25h17zM134 556c0 -60 49 -90 112 -115v235c-66 -10 -112 -48 -112 -120zM444 185c0 76 -54 113 -122 141
v-267c69 8 122 48 122 126z" />
    <glyph glyph-name="percent" unicode="%" horiz-adv-x="742" 
d="M586 753c23 0 32 -19 21 -38l-393 -700c-11 -19 -26 -21 -39 -21h-20c-22 0 -37 13 -21 42l391 699c7 12 19 18 34 18h27zM327 541c0 122 -65 194 -156 194s-156 -73 -156 -195s65 -194 156 -194s156 72 156 195zM256 541c0 -76 -36 -122 -85 -122s-85 46 -85 121
s36 122 85 122s85 -46 85 -121zM727 214c0 122 -65 194 -156 194s-156 -73 -156 -195s65 -194 156 -194s156 72 156 195zM656 214c0 -76 -36 -122 -85 -122s-85 46 -85 121s36 122 85 122s85 -46 85 -121z" />
    <glyph glyph-name="ampersand" unicode="&#x26;" horiz-adv-x="563" 
d="M565 25c13 -18 7 -25 -14 -25h-37c-19 0 -25 4 -31 13l-56 75c-56 -81 -123 -104 -188 -104c-127 0 -216 82 -216 208c0 114 85 175 163 227c-37 46 -90 113 -90 183c0 88 72 148 160 148c97 0 160 -50 160 -139c0 -90 -52 -157 -127 -213l135 -182c10 24 16 51 16 68
c0 15 9 25 24 25h20c20 0 23 -12 22 -25c-3 -45 -20 -95 -38 -129zM180 600c0 -47 24 -85 66 -140c55 40 86 83 86 144c0 52 -35 72 -77 72c-43 0 -75 -28 -75 -76zM239 58c64 0 115 38 148 84l-159 219c-67 -48 -121 -91 -121 -169c0 -89 70 -134 132 -134z" />
    <glyph glyph-name="quotesingle" unicode="'" horiz-adv-x="170" 
d="M100 736c20 0 32 -12 32 -25v-218c0 -13 -12 -25 -32 -25h-21c-20 0 -32 12 -32 25v218c0 13 12 25 32 25h21z" />
    <glyph glyph-name="parenleft" unicode="(" horiz-adv-x="280" 
d="M45 367c0 158 34 307 98 442c3 9 15 18 26 18h20c12 0 19 -6 30 -20c1 -5 1 -12 0 -20c-57 -134 -90 -277 -90 -420s33 -286 90 -420c1 -8 1 -15 0 -20c-11 -14 -18 -20 -30 -20h-20c-11 0 -23 9 -26 18c-64 135 -98 284 -98 442z" />
    <glyph glyph-name="parenright" unicode=")" horiz-adv-x="280" 
d="M235 367c0 -158 -34 -307 -98 -442c-3 -9 -15 -18 -26 -18h-20c-12 0 -19 6 -30 20c-1 5 -1 12 0 20c57 134 90 277 90 420s-33 286 -90 420c-1 8 -1 15 0 20c11 14 18 20 30 20h20c11 0 23 -9 26 -18c64 -135 98 -284 98 -442z" />
    <glyph glyph-name="asterisk" unicode="*" horiz-adv-x="395" 
d="M372 611c7 -19 -1 -34 -14 -38l-97 -29l61 -82c8 -10 5 -27 -11 -39l-11 -8c-16 -12 -33 -9 -41 1l-58 83l-58 -83c-8 -10 -25 -13 -41 -1l-11 8c-16 12 -19 29 -11 39l61 82l-98 29c-12 4 -20 19 -13 38l4 14c6 19 21 26 34 22l96 -33l-2 102c0 13 12 25 32 25h14
c20 0 32 -12 32 -25l-2 -102l96 33c13 4 28 -3 34 -22z" />
    <glyph glyph-name="plus" unicode="+" horiz-adv-x="539" 
d="M482 303c17 0 25 -12 25 -25v-20c0 -13 -8 -25 -25 -25h-171v-208c0 -13 -11 -25 -31 -25h-19c-20 0 -32 12 -32 25v208h-165c-20 0 -32 12 -32 25v20c0 13 12 25 32 25h165v207c0 13 12 25 32 25h19c20 0 31 -12 31 -25v-207h171z" />
    <glyph glyph-name="comma" unicode="," horiz-adv-x="264" 
d="M160 141c18 0 23 -12 21 -27l-27 -198c-2 -12 -13 -23 -32 -23h-28c-14 0 -26 12 -24 27l30 198c2 12 13 23 32 23h28z" />
    <glyph glyph-name="hyphen" unicode="-" horiz-adv-x="396" 
d="M333 350c20 0 32 -12 32 -25v-20c0 -13 -12 -25 -32 -25h-268c-20 0 -32 12 -32 25v20c0 13 12 25 32 25h268z" />
    <glyph glyph-name="period" unicode="." horiz-adv-x="264" 
d="M148 148c16 0 26 -12 26 -25v-98c0 -13 -10 -25 -26 -25h-30c-20 0 -28 12 -28 25v98c0 13 8 25 28 25h30z" />
    <glyph glyph-name="slash" unicode="/" horiz-adv-x="311" 
d="M306 753c23 0 34 -16 27 -36l-268 -712c-6 -16 -18 -21 -40 -21h-20c-22 0 -33 11 -22 41l264 707c9 21 20 21 37 21h22z" />
    <glyph glyph-name="zero" unicode="0" horiz-adv-x="572" 
d="M522 368c0 -208 -55 -384 -236 -384s-236 176 -236 384s55 384 236 384s236 -176 236 -384zM438 368c0 129 -21 310 -152 310s-152 -181 -152 -310s21 -310 152 -310s152 181 152 310z" />
    <glyph glyph-name="one" unicode="1" horiz-adv-x="394" 
d="M249 736c37 0 55 -27 55 -69v-642c0 -13 -11 -25 -31 -25h-21c-20 0 -32 12 -32 25v589c0 18 -5 14 -16 5c-25 -20 -70 -50 -124 -50h-13c-20 0 -27 20 -27 29v20c0 13 7 25 27 25h12c42 0 70 23 114 64c23 21 35 29 56 29z" />
    <glyph glyph-name="two" unicode="2" horiz-adv-x="533" 
d="M479 555c0 -204 -308 -340 -336 -485h315c20 0 32 -12 32 -25v-20c0 -13 -12 -25 -32 -25h-372c-29 0 -37 16 -37 33c0 216 346 344 346 523c0 80 -51 123 -125 123c-95 0 -137 -55 -145 -156c-1 -13 -8 -25 -28 -25h-25c-21 0 -29 10 -28 25c5 124 72 230 223 230
c108 0 212 -62 212 -198z" />
    <glyph glyph-name="three" unicode="3" horiz-adv-x="535" 
d="M490 204c0 -142 -106 -220 -219 -220c-143 0 -222 95 -231 222c-1 15 7 25 28 25h25c20 0 31 -12 32 -25c8 -96 52 -148 146 -148c69 0 135 47 135 147c0 99 -50 158 -138 158h-46c-16 0 -20 12 -20 25v20c0 13 4 25 20 25h46c74 0 129 37 129 125c0 74 -57 121 -125 121
c-86 0 -138 -55 -146 -156c-1 -13 -12 -25 -32 -25h-25c-21 0 -29 10 -28 25c9 132 87 230 228 230c112 0 210 -60 212 -196c1 -61 -27 -122 -88 -160c75 -52 97 -105 97 -193z" />
    <glyph glyph-name="four" unicode="4" horiz-adv-x="565" 
d="M513 266c20 0 32 -12 32 -25v-20c0 -13 -12 -25 -32 -25h-81v-171c0 -13 -10 -25 -31 -25h-21c-20 0 -32 12 -32 25v171h-248c-83 0 -86 59 -47 120l231 362c31 48 51 60 86 60c41 0 62 -32 62 -79v-393h81zM145 317c-20 -32 -39 -51 2 -51h201v319c0 23 1 41 -4 41
s-19 -26 -34 -49z" />
    <glyph glyph-name="five" unicode="5" horiz-adv-x="528" 
d="M490 258c0 -146 -78 -274 -235 -274c-130 0 -213 90 -218 222c0 13 9 25 30 25h16c17 0 32 -5 32 -25c2 -88 61 -148 141 -148c106 0 150 85 150 200c0 109 -60 180 -148 180c-72 0 -116 -34 -145 -96c-4 -9 -23 -6 -31 -4c-21 5 -28 17 -26 31l46 306c5 33 34 61 72 61
h256c20 0 32 -12 32 -25v-20c0 -13 -12 -25 -32 -25h-250l-29 -191c36 23 66 36 121 36c132 0 218 -113 218 -253z" />
    <glyph glyph-name="six" unicode="6" horiz-adv-x="566" 
d="M299 486c139 0 224 -114 224 -244c0 -147 -87 -258 -228 -258c-162 0 -253 141 -253 368c0 210 60 401 262 401c135 0 191 -95 205 -166c3 -15 -7 -25 -28 -25h-25c-20 0 -28 12 -32 25c-14 50 -48 92 -125 92c-130 0 -180 -162 -180 -322c35 93 98 129 180 129zM295 58
c90 0 144 75 144 177s-57 177 -144 177c-97 0 -151 -75 -151 -177s59 -177 151 -177z" />
    <glyph glyph-name="seven" unicode="7" horiz-adv-x="478" 
d="M448 692c0 -23 -12 -45 -29 -72l-52 -82c-99 -156 -169 -334 -169 -513c0 -13 -14 -25 -28 -25h-20c-20 0 -29 12 -29 25c0 198 61 371 168 541l63 100h-299c-20 0 -28 12 -28 25v20c0 13 8 25 28 25h335c57 0 60 -27 60 -44z" />
    <glyph glyph-name="eight" unicode="8" horiz-adv-x="576" 
d="M40 213c0 92 43 159 113 196c-45 33 -82 92 -82 146c0 124 85 197 216 197s216 -72 216 -196c0 -54 -30 -116 -72 -148c62 -40 105 -103 105 -195c0 -128 -99 -229 -249 -229s-247 101 -247 229zM419 558c0 78 -55 120 -132 120s-132 -42 -132 -120s55 -120 132 -120
s132 42 132 120zM452 213c0 106 -85 156 -165 156s-163 -50 -163 -156s83 -155 163 -155s165 49 165 155z" />
    <glyph glyph-name="nine" unicode="9" horiz-adv-x="559" 
d="M256 -16c-141 0 -192 95 -206 166c-3 15 7 25 28 25h25c20 0 28 -12 32 -25c14 -50 39 -92 126 -92c130 0 180 173 181 309c-42 -87 -99 -116 -181 -116c-141 0 -225 114 -225 244c0 147 96 258 229 258c162 0 254 -141 254 -368c0 -210 -61 -401 -263 -401zM120 502
c0 -102 55 -177 145 -177c97 0 146 75 146 177s-49 177 -146 177c-90 0 -145 -75 -145 -177z" />
    <glyph glyph-name="colon" unicode=":" horiz-adv-x="264" 
d="M148 536c16 0 26 -12 26 -25v-98c0 -13 -10 -25 -26 -25h-30c-20 0 -28 12 -28 25v98c0 13 8 25 28 25h30zM148 148c16 0 26 -12 26 -25v-98c0 -13 -10 -25 -26 -25h-30c-20 0 -28 12 -28 25v98c0 13 8 25 28 25h30z" />
    <glyph glyph-name="semicolon" unicode=";" horiz-adv-x="264" 
d="M148 536c16 0 26 -12 26 -25v-98c0 -13 -10 -25 -26 -25h-30c-20 0 -28 12 -28 25v98c0 13 8 25 28 25h30zM155 141c18 0 23 -12 21 -27l-27 -198c-2 -12 -13 -23 -32 -23h-28c-14 0 -26 12 -24 27l30 198c2 12 11 23 30 23h30z" />
    <glyph glyph-name="less" unicode="&#x3c;" horiz-adv-x="544" 
d="M485 149c17 -6 29 -13 29 -26v-34c0 -17 -14 -19 -26 -15l-435 143c-30 10 -53 22 -53 59s23 49 53 59l435 143c12 4 26 2 26 -15v-35c0 -13 -12 -20 -29 -26l-390 -125v-2z" />
    <glyph glyph-name="equal" unicode="=" horiz-adv-x="540" 
d="M478 404c20 0 32 -12 32 -25v-20c0 -13 -12 -25 -32 -25h-416c-20 0 -32 12 -32 25v20c0 13 12 25 32 25h416zM62 146c-20 0 -32 12 -32 25v20c0 13 12 25 32 25h416c20 0 32 -12 32 -25v-20c0 -13 -12 -25 -32 -25h-416z" />
    <glyph glyph-name="greater" unicode="&#x3e;" horiz-adv-x="544" 
d="M449 277l-390 125c-17 5 -29 13 -29 26v35c0 17 14 19 26 15l435 -143c30 -10 53 -22 53 -59s-23 -49 -53 -59l-435 -143c-12 -4 -26 -2 -26 15v35c0 13 12 20 29 26l390 125v2z" />
    <glyph glyph-name="question" unicode="?" horiz-adv-x="453" 
d="M228 753c104 0 193 -73 193 -184c0 -71 -24 -125 -78 -180c-65 -69 -82 -90 -82 -172c0 -13 -6 -25 -26 -25h-31c-14 0 -25 12 -25 25c0 99 24 141 92 208c39 37 71 67 71 144c0 63 -44 110 -111 110c-81 0 -129 -63 -129 -152c0 -19 -18 -25 -32 -25h-19
c-20 0 -29 12 -29 25c0 117 72 226 206 226zM236 148c16 0 26 -12 26 -25v-98c0 -13 -10 -25 -26 -25h-30c-20 0 -28 12 -28 25v98c0 13 8 25 28 25h30z" />
    <glyph glyph-name="at" unicode="@" horiz-adv-x="708" 
d="M675 209c18 0 16 -18 10 -30c-48 -104 -164 -190 -316 -190c-213 0 -337 125 -337 357c0 200 138 388 350 388c190 0 288 -136 288 -286c0 -176 -104 -301 -195 -301c-36 0 -69 19 -69 48c-38 -41 -89 -52 -117 -52c-90 0 -124 90 -124 170c0 112 79 275 215 275
c44 0 79 -22 91 -59l8 21c4 12 11 19 29 19h21c27 0 23 -16 18 -36l-77 -243c-14 -43 -16 -81 13 -81c31 0 102 72 110 218c7 128 -60 237 -210 237c-151 0 -269 -139 -269 -324c0 -172 88 -281 255 -281c121 0 202 66 245 132c9 14 18 18 33 18h28zM448 457
c-9 31 -34 63 -71 63c-86 0 -134 -132 -134 -200c0 -33 0 -111 55 -111c36 0 83 33 98 81z" />
    <glyph glyph-name="A" unicode="A" horiz-adv-x="602" 
d="M591 35c7 -19 -2 -35 -21 -35h-30c-12 0 -23 3 -27 14l-65 183h-296l-65 -183c-4 -11 -15 -14 -27 -14h-29c-19 0 -28 16 -21 35l209 617c15 46 35 84 81 84s69 -38 84 -84zM314 625c-3 10 -9 25 -14 25s-11 -15 -14 -25l-113 -358h254z" />
    <glyph glyph-name="B" unicode="B" horiz-adv-x="543" 
d="M381 388c65 -25 125 -93 125 -184c0 -133 -94 -204 -234 -204h-156c-50 0 -71 30 -71 73v590c0 43 21 73 71 73h138c120 0 224 -55 224 -195c0 -59 -38 -133 -97 -153zM256 418c69 0 138 37 138 123c0 84 -57 125 -148 125h-102c-14 0 -17 -4 -17 -19v-229h129zM259 70
c110 0 163 41 163 136c0 105 -94 142 -162 142h-133v-259c0 -15 3 -19 17 -19h115z" />
    <glyph glyph-name="C" unicode="C" horiz-adv-x="608" 
d="M321 679c-128 0 -209 -121 -211 -311c-2 -189 83 -310 211 -310c97 0 152 61 167 148c2 13 7 25 27 25h36c14 0 24 -10 22 -25c-14 -131 -109 -222 -252 -222c-215 0 -295 213 -295 384s80 385 295 385c143 0 237 -99 251 -230c2 -15 -8 -25 -22 -25h-36
c-20 0 -25 12 -27 25c-15 88 -69 156 -166 156z" />
    <glyph glyph-name="D" unicode="D" horiz-adv-x="586" 
d="M248 736c207 0 299 -160 299 -368s-92 -368 -299 -368h-124c-50 0 -71 30 -71 73v590c0 43 21 73 71 73h124zM240 70c112 0 223 74 223 298s-111 298 -223 298h-88c-14 0 -17 -4 -17 -19v-558c0 -15 3 -19 17 -19h88z" />
    <glyph glyph-name="E" unicode="E" horiz-adv-x="522" 
d="M454 70c20 0 29 -12 29 -25v-20c0 -13 -9 -25 -29 -25h-331c-50 0 -71 30 -71 73v590c0 43 21 73 71 73h326c20 0 29 -12 29 -25v-20c0 -13 -9 -25 -29 -25h-298c-14 0 -17 -4 -17 -19v-229h294c20 0 29 -12 29 -25v-20c0 -13 -9 -25 -29 -25h-294v-259
c0 -15 3 -19 17 -19h303z" />
    <glyph glyph-name="F" unicode="F" horiz-adv-x="484" 
d="M438 736c25 0 29 -12 29 -25v-20c0 -13 -9 -25 -29 -25h-286c-14 0 -17 -4 -17 -19v-229h283c20 0 29 -12 29 -25v-20c0 -13 -9 -25 -29 -25h-283v-323c0 -13 -11 -25 -31 -25h-19c-20 0 -32 12 -32 25v638c0 43 21 73 71 73h314z" />
    <glyph glyph-name="G" unicode="G" horiz-adv-x="657" 
d="M331 -16c-215 0 -296 213 -296 384s87 385 302 385c149 0 241 -99 258 -230c2 -15 -8 -25 -22 -25h-36c-20 0 -25 12 -27 25c-14 87 -72 156 -173 156c-128 0 -216 -121 -218 -311c-2 -189 84 -310 212 -310c117 0 191 104 191 208v40h-159c-20 0 -27 12 -27 25v20
c0 13 7 25 27 25h191c41 0 53 -20 53 -53v-298c0 -13 -7 -25 -27 -25h-21c-20 0 -26 12 -26 25l-1 79c-45 -84 -117 -120 -201 -120z" />
    <glyph glyph-name="H" unicode="H" horiz-adv-x="612" 
d="M525 736c20 0 30 -12 30 -25v-686c0 -13 -10 -25 -30 -25h-21c-20 0 -31 12 -31 25v323h-337v-323c0 -13 -10 -25 -30 -25h-21c-20 0 -31 12 -31 25v686c0 13 11 25 31 25h21c20 0 30 -12 30 -25v-293h337v293c0 13 11 25 31 25h21z" />
    <glyph glyph-name="I" unicode="I" horiz-adv-x="242" 
d="M131 736c20 0 31 -12 31 -25v-686c0 -13 -10 -25 -30 -25h-21c-20 0 -31 12 -31 25v686c0 13 11 25 31 25h20z" />
    <glyph glyph-name="J" unicode="J" horiz-adv-x="455" 
d="M395 204c0 -130 -62 -220 -183 -220s-174 86 -174 201v12c0 13 12 25 32 25h20c20 0 32 -12 32 -25v-12c0 -82 38 -127 94 -127c72 0 97 66 97 157v496c0 13 12 25 32 25h20c19 0 30 -12 30 -25v-507z" />
    <glyph glyph-name="K" unicode="K" horiz-adv-x="566" 
d="M546 31c13 -18 12 -31 -8 -31h-49c-14 0 -22 3 -34 19l-251 325l-71 -81v-238c0 -13 -10 -25 -30 -25h-21c-20 0 -31 12 -31 25v686c0 13 11 25 31 25h21c20 0 30 -12 30 -25v-338l301 342c8 10 22 21 39 21h46c21 0 24 -17 7 -36l-260 -296z" />
    <glyph glyph-name="L" unicode="L" horiz-adv-x="456" 
d="M124 0c-50 0 -71 30 -71 73v638c0 13 12 25 32 25h19c20 0 31 -12 31 -25v-622c0 -15 3 -19 17 -19h268c20 0 29 -12 29 -25v-20c0 -13 -4 -25 -29 -25h-296z" />
    <glyph glyph-name="M" unicode="M" horiz-adv-x="773" 
d="M634 736c41 0 76 -28 76 -102v-609c0 -13 -11 -25 -31 -25h-23c-16 0 -28 12 -28 25v577c0 23 -1 33 -5 35c-5 2 -9 -22 -14 -39l-123 -509c-20 -64 -48 -89 -94 -89s-73 25 -93 89l-144 508c-6 20 -9 42 -14 40c-4 -2 -5 -9 -5 -32v-580c0 -13 -12 -25 -28 -25h-23
c-20 0 -31 12 -31 25v609c0 74 35 102 76 102c34 0 73 -25 88 -77l156 -544c6 -19 12 -35 18 -35c7 0 12 16 18 35l135 543c13 52 55 78 89 78z" />
    <glyph glyph-name="N" unicode="N" horiz-adv-x="667" 
d="M577 736c20 0 31 -12 31 -25v-605c0 -74 -29 -106 -74 -106c-40 0 -70 26 -97 78l-265 517c-9 16 -23 45 -28 45s-4 -22 -4 -45v-570c0 -13 -12 -25 -28 -25h-23c-20 0 -31 12 -31 25v605c0 74 28 106 74 106c40 0 70 -26 97 -78l265 -517c9 -16 23 -44 28 -44s4 22 4 45
v569c0 13 12 25 28 25h23z" />
    <glyph glyph-name="O" unicode="O" horiz-adv-x="660" 
d="M623 368c0 -171 -78 -385 -293 -385s-293 214 -293 385s78 385 293 385s293 -214 293 -385zM539 368c0 190 -81 311 -209 311s-209 -121 -209 -311s81 -311 209 -311s209 121 209 311z" />
    <glyph glyph-name="P" unicode="P" horiz-adv-x="513" 
d="M266 736c140 0 221 -82 221 -213c0 -120 -81 -212 -219 -212h-140v-286c0 -13 -11 -25 -31 -25h-19c-20 0 -32 12 -32 25v638c0 43 21 73 71 73h149zM264 381c88 0 139 53 139 142c0 91 -49 143 -142 143h-116c-14 0 -17 -4 -17 -19v-266h136z" />
    <glyph glyph-name="Q" unicode="Q" horiz-adv-x="666" 
d="M617 -7c12 -2 16 -13 16 -25v-25c0 -24 -20 -23 -34 -20l-316 64c-179 36 -247 223 -247 381c0 171 78 385 293 385s293 -214 293 -385c0 -126 -44 -276 -159 -344zM120 368c2 -189 91 -310 209 -310c128 0 209 121 209 310c0 191 -81 311 -209 311s-211 -121 -209 -311z
" />
    <glyph glyph-name="R" unicode="R" horiz-adv-x="544" 
d="M508 35c10 -17 5 -35 -20 -35h-30c-11 0 -23 0 -34 18l-158 258c-17 28 -23 35 -41 35h-92v-286c0 -13 -11 -25 -31 -25h-19c-20 0 -32 12 -32 25v638c0 43 21 73 71 73h159c140 0 218 -94 218 -213c0 -100 -68 -184 -164 -204zM276 381c88 0 139 57 139 142
c0 87 -46 143 -139 143h-126c-14 0 -17 -4 -17 -19v-266h143z" />
    <glyph glyph-name="S" unicode="S" horiz-adv-x="559" 
d="M129 556c0 -169 388 -95 388 -366c0 -123 -95 -206 -232 -206c-152 0 -238 90 -250 222c-1 15 18 25 32 25h21c20 0 31 -12 32 -25c7 -84 62 -148 165 -148c83 0 148 44 148 132c0 206 -388 115 -388 365c0 132 114 198 231 198c160 0 232 -98 238 -230
c1 -15 -7 -25 -28 -25h-25c-20 0 -31 12 -32 25c-8 101 -62 156 -155 156c-84 0 -145 -38 -145 -123z" />
    <glyph glyph-name="T" unicode="T" horiz-adv-x="472" 
d="M440 736c20 0 28 -12 28 -25v-20c0 -13 -8 -25 -28 -25h-166v-641c0 -13 -10 -25 -30 -25h-22c-20 0 -30 12 -30 25v641h-161c-20 0 -27 12 -27 25v20c0 13 7 25 27 25h409z" />
    <glyph glyph-name="U" unicode="U" horiz-adv-x="581" 
d="M500 736c16 0 27 -12 27 -25v-433c0 -180 -67 -294 -236 -294s-236 114 -236 294v433c0 13 11 25 27 25h27c19 0 28 -12 28 -25v-433c0 -126 31 -220 154 -220s154 94 154 220v433c0 13 10 25 28 25h27z" />
    <glyph glyph-name="V" unicode="V" horiz-adv-x="566" 
d="M6 701c-6 19 -4 35 18 35h34c12 0 23 -2 29 -21l179 -594c9 -27 12 -35 17 -35s8 8 17 35l179 594c6 19 17 21 29 21h34c22 0 24 -16 18 -35l-189 -617c-13 -41 -39 -84 -88 -84c-50 0 -75 43 -88 84z" />
    <glyph glyph-name="W" unicode="W" horiz-adv-x="842" 
d="M801 736c22 0 31 -16 27 -35l-130 -617c-10 -49 -40 -84 -89 -84c-48 0 -83 32 -91 84l-85 531c-4 28 -9 35 -14 35s-8 -7 -14 -35l-109 -531c-9 -42 -42 -84 -91 -84s-81 35 -89 84l-99 617c-3 19 5 35 27 35h20c12 0 35 0 39 -29l88 -586c4 -28 8 -41 14 -41
c8 0 11 13 17 41l109 531c9 42 36 84 88 84c53 0 80 -32 88 -84l85 -531c4 -28 10 -41 17 -41c6 0 8 13 14 41l116 584c6 31 28 31 40 31h22z" />
    <glyph glyph-name="X" unicode="X" horiz-adv-x="560" 
d="M94 17c-8 -13 -17 -17 -29 -17h-38c-20 0 -26 17 -12 39l218 338l-207 321c-11 17 -8 38 13 38h35c15 0 24 -4 32 -16l174 -270l174 270c8 12 17 16 32 16h35c21 0 24 -21 13 -38l-207 -321l218 -338c14 -22 8 -39 -12 -39h-38c-12 0 -21 4 -29 17l-186 288z" />
    <glyph glyph-name="Y" unicode="Y" horiz-adv-x="553" 
d="M539 736c24 0 25 -16 12 -38l-233 -381v-292c0 -13 -11 -25 -31 -25h-21c-20 0 -32 12 -32 25v292l-232 381c-13 22 -12 38 12 38h35c21 0 27 -8 38 -26l189 -311l190 311c11 18 17 26 38 26h35z" />
    <glyph glyph-name="Z" unicode="Z" horiz-adv-x="494" 
d="M442 70c20 0 27 -12 27 -25v-20c0 -13 -7 -25 -27 -25h-328c-86 0 -108 59 -55 146l285 469c20 33 24 51 -11 51h-260c-20 0 -27 12 -27 25v20c0 13 7 25 27 25h280c112 0 111 -78 68 -149l-276 -454c-11 -17 -45 -63 7 -63h290z" />
    <glyph glyph-name="bracketleft" unicode="[" horiz-adv-x="217" 
d="M150 -32h40c22 0 32 -5 32 -22v-20c0 -17 -10 -21 -32 -21h-92c-20 0 -32 7 -32 29v869c0 22 12 29 32 29h92c22 0 32 -4 32 -21v-20c0 -17 -10 -22 -32 -22h-40v-801z" />
    <glyph glyph-name="backslash" unicode="\" horiz-adv-x="318" 
d="M285 -16c-17 0 -30 5 -36 22l-264 706c-11 29 -2 41 28 41h20c14 0 27 -3 34 -22l268 -711c10 -26 -8 -36 -29 -36h-21z" />
    <glyph glyph-name="bracketright" unicode="]" horiz-adv-x="216" 
d="M27 769c-22 0 -32 5 -32 22v20c0 17 10 21 32 21h92c20 0 32 -7 32 -29v-869c0 -22 -12 -29 -32 -29h-92c-22 0 -32 4 -32 21v20c0 17 10 22 32 22h40v801h-40z" />
    <glyph glyph-name="asciicircum" unicode="^" horiz-adv-x="548" 
d="M155 265c-3 -9 -16 -15 -31 -15h-21c-23 0 -39 7 -31 30l136 396c8 22 22 60 66 60s58 -38 66 -60l136 -396c8 -23 -8 -30 -31 -30h-21c-15 0 -28 6 -31 15l-119 362z" />
    <glyph glyph-name="underscore" unicode="_" horiz-adv-x="453" 
d="M2 -61c0 7 7 12 20 12h409c14 0 21 -5 21 -12v-19c0 -6 -7 -12 -21 -12h-409c-13 0 -20 6 -20 12v19z" />
    <glyph glyph-name="grave" unicode="`" horiz-adv-x="299" 
d="M263 656c25 -8 27 -24 27 -33v-13c0 -23 -22 -21 -37 -17l-209 58c-24 7 -34 21 -34 37v18c0 20 20 22 39 16z" />
    <glyph glyph-name="a" unicode="a" horiz-adv-x="481" 
d="M444 34c14 -17 13 -34 -11 -34h-20c-17 0 -27 6 -37 19c-14 18 -19 37 -21 49c-30 -51 -92 -79 -149 -79c-100 0 -166 49 -166 156c0 88 79 148 186 165c76 12 114 23 114 62c0 72 -32 106 -95 106c-64 0 -95 -27 -101 -103c-1 -12 -9 -24 -29 -24h-25
c-12 0 -28 3 -27 25c6 113 75 172 185 172c115 0 169 -71 169 -165v-259c0 -52 18 -79 27 -90zM117 145c0 -26 11 -87 87 -87c84 0 136 67 136 133v85c-34 -17 -66 -21 -100 -27c-73 -12 -123 -43 -123 -104z" />
    <glyph glyph-name="b" unicode="b" horiz-adv-x="509" 
d="M105 736c20 0 27 -14 27 -27v-245c27 52 78 84 136 84c121 0 205 -96 205 -280c0 -178 -87 -280 -205 -280c-58 0 -112 28 -142 102l-1 -66c0 -9 -7 -24 -27 -24h-21c-20 0 -27 15 -27 24v685c0 13 7 27 27 27h28zM268 58c74 0 126 83 126 210c0 131 -49 210 -126 210
c-78 0 -133 -79 -133 -210c0 -127 58 -210 133 -210z" />
    <glyph glyph-name="c" unicode="c" horiz-adv-x="463" 
d="M413 182c15 0 27 -3 24 -21c-22 -118 -93 -171 -191 -171c-126 0 -217 109 -217 279c0 175 87 279 217 279c94 0 176 -51 190 -176c2 -18 -9 -21 -24 -21h-22c-19 0 -30 6 -32 21c-11 79 -53 106 -112 106c-84 0 -138 -78 -138 -209c0 -128 57 -209 138 -209
c59 0 96 28 113 101c3 15 13 21 32 21h22z" />
    <glyph glyph-name="d" unicode="d" horiz-adv-x="509" 
d="M432 736c20 0 27 -14 27 -27v-685c0 -9 -7 -24 -27 -24h-21c-20 0 -27 15 -27 24l-1 66c-30 -74 -84 -102 -142 -102c-118 0 -211 102 -211 280c0 184 90 280 211 280c59 0 109 -30 136 -84v245c0 13 7 27 27 27h28zM241 58c75 0 133 83 133 210c0 131 -55 210 -133 210
c-77 0 -132 -79 -132 -210c0 -127 58 -210 132 -210z" />
    <glyph glyph-name="e" unicode="e" horiz-adv-x="485" 
d="M422 182c15 0 27 -3 24 -21c-22 -118 -98 -171 -196 -171c-126 0 -220 109 -220 279c0 175 89 279 219 279c151 0 202 -129 206 -245c1 -28 -9 -40 -41 -40h-305c2 -125 61 -203 141 -203c59 0 101 28 118 101c3 15 13 21 32 21h22zM249 478c-69 0 -119 -43 -135 -145
h256c-4 61 -30 145 -121 145z" />
    <glyph glyph-name="f" unicode="f" horiz-adv-x="255" 
d="M204 662c-36 0 -44 -12 -44 -61v-65h62c20 0 32 -12 32 -25v-20c0 -13 -12 -24 -32 -24h-62v-442c0 -13 -10 -25 -25 -25h-25c-20 0 -32 12 -32 25v442h-42c-20 0 -31 11 -31 24v20c0 13 11 25 31 25h42v81c0 64 28 117 105 119h40c20 0 32 -12 32 -25v-24
c0 -13 -12 -25 -32 -25h-19z" />
    <glyph glyph-name="g" unicode="g" horiz-adv-x="500" 
d="M424 536c20 0 26 -14 26 -27v-477c0 -123 -64 -214 -198 -214c-97 0 -185 39 -196 152c-1 13 10 25 30 25h20c20 0 27 -10 29 -25c7 -55 63 -82 116 -82c82 0 117 55 117 141v81c-28 -51 -69 -87 -133 -87c-146 0 -205 113 -205 262c0 143 56 263 207 263
c66 0 120 -38 138 -90v51c0 13 7 27 27 27h22zM238 478c-90 0 -129 -105 -129 -193c0 -82 30 -192 129 -192c88 0 130 103 130 192c0 79 -32 193 -130 193z" />
    <glyph glyph-name="h" unicode="h" horiz-adv-x="480" 
d="M256 548c139 0 172 -96 174 -203v-320c0 -13 -6 -25 -26 -25h-30c-20 0 -26 12 -26 25v311c0 58 -15 142 -100 142s-116 -87 -116 -167v-286c0 -13 -7 -25 -27 -25h-29c-18 0 -26 12 -26 25v686c0 13 8 25 26 25h28c20 0 28 -12 28 -25v-239c28 54 81 76 124 76z" />
    <glyph glyph-name="i" unicode="i" horiz-adv-x="206" 
d="M117 736c20 0 27 -12 27 -25v-89c0 -9 -7 -20 -27 -20h-28c-20 0 -27 11 -27 20v89c0 13 7 25 27 25h28zM117 536c20 0 27 -12 27 -25v-491c0 -9 -7 -20 -27 -20h-27c-20 0 -28 11 -28 20v491c0 13 8 25 28 25h27z" />
    <glyph glyph-name="j" unicode="j" horiz-adv-x="182" 
d="M105 736c20 0 27 -12 27 -25v-89c0 -9 -7 -20 -27 -20h-28c-20 0 -27 11 -27 20v89c0 13 7 25 27 25h28zM100 536c20 0 32 -12 32 -25v-553c0 -100 -37 -127 -91 -127h-47c-20 0 -25 12 -25 25v20c0 13 5 25 25 25h19c29 0 37 15 37 60v550c0 13 12 25 32 25h18z" />
    <glyph glyph-name="k" unicode="k" horiz-adv-x="464" 
d="M459 29c12 -17 0 -28 -24 -29h-32c-14 0 -25 4 -35 18l-168 246l-68 -70v-174c0 -9 -7 -20 -27 -20h-28c-20 0 -27 11 -27 20v691c0 13 7 25 27 25h28c20 0 27 -12 27 -25v-412l232 226c11 11 23 11 34 11h22c29 0 35 -19 9 -44l-172 -169z" />
    <glyph glyph-name="l" unicode="l" horiz-adv-x="222" 
d="M125 736c20 0 27 -12 27 -25v-691c0 -9 -7 -20 -27 -20h-28c-20 0 -27 11 -27 20v691c0 13 7 25 27 25h28z" />
    <glyph glyph-name="m" unicode="m" horiz-adv-x="706" 
d="M501 548c121 0 155 -91 155 -198v-325c0 -13 -8 -25 -26 -25h-33c-18 0 -23 12 -23 25v311c0 58 -6 142 -80 142c-76 0 -100 -92 -100 -154v-299c0 -13 -5 -25 -23 -25h-36c-18 0 -23 12 -23 25v311c0 58 -8 142 -80 142c-70 0 -100 -76 -100 -152v-301
c0 -13 -7 -25 -27 -25h-28c-19 0 -27 12 -27 25v486c0 13 8 25 27 25h20c20 0 28 -12 28 -25v-46c23 61 77 83 114 83c73 0 113 -35 133 -86c31 67 92 86 129 86z" />
    <glyph glyph-name="n" unicode="n" horiz-adv-x="480" 
d="M256 548c139 0 174 -96 174 -203v-320c0 -13 -6 -25 -26 -25h-30c-20 0 -26 12 -26 25v311c0 58 -15 142 -100 142s-116 -87 -116 -167v-286c0 -13 -7 -25 -27 -25h-28c-18 0 -27 12 -27 25v486c0 13 9 25 27 25h20c20 0 28 -12 28 -25v-46c27 61 88 83 131 83z" />
    <glyph glyph-name="o" unicode="o" horiz-adv-x="497" 
d="M464 269c0 -175 -87 -279 -217 -279s-217 104 -217 279s87 279 217 279s217 -104 217 -279zM385 269c0 131 -54 209 -138 209s-138 -78 -138 -209s54 -209 138 -209s138 78 138 209z" />
    <glyph glyph-name="p" unicode="p" horiz-adv-x="509" 
d="M77 -169c-20 0 -27 12 -27 25v657c0 9 7 24 27 24h21c20 0 27 -15 27 -24l1 -66c31 70 86 102 147 102c117 0 206 -102 206 -280c0 -184 -90 -280 -211 -280c-59 0 -109 30 -136 84v-217c0 -13 -7 -25 -27 -25h-28zM271 480c-77 0 -136 -83 -136 -211
c0 -131 55 -210 133 -210c77 0 132 79 132 210c0 128 -54 211 -129 211z" />
    <glyph glyph-name="q" unicode="q" horiz-adv-x="509" 
d="M404 -169c-20 0 -27 12 -27 25v217c-27 -54 -77 -84 -136 -84c-121 0 -211 96 -211 280c0 178 93 280 211 280c58 0 112 -28 142 -102l1 66c0 9 7 24 27 24h21c20 0 27 -15 27 -24v-657c0 -13 -7 -25 -27 -25h-28zM241 480c-74 0 -132 -83 -132 -211
c0 -131 55 -210 132 -210c78 0 133 79 133 210c0 128 -58 211 -133 211z" />
    <glyph glyph-name="r" unicode="r" horiz-adv-x="300" 
d="M276 536c21 0 29 -12 29 -25v-20c0 -12 -4 -25 -26 -25h-31c-85 0 -116 -87 -116 -167v-274c0 -13 -7 -25 -27 -25h-29c-18 0 -26 12 -26 25v486c0 13 8 25 26 25h21c20 0 28 -12 28 -25v-58c27 61 88 83 131 83h20z" />
    <glyph glyph-name="s" unicode="s" horiz-adv-x="445" 
d="M251 309c60 -21 158 -55 158 -160c0 -101 -67 -160 -181 -160c-112 0 -184 47 -193 169c-1 13 9 24 22 24h29c20 0 22 -12 23 -25c6 -76 50 -98 119 -98c56 0 102 26 102 85c0 69 -87 88 -128 101c-103 33 -158 68 -158 156c0 91 80 147 172 147c113 0 179 -50 188 -171
c1 -13 -7 -25 -27 -25h-25c-20 0 -27 12 -28 25c-5 69 -37 101 -108 101c-64 0 -93 -32 -93 -74c0 -65 69 -74 128 -95z" />
    <glyph glyph-name="t" unicode="t" horiz-adv-x="273" 
d="M230 536c20 0 28 -12 28 -25v-21c0 -13 -8 -24 -28 -24h-71v-353c0 -26 -1 -39 29 -41h27c20 0 32 -11 32 -24v-23c0 -13 -12 -25 -32 -25h-32c-51 0 -106 19 -106 114v352h-52c-20 0 -25 11 -25 24v21c0 13 5 25 25 25h52v130c0 13 12 25 32 25h25c15 0 25 -12 25 -25
v-130h71z" />
    <glyph glyph-name="u" unicode="u" horiz-adv-x="478" 
d="M222 -11c-139 0 -172 95 -174 202v320c0 13 6 25 26 25h30c20 0 26 -12 26 -25v-311c0 -58 15 -141 100 -141s116 87 116 148v304c0 13 7 25 27 25h29c18 0 26 -12 26 -25v-486c0 -13 -8 -25 -26 -25h-21c-20 0 -28 12 -28 25v46c-27 -61 -88 -82 -131 -82z" />
    <glyph glyph-name="v" unicode="v" horiz-adv-x="445" 
d="M7 501c-6 19 2 35 24 35h25c12 0 23 -2 27 -14l122 -401c9 -27 12 -35 17 -35s8 8 17 35l123 401c4 12 15 14 27 14h25c22 0 30 -16 24 -35l-131 -417c-13 -41 -39 -84 -85 -84s-72 43 -85 84z" />
    <glyph glyph-name="w" unicode="w" horiz-adv-x="728" 
d="M682 536c22 0 29 -16 25 -35l-83 -423c-9 -42 -45 -78 -86 -78c-48 0 -75 23 -86 75l-73 340c-6 28 -9 35 -14 35s-8 -7 -14 -35l-75 -340c-9 -42 -37 -75 -86 -75c-42 0 -75 26 -86 78l-83 423c-4 19 3 35 25 35h32c12 0 24 0 29 -26l69 -389c5 -28 8 -41 14 -41
c8 0 11 13 17 41l70 323c14 66 40 92 88 92s73 -26 87 -92l69 -323c6 -28 10 -41 17 -41c6 0 9 13 14 41l68 384c6 31 18 31 30 31h32z" />
    <glyph glyph-name="x" unicode="x" horiz-adv-x="439" 
d="M332 520c8 12 17 16 32 16h25c21 0 34 -21 23 -38l-146 -220l159 -240c11 -17 -2 -38 -23 -38h-25c-15 0 -24 4 -32 16l-126 191l-125 -190c-8 -13 -23 -17 -35 -17h-22c-20 0 -36 17 -22 39l157 239l-144 219c-14 22 2 39 22 39h22c12 0 27 -4 35 -17l112 -170z" />
    <glyph glyph-name="y" unicode="y" horiz-adv-x="401" 
d="M366 536c22 0 34 -16 28 -35l-172 -577c-19 -64 -57 -93 -135 -93h-27c-19 0 -27 12 -27 25v20c0 13 8 25 27 25h12c42 0 61 4 79 54l22 62l-166 484c-6 19 6 35 28 35h21c12 0 23 -2 29 -21l125 -376l105 375c6 20 18 22 30 22h21z" />
    <glyph glyph-name="z" unicode="z" horiz-adv-x="400" 
d="M357 70c20 0 23 -12 23 -25v-20c0 -13 -3 -25 -23 -25h-236c-109 0 -120 74 -60 153l199 259c24 31 42 54 -3 54h-175c-20 0 -27 12 -27 25v20c0 13 7 25 27 25h193c110 0 112 -86 51 -164l-198 -254c-17 -20 -35 -48 15 -48h214z" />
    <glyph glyph-name="braceleft" unicode="{" horiz-adv-x="316" 
d="M141 366c43 -34 57 -112 57 -153v-226c0 -10 2 -13 9 -13h47c20 0 32 -12 32 -25v-20c0 -13 -12 -25 -32 -25h-75c-47 0 -58 24 -58 80v212c0 112 -61 120 -61 160v19c0 40 61 48 61 160v212c0 56 11 80 58 80h75c20 0 32 -12 32 -25v-20c0 -13 -12 -25 -32 -25h-47
c-7 0 -9 -3 -9 -13v-226c0 -41 -14 -118 -57 -152z" />
    <glyph glyph-name="bar" unicode="|" horiz-adv-x="217" 
d="M123 808c20 0 29 -12 29 -25v-964c0 -13 -9 -25 -29 -25h-21c-20 0 -32 12 -32 25v964c0 13 12 25 32 25h21z" />
    <glyph glyph-name="braceright" unicode="}" horiz-adv-x="316" 
d="M175 366c-43 34 -57 111 -57 152v226c0 10 -2 13 -9 13h-47c-20 0 -32 12 -32 25v20c0 13 12 25 32 25h75c47 0 58 -24 58 -80v-212c0 -112 61 -120 61 -160v-19c0 -40 -61 -48 -61 -160v-212c0 -56 -11 -80 -58 -80h-75c-20 0 -32 12 -32 25v20c0 13 12 25 32 25h47
c7 0 9 3 9 13v226c0 41 14 119 57 153z" />
    <glyph glyph-name="asciitilde" unicode="~" horiz-adv-x="538" 
d="M169 268c-39 0 -60 -28 -65 -56c-3 -16 -18 -23 -36 -23h-8c-14 0 -28 3 -27 19c6 68 67 121 134 121c82 0 139 -81 202 -81c39 0 60 28 65 56c3 16 18 23 36 23h8c14 0 28 -3 27 -19c-4 -68 -67 -121 -134 -121c-82 0 -139 81 -202 81z" />
    <glyph glyph-name="cent" unicode="&#xa2;" horiz-adv-x="500" 
d="M292 544c77 -13 145 -65 157 -172c2 -18 -9 -21 -24 -21h-22c-19 0 -30 6 -32 21c-8 60 -39 90 -79 101v-408c38 11 69 40 80 96c3 15 13 21 32 21h22c15 0 27 -3 24 -21c-17 -102 -80 -155 -158 -168v-61c0 -13 -12 -24 -32 -24h-19c-20 0 -31 11 -31 24v63
c-105 21 -180 124 -180 274c0 155 73 254 180 275v69c0 13 11 24 31 24h19c20 0 32 -11 32 -24v-69zM109 269c0 -104 42 -177 101 -201v402c-61 -22 -101 -94 -101 -201z" />
    <glyph glyph-name="sterling" unicode="&#xa3;" horiz-adv-x="497" 
d="M476 68c-50 -60 -79 -84 -141 -84c-58 0 -114 49 -158 49c-24 0 -55 -13 -86 -40c-13 -11 -34 -13 -44 0l-12 14c-7 7 -7 25 3 36c41 46 82 117 82 184c2 28 -8 75 -23 104h-37c-19 0 -27 12 -27 25v20c0 13 8 26 27 26h8c-19 44 -37 94 -37 147c0 119 96 204 219 204
c141 0 218 -92 218 -230c0 -16 -10 -25 -24 -25h-31c-18 0 -23 13 -24 24c-11 124 -67 161 -139 161c-77 0 -139 -57 -139 -134c0 -53 30 -114 47 -148h137c20 0 32 -12 32 -25v-20c0 -13 -12 -25 -32 -25h-111c11 -23 22 -74 22 -104c0 -48 -11 -89 -32 -127h3
c80 0 99 -44 156 -44c42 0 60 31 94 65c11 11 25 15 40 1l14 -13c9 -8 9 -24 -5 -41z" />
    <glyph glyph-name="section" unicode="&#xa7;" horiz-adv-x="577" 
d="M535 295c0 -40 -10 -76 -29 -106c18 -29 29 -64 29 -109c0 -123 -95 -206 -231 -206c-152 0 -238 90 -250 222c-1 15 18 25 32 25h21c20 0 31 -12 32 -25c7 -84 62 -148 165 -148c83 0 148 44 148 132c0 208 -387 115 -387 365c0 44 12 80 33 109c-20 27 -33 61 -33 106
c0 132 114 198 230 198c160 0 232 -98 238 -230c1 -15 -7 -25 -28 -25h-25c-20 0 -31 12 -32 25c-8 101 -62 156 -155 156c-84 0 -145 -38 -145 -123c0 -169 387 -96 387 -366zM148 446c0 -116 183 -118 297 -196c5 14 7 29 7 45c0 141 -178 144 -292 208
c-8 -16 -12 -35 -12 -57z" />
    <glyph glyph-name="dieresis" unicode="&#xa8;" horiz-adv-x="247" 
d="M92 736c20 0 32 -10 25 -27l-39 -94c-6 -15 -19 -23 -32 -23h-22c-21 0 -28 14 -21 35l30 94c1 10 13 15 31 15h28zM220 736c20 0 32 -10 25 -27l-39 -94c-6 -15 -19 -23 -32 -23h-22c-21 0 -28 14 -21 35l30 94c1 10 13 15 31 15h28z" />
    <glyph glyph-name="copyright" unicode="&#xa9;" horiz-adv-x="728" 
d="M357 753c193 0 342 -173 342 -386c0 -212 -149 -385 -342 -385c-192 0 -340 173 -340 385c0 213 148 386 340 386zM357 52c152 0 267 141 267 315c0 175 -115 316 -267 316c-151 0 -265 -141 -265 -316c0 -174 114 -315 265 -315zM541 269c-19 -101 -84 -155 -179 -155
c-127 0 -203 114 -203 252c0 144 74 252 203 252c100 0 174 -58 178 -160c1 -17 -7 -23 -25 -23h-20c-19 0 -30 8 -32 22c-9 61 -43 91 -101 91c-86 0 -125 -84 -125 -182c0 -108 51 -183 125 -183c55 0 90 29 102 88c4 19 20 21 32 21h20c19 0 28 -9 25 -23z" />
    <glyph glyph-name="ordfeminine" unicode="&#xaa;" horiz-adv-x="481" 
d="M444 34c14 -17 13 -34 -11 -34h-20c-17 0 -27 6 -37 19c-14 18 -19 37 -21 49c-30 -51 -92 -79 -149 -79c-100 0 -166 49 -166 156c0 88 79 148 186 165c76 12 114 23 114 62c0 72 -32 106 -95 106c-64 0 -95 -27 -101 -103c-1 -12 -9 -24 -29 -24h-25
c-12 0 -28 3 -27 25c6 113 75 172 185 172c115 0 169 -71 169 -165v-259c0 -52 18 -79 27 -90zM117 145c0 -26 11 -87 87 -87c84 0 136 67 136 133v85c-34 -17 -66 -21 -100 -27c-73 -12 -123 -43 -123 -104z" />
    <glyph glyph-name="registered" unicode="&#xae;" horiz-adv-x="708" 
d="M357 753c193 0 342 -173 342 -386c0 -212 -149 -385 -342 -385c-192 0 -340 173 -340 385c0 213 148 386 340 386zM357 52c152 0 267 141 267 315c0 175 -115 316 -267 316c-151 0 -265 -141 -265 -316c0 -174 114 -315 265 -315zM509 179c15 -28 -7 -37 -20 -37h-21
c-12 0 -22 7 -34 30l-81 155h-65v-160c0 -13 -12 -25 -27 -25h-13c-20 0 -32 12 -32 25v407c0 13 12 25 32 25h117c73 0 141 -53 141 -134c0 -52 -20 -103 -82 -126zM347 390c51 0 87 28 87 75s-37 71 -78 71h-68v-146h59z" />
    <glyph glyph-name="acute" unicode="&#xb4;" horiz-adv-x="301" 
d="M251 722c19 6 39 4 39 -16v-18c0 -16 -10 -30 -34 -37l-209 -58c-15 -4 -37 -6 -37 17v13c0 9 2 25 27 33z" />
    <glyph glyph-name="cedilla" unicode="&#xb8;" horiz-adv-x="138" 
d="M75 -22c54 13 107 -16 107 -72c0 -62 -56 -89 -115 -89c-37 0 -71 5 -97 15c-10 3 -15 13 -15 23v29c0 14 12 14 28 10c30 -9 40 -12 80 -15c26 -2 50 9 50 27c0 10 -3 24 -31 24c-12 0 -26 0 -51 -7c-8 -2 -24 -8 -33 -2l-11 7c-12 5 -12 17 -2 29l71 85c8 9 19 13 28 8
l23 -13c11 -6 9 -11 -2 -24z" />
    <glyph glyph-name="ordmasculine" unicode="&#xba;" horiz-adv-x="506" 
d="M476 269c0 -175 -93 -279 -223 -279s-223 104 -223 279s93 279 223 279s223 -104 223 -279zM397 269c0 131 -60 209 -144 209s-144 -78 -144 -209s60 -209 144 -209s144 78 144 209z" />
    <glyph glyph-name="guillemotright" unicode="&#xbb;" horiz-adv-x="600" 
 />
    <glyph glyph-name="Agrave" unicode="&#xc0;" horiz-adv-x="602" 
d="M413 856c25 -8 27 -24 27 -33v-13c0 -23 -22 -21 -37 -17l-209 58c-24 7 -34 21 -34 37v18c0 20 20 22 39 16zM591 35c7 -19 -2 -35 -21 -35h-30c-12 0 -23 3 -27 14l-65 183h-296l-65 -183c-4 -11 -15 -14 -27 -14h-29c-19 0 -28 16 -21 35l209 617c15 46 35 84 81 84
s69 -38 84 -84zM314 625c-3 10 -9 25 -14 25s-11 -15 -14 -25l-113 -358h254z" />
    <glyph glyph-name="Aacute" unicode="&#xc1;" horiz-adv-x="602" 
d="M401 922c19 6 39 4 39 -16v-18c0 -16 -10 -30 -34 -37l-209 -58c-15 -4 -37 -6 -37 17v13c0 9 2 25 27 33zM591 35c7 -19 -2 -35 -21 -35h-30c-12 0 -23 3 -27 14l-65 183h-296l-65 -183c-4 -11 -15 -14 -27 -14h-29c-19 0 -28 16 -21 35l209 617c15 46 35 84 81 84
s69 -38 84 -84zM314 625c-3 10 -9 25 -14 25s-11 -15 -14 -25l-113 -358h254z" />
    <glyph glyph-name="Acircumflex" unicode="&#xc2;" horiz-adv-x="602" 
d="M443 815c13 -19 17 -33 -6 -33h-39c-13 0 -23 3 -30 14l-32 50c-15 24 -21 35 -36 35s-21 -11 -36 -35l-32 -50c-7 -11 -17 -14 -30 -14h-39c-23 0 -19 14 -6 33l60 89c29 43 53 49 83 49s54 -6 83 -49zM591 35c7 -19 -2 -35 -21 -35h-30c-12 0 -23 3 -27 14l-65 183
h-296l-65 -183c-4 -11 -15 -14 -27 -14h-29c-19 0 -28 16 -21 35l209 617c15 46 35 84 81 84s69 -38 84 -84zM314 625c-3 10 -9 25 -14 25s-11 -15 -14 -25l-113 -358h254z" />
    <glyph glyph-name="Atilde" unicode="&#xc3;" horiz-adv-x="602" 
d="M447 908c30 0 23 -14 20 -28c-10 -46 -44 -85 -97 -85c-63 0 -95 55 -139 55c-15 0 -32 -12 -37 -35c-2 -9 -10 -16 -20 -16h-20c-30 0 -24 14 -21 28c9 40 39 85 98 85c60 0 100 -55 139 -55c19 0 32 12 37 35c2 9 10 16 20 16h20zM591 35c7 -19 -2 -35 -21 -35h-30
c-12 0 -23 3 -27 14l-65 183h-296l-65 -183c-4 -11 -15 -14 -27 -14h-29c-19 0 -28 16 -21 35l209 617c15 46 35 84 81 84s69 -38 84 -84zM314 625c-3 10 -9 25 -14 25s-11 -15 -14 -25l-113 -358h254z" />
    <glyph glyph-name="Adieresis" unicode="&#xc4;" horiz-adv-x="602" 
d="M292 936c20 0 32 -10 25 -27l-39 -94c-6 -15 -19 -23 -32 -23h-22c-21 0 -28 14 -21 35l30 94c3 10 13 15 31 15h28zM420 936c20 0 32 -10 25 -27l-39 -94c-6 -15 -19 -23 -32 -23h-22c-21 0 -28 14 -21 35l30 94c3 10 13 15 31 15h28zM591 35c7 -19 -2 -35 -21 -35h-30
c-12 0 -23 3 -27 14l-65 183h-296l-65 -183c-4 -11 -15 -14 -27 -14h-29c-19 0 -28 16 -21 35l209 617c15 46 35 84 81 84s69 -38 84 -84zM314 625c-3 10 -9 25 -14 25s-11 -15 -14 -25l-113 -358h254z" />
    <glyph glyph-name="Aring" unicode="&#xc5;" horiz-adv-x="602" 
d="M300 1001c63 0 115 -50 115 -111s-52 -111 -115 -111c-64 0 -115 50 -115 111s51 111 115 111zM300 837c29 0 53 24 53 53s-24 53 -53 53s-53 -24 -53 -53s24 -53 53 -53zM591 35c7 -19 -2 -35 -21 -35h-30c-12 0 -23 3 -27 14l-65 183h-296l-65 -183
c-4 -11 -15 -14 -27 -14h-29c-19 0 -28 16 -21 35l209 617c15 46 35 84 81 84s69 -38 84 -84zM314 625c-3 10 -9 25 -14 25s-11 -15 -14 -25l-113 -358h254z" />
    <glyph glyph-name="AE" unicode="&#xc6;" horiz-adv-x="860" 
d="M808 70c20 0 29 -12 29 -25v-20c0 -13 -9 -25 -29 -25h-331c-50 0 -71 30 -71 73v124h-257l-65 -183c-4 -11 -15 -14 -27 -14h-29c-19 0 -28 16 -21 35l209 617c15 46 35 84 81 84h506c20 0 29 -12 29 -25v-20c0 -13 -9 -25 -29 -25h-315v-248h294c20 0 29 -12 29 -25
v-20c0 -13 -9 -25 -29 -25h-294v-259c0 -15 3 -19 17 -19h303zM406 267v399h-89c-17 0 -27 -20 -34 -41l-113 -358h236z" />
    <glyph glyph-name="Ccedilla" unicode="&#xc7;" horiz-adv-x="608" 
d="M551 231c14 0 24 -10 22 -25c-14 -131 -109 -222 -251 -222l-12 -14c54 13 107 -16 107 -72c0 -58 -56 -81 -115 -81c-40 0 -70 7 -97 15c-10 3 -15 13 -15 23v29c0 14 11 17 28 10c73 -32 128 -15 128 8c0 11 -6 20 -32 20c-12 0 -28 0 -48 -7c-15 -5 -24 -8 -33 -2
l-11 7c-11 7 -12 17 -2 29l35 42c-166 39 -229 225 -229 377c0 171 80 385 295 385c143 0 237 -99 251 -230c2 -15 -8 -25 -22 -25h-36c-20 0 -25 12 -27 25c-15 88 -69 156 -166 156c-128 0 -209 -121 -211 -311c-2 -189 83 -310 211 -310c97 0 152 61 167 148
c2 13 7 25 27 25h36z" />
    <glyph glyph-name="Egrave" unicode="&#xc8;" horiz-adv-x="522" 
d="M374 856c25 -8 27 -24 27 -33v-13c0 -23 -22 -21 -37 -17l-209 58c-24 7 -34 21 -34 37v18c0 20 20 22 39 16zM454 70c20 0 29 -12 29 -25v-20c0 -13 -9 -25 -29 -25h-331c-50 0 -71 30 -71 73v590c0 43 21 73 71 73h326c20 0 29 -12 29 -25v-20c0 -13 -9 -25 -29 -25
h-298c-14 0 -17 -4 -17 -19v-229h294c20 0 29 -12 29 -25v-20c0 -13 -9 -25 -29 -25h-294v-259c0 -15 3 -19 17 -19h303z" />
    <glyph glyph-name="Eacute" unicode="&#xc9;" horiz-adv-x="522" 
d="M362 922c19 6 39 4 39 -16v-18c0 -16 -10 -30 -34 -37l-209 -58c-15 -4 -37 -6 -37 17v13c0 9 2 25 27 33zM454 70c20 0 29 -12 29 -25v-20c0 -13 -9 -25 -29 -25h-331c-50 0 -71 30 -71 73v590c0 43 21 73 71 73h326c20 0 29 -12 29 -25v-20c0 -13 -9 -25 -29 -25h-298
c-14 0 -17 -4 -17 -19v-229h294c20 0 29 -12 29 -25v-20c0 -13 -9 -25 -29 -25h-294v-259c0 -15 3 -19 17 -19h303z" />
    <glyph glyph-name="Ecircumflex" unicode="&#xca;" horiz-adv-x="522" 
d="M404 815c13 -19 17 -33 -6 -33h-39c-13 0 -23 3 -30 14l-32 50c-15 24 -21 35 -36 35s-21 -11 -36 -35l-32 -50c-7 -11 -17 -14 -30 -14h-39c-23 0 -19 14 -6 33l60 89c29 43 53 49 83 49s54 -6 83 -49zM454 70c20 0 29 -12 29 -25v-20c0 -13 -9 -25 -29 -25h-331
c-50 0 -71 30 -71 73v590c0 43 21 73 71 73h326c20 0 29 -12 29 -25v-20c0 -13 -9 -25 -29 -25h-298c-14 0 -17 -4 -17 -19v-229h294c20 0 29 -12 29 -25v-20c0 -13 -9 -25 -29 -25h-294v-259c0 -15 3 -19 17 -19h303z" />
    <glyph glyph-name="Edieresis" unicode="&#xcb;" horiz-adv-x="522" 
d="M253 936c20 0 32 -10 25 -27l-39 -94c-6 -15 -19 -23 -32 -23h-22c-21 0 -28 14 -21 35l30 94c3 10 13 15 31 15h28zM381 936c20 0 32 -10 25 -27l-39 -94c-6 -15 -19 -23 -32 -23h-22c-21 0 -28 14 -21 35l30 94c3 10 13 15 31 15h28zM454 70c20 0 29 -12 29 -25v-20
c0 -13 -9 -25 -29 -25h-331c-50 0 -71 30 -71 73v590c0 43 21 73 71 73h326c20 0 29 -12 29 -25v-20c0 -13 -9 -25 -29 -25h-298c-14 0 -17 -4 -17 -19v-229h294c20 0 29 -12 29 -25v-20c0 -13 -9 -25 -29 -25h-294v-259c0 -15 3 -19 17 -19h303z" />
    <glyph glyph-name="Igrave" unicode="&#xcc;" horiz-adv-x="242" 
d="M234 856c25 -8 27 -24 27 -33v-13c0 -23 -22 -21 -37 -17l-209 58c-24 7 -34 21 -34 37v18c0 20 20 22 39 16zM131 736c20 0 31 -12 31 -25v-686c0 -13 -10 -25 -30 -25h-21c-20 0 -31 12 -31 25v686c0 13 11 25 31 25h20z" />
    <glyph glyph-name="Iacute" unicode="&#xcd;" horiz-adv-x="242" 
d="M222 922c19 6 39 4 39 -16v-18c0 -16 -10 -30 -34 -37l-209 -58c-15 -4 -37 -6 -37 17v13c0 9 2 25 27 33zM131 736c20 0 31 -12 31 -25v-686c0 -13 -10 -25 -30 -25h-21c-20 0 -31 12 -31 25v686c0 13 11 25 31 25h20z" />
    <glyph glyph-name="Icircumflex" unicode="&#xce;" horiz-adv-x="242" 
d="M264 815c13 -19 17 -33 -6 -33h-39c-13 0 -23 3 -30 14l-32 50c-15 24 -21 35 -36 35s-21 -11 -36 -35l-32 -50c-7 -11 -17 -14 -30 -14h-39c-23 0 -19 14 -6 33l60 89c29 43 53 49 83 49s54 -6 83 -49zM131 736c20 0 31 -12 31 -25v-686c0 -13 -10 -25 -30 -25h-21
c-20 0 -31 12 -31 25v686c0 13 11 25 31 25h20z" />
    <glyph glyph-name="Idieresis" unicode="&#xcf;" horiz-adv-x="242" 
d="M113 936c20 0 32 -10 25 -27l-39 -94c-6 -15 -19 -23 -32 -23h-22c-21 0 -28 14 -21 35l30 94c3 10 13 15 31 15h28zM241 936c20 0 32 -10 25 -27l-39 -94c-6 -15 -19 -23 -32 -23h-22c-21 0 -28 14 -21 35l30 94c3 10 13 15 31 15h28zM131 736c20 0 31 -12 31 -25v-686
c0 -13 -10 -25 -30 -25h-21c-20 0 -31 12 -31 25v686c0 13 11 25 31 25h20z" />
    <glyph glyph-name="Eth" unicode="&#xd0;" horiz-adv-x="635" 
d="M297 736c207 0 299 -160 299 -368s-92 -368 -299 -368h-150c-50 0 -71 30 -71 73v260h-64c-20 0 -32 12 -32 25v20c0 13 12 25 32 25h64v260c0 43 21 73 71 73h150zM289 70c112 0 223 74 223 298s-111 298 -223 298h-114c-14 0 -17 -4 -17 -19v-244h145
c20 0 32 -12 32 -25v-20c0 -13 -12 -25 -32 -25h-145v-244c0 -15 3 -19 17 -19h114z" />
    <glyph glyph-name="Ntilde" unicode="&#xd1;" horiz-adv-x="667" 
d="M481 908c30 0 23 -14 20 -28c-10 -46 -44 -85 -97 -85c-63 0 -95 55 -139 55c-15 0 -32 -12 -37 -35c-2 -9 -10 -16 -20 -16h-20c-30 0 -24 14 -21 28c9 40 39 85 98 85c60 0 100 -55 139 -55c19 0 32 12 37 35c2 9 10 16 20 16h20zM577 736c20 0 31 -12 31 -25v-605
c0 -74 -29 -106 -74 -106c-40 0 -70 26 -97 78l-265 517c-9 16 -23 45 -28 45s-4 -22 -4 -45v-570c0 -13 -12 -25 -28 -25h-23c-20 0 -31 12 -31 25v605c0 74 28 106 74 106c40 0 70 -26 97 -78l265 -517c9 -16 23 -44 28 -44s4 22 4 45v569c0 13 12 25 28 25h23z" />
    <glyph glyph-name="Ograve" unicode="&#xd2;" horiz-adv-x="660" 
d="M443 856c25 -8 27 -24 27 -33v-13c0 -23 -22 -21 -37 -17l-209 58c-24 7 -34 21 -34 37v18c0 20 20 22 39 16zM623 368c0 171 -78 385 -293 385s-293 -214 -293 -385s78 -385 293 -385s293 214 293 385zM539 368c0 -190 -81 -311 -209 -311s-209 121 -209 311
s81 311 209 311s209 -121 209 -311z" />
    <glyph glyph-name="Oacute" unicode="&#xd3;" horiz-adv-x="660" 
d="M431 922c19 6 39 4 39 -16v-18c0 -16 -10 -30 -34 -37l-209 -58c-15 -4 -37 -6 -37 17v13c0 9 2 25 27 33zM623 368c0 171 -78 385 -293 385s-293 -214 -293 -385s78 -385 293 -385s293 214 293 385zM539 368c0 -190 -81 -311 -209 -311s-209 121 -209 311
s81 311 209 311s209 -121 209 -311z" />
    <glyph glyph-name="Ocircumflex" unicode="&#xd4;" horiz-adv-x="660" 
d="M473 815c13 -19 17 -33 -6 -33h-39c-13 0 -23 3 -30 14l-32 50c-15 24 -21 35 -36 35s-21 -11 -36 -35l-32 -50c-7 -11 -17 -14 -30 -14h-39c-23 0 -19 14 -6 33l60 89c29 43 53 49 83 49s54 -6 83 -49zM623 368c0 171 -78 385 -293 385s-293 -214 -293 -385
s78 -385 293 -385s293 214 293 385zM539 368c0 -190 -81 -311 -209 -311s-209 121 -209 311s81 311 209 311s209 -121 209 -311z" />
    <glyph glyph-name="Otilde" unicode="&#xd5;" horiz-adv-x="660" 
d="M477 908c30 0 23 -14 20 -28c-10 -46 -44 -85 -97 -85c-63 0 -95 55 -139 55c-15 0 -32 -12 -37 -35c-2 -9 -10 -16 -20 -16h-20c-30 0 -24 14 -21 28c9 40 39 85 98 85c60 0 100 -55 139 -55c19 0 32 12 37 35c2 9 10 16 20 16h20zM623 368c0 171 -78 385 -293 385
s-293 -214 -293 -385s78 -385 293 -385s293 214 293 385zM539 368c0 -190 -81 -311 -209 -311s-209 121 -209 311s81 311 209 311s209 -121 209 -311z" />
    <glyph glyph-name="Odieresis" unicode="&#xd6;" horiz-adv-x="660" 
d="M322 936c20 0 32 -10 25 -27l-39 -94c-6 -15 -19 -23 -32 -23h-22c-21 0 -28 14 -21 35l30 94c3 10 13 15 31 15h28zM450 936c20 0 32 -10 25 -27l-39 -94c-6 -15 -19 -23 -32 -23h-22c-21 0 -28 14 -21 35l30 94c3 10 13 15 31 15h28zM623 368c0 171 -78 385 -293 385
s-293 -214 -293 -385s78 -385 293 -385s293 214 293 385zM539 368c0 -190 -81 -311 -209 -311s-209 121 -209 311s81 311 209 311s209 -121 209 -311z" />
    <glyph glyph-name="Oslash" unicode="&#xd8;" horiz-adv-x="660" 
d="M525 667c70 -78 98 -196 98 -299c0 -171 -78 -385 -293 -385c-55 0 -102 14 -140 38l-7 -14c-8 -16 -21 -21 -43 -21h-20c-22 0 -31 11 -16 41l25 48c-65 78 -92 193 -92 293c0 171 78 385 293 385c51 0 94 -12 131 -33l6 12c11 22 23 21 40 21h22c23 0 32 -16 22 -36z
M121 368c0 -88 17 -161 48 -214l257 498c-28 18 -60 27 -96 27c-128 0 -209 -121 -209 -311zM330 57c128 0 209 121 209 311c0 92 -19 169 -54 222l-259 -500c30 -21 65 -33 104 -33z" />
    <glyph glyph-name="Ugrave" unicode="&#xd9;" horiz-adv-x="581" 
d="M404 856c25 -8 27 -24 27 -33v-13c0 -23 -22 -21 -37 -17l-209 58c-24 7 -34 21 -34 37v18c0 20 20 22 39 16zM500 736c16 0 27 -12 27 -25v-433c0 -180 -67 -294 -236 -294s-236 114 -236 294v433c0 13 11 25 27 25h27c19 0 28 -12 28 -25v-433c0 -126 31 -220 154 -220
s154 94 154 220v433c0 13 10 25 28 25h27z" />
    <glyph glyph-name="Uacute" unicode="&#xda;" horiz-adv-x="581" 
d="M392 922c19 6 39 4 39 -16v-18c0 -16 -10 -30 -34 -37l-209 -58c-15 -4 -37 -6 -37 17v13c0 9 2 25 27 33zM500 736c16 0 27 -12 27 -25v-433c0 -180 -67 -294 -236 -294s-236 114 -236 294v433c0 13 11 25 27 25h27c19 0 28 -12 28 -25v-433c0 -126 31 -220 154 -220
s154 94 154 220v433c0 13 10 25 28 25h27z" />
    <glyph glyph-name="Ucircumflex" unicode="&#xdb;" horiz-adv-x="581" 
d="M434 815c13 -19 17 -33 -6 -33h-39c-13 0 -23 3 -30 14l-32 50c-15 24 -21 35 -36 35s-21 -11 -36 -35l-32 -50c-7 -11 -17 -14 -30 -14h-39c-23 0 -19 14 -6 33l60 89c29 43 53 49 83 49s54 -6 83 -49zM500 736c16 0 27 -12 27 -25v-433c0 -180 -67 -294 -236 -294
s-236 114 -236 294v433c0 13 11 25 27 25h27c19 0 28 -12 28 -25v-433c0 -126 31 -220 154 -220s154 94 154 220v433c0 13 10 25 28 25h27z" />
    <glyph glyph-name="Udieresis" unicode="&#xdc;" horiz-adv-x="581" 
d="M283 936c20 0 32 -10 25 -27l-39 -94c-6 -15 -19 -23 -32 -23h-22c-21 0 -28 14 -21 35l30 94c3 10 13 15 31 15h28zM411 936c20 0 32 -10 25 -27l-39 -94c-6 -15 -19 -23 -32 -23h-22c-21 0 -28 14 -21 35l30 94c3 10 13 15 31 15h28zM500 736c16 0 27 -12 27 -25v-433
c0 -180 -67 -294 -236 -294s-236 114 -236 294v433c0 13 11 25 27 25h27c19 0 28 -12 28 -25v-433c0 -126 31 -220 154 -220s154 94 154 220v433c0 13 10 25 28 25h27z" />
    <glyph glyph-name="Yacute" unicode="&#xdd;" horiz-adv-x="553" 
d="M378 922c19 6 39 4 39 -16v-18c0 -16 -10 -30 -34 -37l-209 -58c-15 -4 -37 -6 -37 17v13c0 9 2 25 27 33zM539 736c24 0 25 -16 12 -38l-233 -381v-292c0 -13 -11 -25 -31 -25h-21c-20 0 -32 12 -32 25v292l-232 381c-13 22 -12 38 12 38h35c21 0 27 -8 38 -26l189 -311
l190 311c11 18 17 26 38 26h35z" />
    <glyph glyph-name="germandbls" unicode="&#xdf;" horiz-adv-x="509" 
d="M453 559c0 -66 -21 -123 -74 -152c69 -29 107 -107 107 -192c0 -124 -82 -215 -224 -215h-46c-20 0 -30 12 -30 25v20c0 13 10 24 30 24h39c96 0 149 63 149 146c0 84 -44 151 -154 151c-25 0 -32 12 -32 25v20c0 13 5 25 26 25h15c77 0 114 38 114 122
c0 65 -50 115 -118 115c-70 0 -107 -54 -107 -111v-537c0 -13 -12 -25 -32 -25h-20c-20 0 -32 12 -32 25v441h-26c-20 0 -24 11 -24 24v21c0 13 4 25 24 25h26v26c0 87 51 184 191 184c135 0 198 -84 198 -187z" />
    <glyph glyph-name="agrave" unicode="&#xe0;" horiz-adv-x="481" 
d="M354 656c25 -8 27 -24 27 -33v-13c0 -23 -22 -21 -37 -17l-209 58c-24 7 -34 21 -34 37v18c0 20 20 22 39 16zM444 34c14 -17 13 -34 -11 -34h-20c-17 0 -27 6 -37 19c-14 18 -19 37 -21 49c-30 -51 -92 -79 -149 -79c-100 0 -166 49 -166 156c0 88 79 148 186 165
c76 12 114 23 114 62c0 72 -32 106 -95 106c-64 0 -95 -27 -101 -103c-1 -12 -9 -24 -29 -24h-25c-12 0 -28 3 -27 25c6 113 75 172 185 172c115 0 169 -71 169 -165v-259c0 -52 18 -79 27 -90zM117 145c0 -26 11 -87 87 -87c84 0 136 67 136 133v85
c-34 -17 -66 -21 -100 -27c-73 -12 -123 -43 -123 -104z" />
    <glyph glyph-name="aacute" unicode="&#xe1;" horiz-adv-x="481" 
d="M342 722c19 6 39 4 39 -16v-18c0 -16 -10 -30 -34 -37l-209 -58c-15 -4 -37 -6 -37 17v13c0 9 2 25 27 33zM444 34c14 -17 13 -34 -11 -34h-20c-17 0 -27 6 -37 19c-14 18 -19 37 -21 49c-30 -51 -92 -79 -149 -79c-100 0 -166 49 -166 156c0 88 79 148 186 165
c76 12 114 23 114 62c0 72 -32 106 -95 106c-64 0 -95 -27 -101 -103c-1 -12 -9 -24 -29 -24h-25c-12 0 -28 3 -27 25c6 113 75 172 185 172c115 0 169 -71 169 -165v-259c0 -52 18 -79 27 -90zM117 145c0 -26 11 -87 87 -87c84 0 136 67 136 133v85
c-34 -17 -66 -21 -100 -27c-73 -12 -123 -43 -123 -104z" />
    <glyph glyph-name="acircumflex" unicode="&#xe2;" horiz-adv-x="481" 
d="M384 615c13 -19 17 -33 -6 -33h-39c-13 0 -23 3 -30 14l-32 50c-15 24 -21 35 -36 35s-21 -11 -36 -35l-32 -50c-7 -11 -17 -14 -30 -14h-39c-23 0 -19 14 -6 33l60 89c29 43 53 49 83 49s54 -6 83 -49zM444 34c14 -17 13 -34 -11 -34h-20c-17 0 -27 6 -37 19
c-14 18 -19 37 -21 49c-30 -51 -92 -79 -149 -79c-100 0 -166 49 -166 156c0 88 79 148 186 165c76 12 114 23 114 62c0 72 -32 106 -95 106c-64 0 -95 -27 -101 -103c-1 -12 -9 -24 -29 -24h-25c-12 0 -28 3 -27 25c6 113 75 172 185 172c115 0 169 -71 169 -165v-259
c0 -52 18 -79 27 -90zM117 145c0 -26 11 -87 87 -87c84 0 136 67 136 133v85c-34 -17 -66 -21 -100 -27c-73 -12 -123 -43 -123 -104z" />
    <glyph glyph-name="atilde" unicode="&#xe3;" horiz-adv-x="481" 
d="M388 708c30 0 23 -14 20 -28c-10 -46 -44 -85 -97 -85c-63 0 -95 55 -139 55c-15 0 -32 -12 -37 -35c-2 -9 -10 -16 -20 -16h-20c-30 0 -24 14 -21 28c9 40 39 85 98 85c60 0 100 -55 139 -55c19 0 32 12 37 35c2 9 10 16 20 16h20zM444 34c14 -17 13 -34 -11 -34h-20
c-17 0 -27 6 -37 19c-14 18 -19 37 -21 49c-30 -51 -92 -79 -149 -79c-100 0 -166 49 -166 156c0 88 79 148 186 165c76 12 114 23 114 62c0 72 -32 106 -95 106c-64 0 -95 -27 -101 -103c-1 -12 -9 -24 -29 -24h-25c-12 0 -28 3 -27 25c6 113 75 172 185 172
c115 0 169 -71 169 -165v-259c0 -52 18 -79 27 -90zM117 145c0 -26 11 -87 87 -87c84 0 136 67 136 133v85c-34 -17 -66 -21 -100 -27c-73 -12 -123 -43 -123 -104z" />
    <glyph glyph-name="adieresis" unicode="&#xe4;" horiz-adv-x="481" 
d="M233 736c20 0 32 -10 25 -27l-39 -94c-6 -15 -19 -23 -32 -23h-22c-21 0 -28 14 -21 35l30 94c3 10 13 15 31 15h28zM361 736c20 0 32 -10 25 -27l-39 -94c-6 -15 -19 -23 -32 -23h-22c-21 0 -28 14 -21 35l30 94c3 10 13 15 31 15h28zM444 34c14 -17 13 -34 -11 -34h-20
c-17 0 -27 6 -37 19c-14 18 -19 37 -21 49c-30 -51 -92 -79 -149 -79c-100 0 -166 49 -166 156c0 88 79 148 186 165c76 12 114 23 114 62c0 72 -32 106 -95 106c-64 0 -95 -27 -101 -103c-1 -12 -9 -24 -29 -24h-25c-12 0 -28 3 -27 25c6 113 75 172 185 172
c115 0 169 -71 169 -165v-259c0 -52 18 -79 27 -90zM117 145c0 -26 11 -87 87 -87c84 0 136 67 136 133v85c-34 -17 -66 -21 -100 -27c-73 -12 -123 -43 -123 -104z" />
    <glyph glyph-name="aring" unicode="&#xe5;" horiz-adv-x="481" 
d="M241 801c63 0 115 -50 115 -111s-52 -111 -115 -111c-64 0 -115 50 -115 111s51 111 115 111zM241 637c29 0 53 24 53 53s-24 53 -53 53s-53 -24 -53 -53s24 -53 53 -53zM444 34c14 -17 13 -34 -11 -34h-20c-17 0 -27 6 -37 19c-14 18 -19 37 -21 49
c-30 -51 -92 -79 -149 -79c-100 0 -166 49 -166 156c0 88 79 148 186 165c76 12 114 23 114 62c0 72 -32 106 -95 106c-64 0 -95 -27 -101 -103c-1 -12 -9 -24 -29 -24h-25c-12 0 -28 3 -27 25c6 113 75 172 185 172c115 0 169 -71 169 -165v-259c0 -52 18 -79 27 -90z
M117 145c0 -26 11 -87 87 -87c84 0 136 67 136 133v85c-34 -17 -66 -21 -100 -27c-73 -12 -123 -43 -123 -104z" />
    <glyph glyph-name="ae" unicode="&#xe6;" horiz-adv-x="774" 
d="M751 303c1 -28 -9 -40 -41 -40h-305c2 -125 61 -203 141 -203c59 0 101 28 118 101c3 15 13 21 32 21h22c15 0 27 -3 24 -21c-22 -118 -98 -171 -196 -171c-73 0 -135 36 -174 100c-40 -69 -111 -101 -176 -101c-100 0 -170 49 -170 156c0 88 79 150 186 165
c76 11 114 23 114 58c0 76 -32 110 -92 110c-67 0 -98 -27 -104 -103c-1 -12 -9 -24 -29 -24h-25c-12 0 -28 3 -27 25c6 113 75 172 185 172c75 0 122 -33 149 -87c28 56 95 87 162 87c151 0 202 -129 206 -245zM666 333c-4 61 -30 145 -121 145c-69 0 -119 -43 -135 -145
h256zM326 276c-32 -20 -66 -21 -100 -27c-73 -12 -123 -43 -123 -104c0 -26 15 -87 91 -87c74 0 132 48 132 145v73z" />
    <glyph glyph-name="ccedilla" unicode="&#xe7;" horiz-adv-x="480" 
d="M425 182c15 0 27 -3 24 -21c-21 -113 -93 -167 -186 -171l-17 -20c54 13 107 -16 107 -72c0 -58 -56 -81 -115 -81c-40 0 -70 7 -97 15c-10 3 -15 13 -15 23v29c0 14 11 17 28 10c73 -32 128 -15 128 8c0 11 -6 20 -32 20c-12 0 -28 0 -48 -7c-15 -5 -24 -8 -33 -2l-11 7
c-11 7 -12 17 -2 29l40 48c-97 28 -167 128 -167 272c0 175 93 279 223 279c94 0 182 -51 196 -176c2 -18 -9 -21 -24 -21h-22c-19 0 -30 6 -32 21c-11 79 -59 106 -118 106c-84 0 -144 -78 -144 -209c0 -128 63 -209 144 -209c59 0 102 28 119 101c3 15 13 21 32 21h22z
" />
    <glyph glyph-name="egrave" unicode="&#xe8;" horiz-adv-x="485" 
d="M362 656c25 -8 27 -24 27 -33v-13c0 -23 -22 -21 -37 -17l-209 58c-24 7 -34 21 -34 37v18c0 20 20 22 39 16zM422 182c15 0 27 -3 24 -21c-22 -118 -98 -171 -196 -171c-126 0 -220 109 -220 279c0 175 89 279 219 279c151 0 202 -129 206 -245c1 -28 -9 -40 -41 -40
h-305c2 -125 61 -203 141 -203c59 0 101 28 118 101c3 15 13 21 32 21h22zM249 478c-69 0 -119 -43 -135 -145h256c-4 61 -30 145 -121 145z" />
    <glyph glyph-name="eacute" unicode="&#xe9;" horiz-adv-x="485" 
d="M350 722c19 6 39 4 39 -16v-18c0 -16 -10 -30 -34 -37l-209 -58c-15 -4 -37 -6 -37 17v13c0 9 2 25 27 33zM422 182c15 0 27 -3 24 -21c-22 -118 -98 -171 -196 -171c-126 0 -220 109 -220 279c0 175 89 279 219 279c151 0 202 -129 206 -245c1 -28 -9 -40 -41 -40h-305
c2 -125 61 -203 141 -203c59 0 101 28 118 101c3 15 13 21 32 21h22zM249 478c-69 0 -119 -43 -135 -145h256c-4 61 -30 145 -121 145z" />
    <glyph glyph-name="ecircumflex" unicode="&#xea;" horiz-adv-x="485" 
d="M392 615c13 -19 17 -33 -6 -33h-39c-13 0 -23 3 -30 14l-32 50c-15 24 -21 35 -36 35s-21 -11 -36 -35l-32 -50c-7 -11 -17 -14 -30 -14h-39c-23 0 -19 14 -6 33l60 89c29 43 53 49 83 49s54 -6 83 -49zM422 182c15 0 27 -3 24 -21c-22 -118 -98 -171 -196 -171
c-126 0 -220 109 -220 279c0 175 89 279 219 279c151 0 202 -129 206 -245c1 -28 -9 -40 -41 -40h-305c2 -125 61 -203 141 -203c59 0 101 28 118 101c3 15 13 21 32 21h22zM249 478c-69 0 -119 -43 -135 -145h256c-4 61 -30 145 -121 145z" />
    <glyph glyph-name="edieresis" unicode="&#xeb;" horiz-adv-x="485" 
d="M241 736c20 0 32 -10 25 -27l-39 -94c-6 -15 -19 -23 -32 -23h-22c-21 0 -28 14 -21 35l30 94c3 10 13 15 31 15h28zM369 736c20 0 32 -10 25 -27l-39 -94c-6 -15 -19 -23 -32 -23h-22c-21 0 -28 14 -21 35l30 94c3 10 13 15 31 15h28zM422 182c15 0 27 -3 24 -21
c-22 -118 -98 -171 -196 -171c-126 0 -220 109 -220 279c0 175 89 279 219 279c151 0 202 -129 206 -245c1 -28 -9 -40 -41 -40h-305c2 -125 61 -203 141 -203c59 0 101 28 118 101c3 15 13 21 32 21h22zM249 478c-69 0 -119 -43 -135 -145h256c-4 61 -30 145 -121 145z" />
    <glyph glyph-name="igrave" unicode="&#xec;" horiz-adv-x="206" 
d="M216 656c25 -8 27 -24 27 -33v-13c0 -23 -22 -21 -37 -17l-209 58c-24 7 -34 21 -34 37v18c0 20 20 22 39 16zM117 536c20 0 27 -12 27 -25v-491c0 -9 -7 -20 -27 -20h-27c-20 0 -28 11 -28 20v491c0 13 8 25 28 25h27z" />
    <glyph glyph-name="iacute" unicode="&#xed;" horiz-adv-x="206" 
d="M251 722c19 6 39 4 39 -16v-18c0 -16 -10 -30 -34 -37l-209 -58c-15 -4 -37 -6 -37 17v13c0 9 2 25 27 33zM117 536c20 0 27 -12 27 -25v-491c0 -9 -7 -20 -27 -20h-27c-20 0 -28 11 -28 20v491c0 13 8 25 28 25h27z" />
    <glyph glyph-name="icircumflex" unicode="&#xee;" horiz-adv-x="206" 
d="M246 615c13 -19 17 -33 -6 -33h-39c-13 0 -23 3 -30 14l-32 50c-15 24 -21 35 -36 35s-21 -11 -36 -35l-32 -50c-7 -11 -17 -14 -30 -14h-39c-23 0 -19 14 -6 33l60 89c29 43 53 49 83 49s54 -6 83 -49zM117 536c20 0 27 -12 27 -25v-491c0 -9 -7 -20 -27 -20h-27
c-20 0 -28 11 -28 20v491c0 13 8 25 28 25h27z" />
    <glyph glyph-name="idieresis" unicode="&#xef;" horiz-adv-x="206" 
d="M95 736c20 0 32 -10 25 -27l-39 -94c-6 -15 -19 -23 -32 -23h-22c-21 0 -28 14 -21 35l30 94c3 10 13 15 31 15h28zM223 736c20 0 32 -10 25 -27l-39 -94c-6 -15 -19 -23 -32 -23h-22c-21 0 -28 14 -21 35l30 94c3 10 13 15 31 15h28zM117 536c20 0 27 -12 27 -25v-491
c0 -9 -7 -20 -27 -20h-27c-20 0 -28 11 -28 20v491c0 13 8 25 28 25h27z" />
    <glyph glyph-name="eth" unicode="&#xf0;" horiz-adv-x="556" 
d="M513 259c0 -133 -80 -269 -240 -269c-142 0 -231 117 -231 260c0 141 69 279 232 279c23 0 45 -3 63 -8c-15 19 -38 45 -53 61h-126c-20 0 -28 12 -28 22v19c0 13 8 23 28 23h44l-55 42c-24 18 -13 36 21 36h30c16 0 22 -4 28 -8c26 -17 62 -46 90 -70h128
c20 0 28 -10 28 -23v-19c0 -10 -8 -22 -28 -22h-70c81 -89 139 -209 139 -323zM274 59c106 0 162 104 162 200c0 92 -65 203 -162 203c-104 0 -155 -119 -155 -212c0 -84 57 -191 155 -191z" />
    <glyph glyph-name="ntilde" unicode="&#xf1;" horiz-adv-x="480" 
d="M387 708c30 0 23 -14 20 -28c-10 -46 -44 -85 -97 -85c-63 0 -95 55 -139 55c-15 0 -32 -12 -37 -35c-2 -9 -10 -16 -20 -16h-20c-30 0 -24 14 -21 28c9 40 39 85 98 85c60 0 100 -55 139 -55c19 0 32 12 37 35c2 9 10 16 20 16h20zM256 548c139 0 174 -96 174 -203v-320
c0 -13 -6 -25 -26 -25h-30c-20 0 -26 12 -26 25v311c0 58 -15 142 -100 142s-116 -87 -116 -167v-286c0 -13 -7 -25 -27 -25h-28c-18 0 -27 12 -27 25v486c0 13 9 25 27 25h20c20 0 28 -12 28 -25v-46c27 61 88 83 131 83z" />
    <glyph glyph-name="ograve" unicode="&#xf2;" horiz-adv-x="506" 
d="M366 656c25 -8 27 -24 27 -33v-13c0 -23 -22 -21 -37 -17l-209 58c-24 7 -34 21 -34 37v18c0 20 20 22 39 16zM476 269c0 175 -93 279 -223 279s-223 -104 -223 -279s93 -279 223 -279s223 104 223 279zM397 269c0 -131 -60 -209 -144 -209s-144 78 -144 209
s60 209 144 209s144 -78 144 -209z" />
    <glyph glyph-name="oacute" unicode="&#xf3;" horiz-adv-x="506" 
d="M354 722c19 6 39 4 39 -16v-18c0 -16 -10 -30 -34 -37l-209 -58c-15 -4 -37 -6 -37 17v13c0 9 2 25 27 33zM476 269c0 175 -93 279 -223 279s-223 -104 -223 -279s93 -279 223 -279s223 104 223 279zM397 269c0 -131 -60 -209 -144 -209s-144 78 -144 209s60 209 144 209
s144 -78 144 -209z" />
    <glyph glyph-name="ocircumflex" unicode="&#xf4;" horiz-adv-x="506" 
d="M396 615c13 -19 17 -33 -6 -33h-39c-13 0 -23 3 -30 14l-32 50c-15 24 -21 35 -36 35s-21 -11 -36 -35l-32 -50c-7 -11 -17 -14 -30 -14h-39c-23 0 -19 14 -6 33l60 89c29 43 53 49 83 49s54 -6 83 -49zM476 269c0 175 -93 279 -223 279s-223 -104 -223 -279
s93 -279 223 -279s223 104 223 279zM397 269c0 -131 -60 -209 -144 -209s-144 78 -144 209s60 209 144 209s144 -78 144 -209z" />
    <glyph glyph-name="otilde" unicode="&#xf5;" horiz-adv-x="506" 
d="M400 708c30 0 23 -14 20 -28c-10 -46 -44 -85 -97 -85c-63 0 -95 55 -139 55c-15 0 -32 -12 -37 -35c-2 -9 -10 -16 -20 -16h-20c-30 0 -24 14 -21 28c9 40 39 85 98 85c60 0 100 -55 139 -55c19 0 32 12 37 35c2 9 10 16 20 16h20zM476 269c0 175 -93 279 -223 279
s-223 -104 -223 -279s93 -279 223 -279s223 104 223 279zM397 269c0 -131 -60 -209 -144 -209s-144 78 -144 209s60 209 144 209s144 -78 144 -209z" />
    <glyph glyph-name="odieresis" unicode="&#xf6;" horiz-adv-x="506" 
d="M245 736c20 0 32 -10 25 -27l-39 -94c-6 -15 -19 -23 -32 -23h-22c-21 0 -28 14 -21 35l30 94c3 10 13 15 31 15h28zM373 736c20 0 32 -10 25 -27l-39 -94c-6 -15 -19 -23 -32 -23h-22c-21 0 -28 14 -21 35l30 94c3 10 13 15 31 15h28zM476 269c0 175 -93 279 -223 279
s-223 -104 -223 -279s93 -279 223 -279s223 104 223 279zM397 269c0 -131 -60 -209 -144 -209s-144 78 -144 209s60 209 144 209s144 -78 144 -209z" />
    <glyph glyph-name="oslash" unicode="&#xf8;" horiz-adv-x="506" 
d="M412 475c40 -48 64 -118 64 -206c0 -170 -97 -279 -223 -279c-30 0 -57 6 -83 17l-1 -2c-8 -16 -21 -21 -43 -21h-20c-22 0 -32 11 -16 41l15 29c-47 49 -75 123 -75 215c0 175 93 279 223 279c34 0 66 -7 94 -21l6 11c12 21 23 21 40 21h22c23 0 32 -16 22 -36zM109 269
c0 -57 13 -105 34 -141l171 334c-18 10 -39 16 -61 16c-84 0 -144 -78 -144 -209zM253 59c81 0 144 82 144 210c0 51 -9 94 -25 128l-169 -327c15 -7 32 -11 50 -11z" />
    <glyph glyph-name="ugrave" unicode="&#xf9;" horiz-adv-x="478" 
d="M352 656c25 -8 27 -24 27 -33v-13c0 -23 -22 -21 -37 -17l-209 58c-24 7 -34 21 -34 37v18c0 20 20 22 39 16zM222 -11c-139 0 -172 95 -174 202v320c0 13 6 25 26 25h30c20 0 26 -12 26 -25v-311c0 -58 15 -141 100 -141s116 87 116 148v304c0 13 7 25 27 25h29
c18 0 26 -12 26 -25v-486c0 -13 -8 -25 -26 -25h-21c-20 0 -28 12 -28 25v46c-27 -61 -88 -82 -131 -82z" />
    <glyph glyph-name="uacute" unicode="&#xfa;" horiz-adv-x="478" 
d="M340 722c19 6 39 4 39 -16v-18c0 -16 -10 -30 -34 -37l-209 -58c-15 -4 -37 -6 -37 17v13c0 9 2 25 27 33zM222 -11c-139 0 -172 95 -174 202v320c0 13 6 25 26 25h30c20 0 26 -12 26 -25v-311c0 -58 15 -141 100 -141s116 87 116 148v304c0 13 7 25 27 25h29
c18 0 26 -12 26 -25v-486c0 -13 -8 -25 -26 -25h-21c-20 0 -28 12 -28 25v46c-27 -61 -88 -82 -131 -82z" />
    <glyph glyph-name="ucircumflex" unicode="&#xfb;" horiz-adv-x="478" 
d="M382 615c13 -19 17 -33 -6 -33h-39c-13 0 -23 3 -30 14l-32 50c-15 24 -21 35 -36 35s-21 -11 -36 -35l-32 -50c-7 -11 -17 -14 -30 -14h-39c-23 0 -19 14 -6 33l60 89c29 43 53 49 83 49s54 -6 83 -49zM222 -11c-139 0 -172 95 -174 202v320c0 13 6 25 26 25h30
c20 0 26 -12 26 -25v-311c0 -58 15 -141 100 -141s116 87 116 148v304c0 13 7 25 27 25h29c18 0 26 -12 26 -25v-486c0 -13 -8 -25 -26 -25h-21c-20 0 -28 12 -28 25v46c-27 -61 -88 -82 -131 -82z" />
    <glyph glyph-name="udieresis" unicode="&#xfc;" horiz-adv-x="478" 
d="M231 736c20 0 32 -10 25 -27l-39 -94c-6 -15 -19 -23 -32 -23h-22c-21 0 -28 14 -21 35l30 94c3 10 13 15 31 15h28zM359 736c20 0 32 -10 25 -27l-39 -94c-6 -15 -19 -23 -32 -23h-22c-21 0 -28 14 -21 35l30 94c3 10 13 15 31 15h28zM222 -11c-139 0 -172 95 -174 202
v320c0 13 6 25 26 25h30c20 0 26 -12 26 -25v-311c0 -58 15 -141 100 -141s116 87 116 148v304c0 13 7 25 27 25h29c18 0 26 -12 26 -25v-486c0 -13 -8 -25 -26 -25h-21c-20 0 -28 12 -28 25v46c-27 -61 -88 -82 -131 -82z" />
    <glyph glyph-name="yacute" unicode="&#xfd;" horiz-adv-x="401" 
d="M302 722c19 6 39 4 39 -16v-18c0 -16 -10 -30 -34 -37l-209 -58c-15 -4 -37 -6 -37 17v13c0 9 2 25 27 33zM366 536c22 0 34 -16 28 -35l-172 -577c-19 -64 -57 -93 -135 -93h-27c-19 0 -27 12 -27 25v20c0 13 8 25 27 25h12c42 0 61 4 79 54l22 62l-166 484
c-6 19 6 35 28 35h21c12 0 23 -2 29 -21l125 -376l105 375c6 20 18 22 30 22h21z" />
    <glyph glyph-name="ydieresis" unicode="&#xff;" horiz-adv-x="401" 
d="M193 736c20 0 32 -10 25 -27l-39 -94c-6 -15 -19 -23 -32 -23h-22c-21 0 -28 14 -21 35l30 94c3 10 13 15 31 15h28zM321 736c20 0 32 -10 25 -27l-39 -94c-6 -15 -19 -23 -32 -23h-22c-21 0 -28 14 -21 35l30 94c3 10 13 15 31 15h28zM366 536c22 0 34 -16 28 -35
l-172 -577c-19 -64 -57 -93 -135 -93h-27c-19 0 -27 12 -27 25v20c0 13 8 25 27 25h12c42 0 61 4 79 54l22 62l-166 484c-6 19 6 35 28 35h21c12 0 23 -2 29 -21l125 -376l105 375c6 20 18 22 30 22h21z" />
    <glyph glyph-name="dotlessi" unicode="&#x131;" horiz-adv-x="206" 
d="M117 536c20 0 27 -12 27 -25v-491c0 -9 -7 -20 -27 -20h-27c-20 0 -28 11 -28 20v491c0 13 8 25 28 25h27z" />
    <glyph glyph-name="OE" unicode="&#x152;" horiz-adv-x="863" 
d="M805 70c20 0 29 -12 29 -25v-20c0 -13 -9 -25 -29 -25h-455c-215 0 -305 197 -305 368s90 368 305 368h450c20 0 29 -12 29 -25v-20c0 -13 -9 -25 -29 -25h-315v-248h294c20 0 29 -12 29 -25v-20c0 -13 -9 -25 -29 -25h-294v-278h320zM129 368c2 -189 93 -298 221 -298
h53v596h-53c-128 0 -219 -108 -221 -298z" />
    <glyph glyph-name="oe" unicode="&#x153;" horiz-adv-x="845" 
d="M823 303c1 -28 -9 -40 -41 -40h-305c2 -125 61 -203 141 -203c59 0 101 28 118 101c3 15 13 21 32 21h22c15 0 27 -3 24 -21c-22 -118 -98 -171 -196 -171c-77 0 -142 41 -181 113c-40 -72 -107 -113 -184 -113c-126 0 -223 109 -223 279c0 175 93 279 223 279
c79 0 144 -39 184 -108c37 69 101 108 180 108c151 0 202 -129 206 -245zM253 59c81 0 144 82 144 210c0 131 -60 209 -144 209s-144 -78 -144 -209c0 -128 63 -210 144 -210zM738 333c-4 61 -30 145 -121 145c-69 0 -119 -43 -135 -145h256z" />
    <glyph glyph-name="Scaron" unicode="&#x160;" horiz-adv-x="559" 
d="M363 831c-29 -43 -53 -49 -83 -49s-54 6 -83 49l-60 89c-13 19 -17 33 6 33h39c13 0 23 -3 30 -14l32 -50c15 -24 21 -35 36 -35s21 11 36 35l32 50c7 11 17 14 30 14h39c23 0 19 -14 6 -33zM129 556c0 -169 388 -95 388 -366c0 -123 -95 -206 -232 -206
c-152 0 -238 90 -250 222c-1 15 18 25 32 25h21c20 0 31 -12 32 -25c7 -84 62 -148 165 -148c83 0 148 44 148 132c0 206 -388 115 -388 365c0 132 114 198 231 198c160 0 232 -98 238 -230c1 -15 -7 -25 -28 -25h-25c-20 0 -31 12 -32 25c-8 101 -62 156 -155 156
c-84 0 -145 -38 -145 -123z" />
    <glyph glyph-name="scaron" unicode="&#x161;" horiz-adv-x="445" 
d="M306 631c-29 -43 -53 -49 -83 -49s-54 6 -83 49l-60 89c-13 19 -17 33 6 33h39c13 0 23 -3 30 -14l32 -50c15 -24 21 -35 36 -35s21 11 36 35l32 50c7 11 17 14 30 14h39c23 0 19 -14 6 -33zM251 309c60 -21 158 -55 158 -160c0 -101 -67 -160 -181 -160
c-112 0 -184 47 -193 169c-1 13 9 24 22 24h29c20 0 22 -12 23 -25c6 -76 50 -98 119 -98c56 0 102 26 102 85c0 69 -87 88 -128 101c-103 33 -158 68 -158 156c0 91 80 147 172 147c113 0 179 -50 188 -171c1 -13 -7 -25 -27 -25h-25c-20 0 -27 12 -28 25
c-5 69 -37 101 -108 101c-64 0 -93 -32 -93 -74c0 -65 69 -74 128 -95z" />
    <glyph glyph-name="Ydieresis" unicode="&#x178;" horiz-adv-x="553" 
d="M269 936c20 0 32 -10 25 -27l-39 -94c-6 -15 -19 -23 -32 -23h-22c-21 0 -28 14 -21 35l30 94c3 10 13 15 31 15h28zM397 936c20 0 32 -10 25 -27l-39 -94c-6 -15 -19 -23 -32 -23h-22c-21 0 -28 14 -21 35l30 94c3 10 13 15 31 15h28zM539 736c24 0 25 -16 12 -38
l-233 -381v-292c0 -13 -11 -25 -31 -25h-21c-20 0 -32 12 -32 25v292l-232 381c-13 22 -12 38 12 38h35c21 0 27 -8 38 -26l189 -311l190 311c11 18 17 26 38 26h35z" />
    <glyph glyph-name="Zcaron" unicode="&#x17d;" horiz-adv-x="494" 
d="M330 831c-29 -43 -53 -49 -83 -49s-54 6 -83 49l-60 89c-13 19 -17 33 6 33h39c13 0 23 -3 30 -14l32 -50c15 -24 21 -35 36 -35s21 11 36 35l32 50c7 11 17 14 30 14h39c23 0 19 -14 6 -33zM442 70c20 0 27 -12 27 -25v-20c0 -13 -7 -25 -27 -25h-328
c-86 0 -108 59 -55 146l285 469c20 33 24 51 -11 51h-260c-20 0 -27 12 -27 25v20c0 13 7 25 27 25h280c112 0 111 -78 68 -149l-276 -454c-11 -17 -45 -63 7 -63h290z" />
    <glyph glyph-name="zcaron" unicode="&#x17e;" horiz-adv-x="400" 
d="M283 631c-29 -43 -53 -49 -83 -49s-54 6 -83 49l-60 89c-13 19 -17 33 6 33h39c13 0 23 -3 30 -14l32 -50c15 -24 21 -35 36 -35s21 11 36 35l32 50c7 11 17 14 30 14h39c23 0 19 -14 6 -33zM357 70c20 0 23 -12 23 -25v-20c0 -13 -3 -25 -23 -25h-236
c-109 0 -120 74 -60 153l199 259c24 31 42 54 -3 54h-175c-20 0 -27 12 -27 25v20c0 13 7 25 27 25h193c110 0 112 -86 51 -164l-198 -254c-17 -20 -35 -48 15 -48h214z" />
    <glyph glyph-name="circumflex" unicode="&#x2c6;" horiz-adv-x="308" 
d="M297 615c13 -19 17 -33 -6 -33h-39c-13 0 -23 3 -30 14l-32 50c-15 24 -21 35 -36 35s-21 -11 -36 -35l-32 -50c-7 -11 -17 -14 -30 -14h-39c-23 0 -19 14 -6 33l60 89c29 43 53 49 83 49s54 -6 83 -49z" />
    <glyph glyph-name="caron" unicode="&#x2c7;" horiz-adv-x="308" 
d="M237 631c-29 -43 -53 -49 -83 -49s-54 6 -83 49l-60 89c-13 19 -17 33 6 33h39c13 0 23 -3 30 -14l32 -50c15 -24 21 -35 36 -35s21 11 36 35l32 50c7 11 17 14 30 14h39c23 0 19 -14 6 -33z" />
    <glyph glyph-name="breve" unicode="&#x2d8;" horiz-adv-x="138" 
d="M194 742c9 -9 10 -12 10 -15c-7 -78 -63 -124 -133 -124c-36 0 -64 13 -86 32c-29 26 -44 60 -46 92c0 3 0 6 7 15c2 2 12 11 22 11h20c19 0 31 -11 32 -24c2 -23 10 -43 17 -50c6 -7 22 -13 34 -13c33 0 48 19 51 63c1 13 10 24 30 24h20c7 0 10 -1 14 -3z" />
    <glyph glyph-name="dotaccent" unicode="&#x2d9;" horiz-adv-x="138" 
d="M83 693c20 0 32 -12 32 -25v-74c0 -13 -12 -25 -32 -25h-20c-20 0 -32 12 -32 25v74c0 13 12 25 32 25h20z" />
    <glyph glyph-name="ring" unicode="&#x2da;" horiz-adv-x="229" 
d="M115 801c63 0 115 -50 115 -111s-52 -111 -115 -111c-64 0 -115 50 -115 111s51 111 115 111zM115 637c29 0 53 24 53 53s-24 53 -53 53s-53 -24 -53 -53s24 -53 53 -53z" />
    <glyph glyph-name="ogonek" unicode="&#x2db;" horiz-adv-x="138" 
d="M161 -104c11 -11 11 -15 9 -16c-32 -37 -64 -61 -105 -61c-31 0 -53 9 -69 29c-14 19 -24 41 -24 58c0 42 58 101 100 141c2 1 6 3 14 3h26c16 0 24 -3 26 -10c1 -12 1 -29 -9 -32l1 1c-48 -45 -72 -79 -72 -102c0 -4 1 -20 10 -20c16 0 33 11 44 22c2 2 11 9 16 9
c7 0 10 0 14 -4z" />
    <glyph glyph-name="tilde" unicode="&#x2dc;" horiz-adv-x="337" 
d="M315 708c14 0 24 -14 20 -28c-10 -46 -44 -85 -97 -85c-63 0 -95 55 -139 55c-15 0 -29 -13 -37 -35c-2 -9 -10 -16 -20 -16h-20c-9 0 -24 14 -21 28c9 40 39 85 98 85c60 0 100 -55 139 -55c19 0 29 13 37 35c2 9 10 16 20 16h20z" />
    <glyph glyph-name="hungarumlaut" unicode="&#x2dd;" horiz-adv-x="138" 
d="M16 577c-9 -9 -12 -11 -22 -11h-14c-14 0 -23 3 -26 15l-1 12l115 149c2 2 13 11 23 11h26c14 0 27 -4 30 -19v-11zM143 577c-9 -9 -12 -11 -22 -11h-15c-11 0 -29 6 -34 19l2 10l115 147c2 2 13 11 23 11h26c14 0 27 -4 31 -19c0 -1 0 -2 -1 -2v-9z" />
    <glyph glyph-name="gravecomb" unicode="&#x300;" 
d="M-36 656c25 -8 27 -24 27 -33v-13c0 -23 -22 -21 -37 -17l-209 58c-24 7 -34 21 -34 37v18c0 20 20 22 39 16z" />
    <glyph glyph-name="acutecomb" unicode="&#x301;" 
d="M-50 722c19 6 39 4 39 -16v-18c0 -16 -10 -30 -34 -37l-209 -58c-15 -4 -37 -6 -37 17v13c0 9 2 25 27 33z" />
    <glyph glyph-name="uni0302" unicode="&#x302;" 
d="M-11 615c13 -19 17 -33 -6 -33h-39c-13 0 -23 3 -30 14l-32 50c-15 24 -21 35 -36 35s-21 -11 -36 -35l-32 -50c-7 -11 -17 -14 -30 -14h-39c-23 0 -19 14 -6 33l60 89c29 43 53 49 83 49s54 -6 83 -49z" />
    <glyph glyph-name="tildecomb" unicode="&#x303;" 
d="M-22 708c30 0 23 -14 20 -28c-10 -46 -44 -85 -97 -85c-63 0 -95 55 -139 55c-15 0 -32 -12 -37 -35c-2 -9 -10 -16 -20 -16h-20c-30 0 -24 14 -21 28c9 40 39 85 98 85c60 0 100 -55 139 -55c19 0 32 12 37 35c2 9 10 16 20 16h20z" />
    <glyph glyph-name="uni0306" unicode="&#x306;" 
d="M-152 593c-73 0 -129 58 -132 124c-1 19 8 26 29 26h22c19 0 29 -8 30 -24c3 -41 19 -63 51 -63s48 22 51 63c1 16 11 24 30 24h22c21 0 30 -7 29 -26c-3 -66 -59 -124 -132 -124z" />
    <glyph glyph-name="uni0307" unicode="&#x307;" 
d="M-55 693c20 0 32 -12 32 -25v-74c0 -13 -12 -25 -32 -25h-20c-20 0 -32 12 -32 25v74c0 13 12 25 32 25h20z" />
    <glyph glyph-name="uni0308" unicode="&#x308;" 
d="M-155 736c20 0 32 -10 25 -27l-39 -94c-6 -15 -19 -23 -32 -23h-22c-21 0 -28 14 -21 35l30 94c3 10 13 15 31 15h28zM-27 736c20 0 32 -10 25 -27l-39 -94c-6 -15 -19 -23 -32 -23h-22c-21 0 -28 14 -21 35l30 94c3 10 13 15 31 15h28z" />
    <glyph glyph-name="uni030A" unicode="&#x30a;" 
d="M-114 801c63 0 115 -50 115 -111s-52 -111 -115 -111c-64 0 -115 50 -115 111s51 111 115 111zM-114 637c29 0 53 24 53 53s-24 53 -53 53s-53 -24 -53 -53s24 -53 53 -53z" />
    <glyph glyph-name="uni030B" unicode="&#x30b;" 
d="M-278 577c-9 -9 -12 -11 -22 -11h-29c-21 0 -24 11 -12 27l112 145c9 12 18 15 34 15h30c27 0 31 -15 18 -30zM-158 577c-9 -9 -12 -11 -22 -11h-29c-21 0 -24 11 -12 27l112 145c9 12 18 15 34 15h30c27 0 31 -15 18 -30z" />
    <glyph glyph-name="uni030C" unicode="&#x30c;" 
d="M-91 631c-29 -43 -53 -49 -83 -49s-54 6 -83 49l-60 89c-13 19 -17 33 6 33h39c13 0 23 -3 30 -14l32 -50c15 -24 21 -35 36 -35s21 11 36 35l32 50c7 11 17 14 30 14h39c23 0 19 -14 6 -33z" />
    <glyph glyph-name="uni0327" unicode="&#x327;" 
d="M-127 -30c54 13 107 -16 107 -72c0 -58 -56 -81 -115 -81c-40 0 -70 7 -97 15c-10 3 -15 13 -15 23v29c0 14 11 17 28 10c73 -32 128 -15 128 8c0 11 -6 20 -32 20c-12 0 -28 0 -48 -7c-15 -5 -24 -8 -33 -2l-11 7c-11 7 -12 17 -2 29l71 85c8 9 19 13 28 8l23 -13
c11 -6 9 -11 -2 -24z" />
    <glyph glyph-name="uni0328" unicode="&#x328;" 
d="M-30 -104c8 -8 8 -18 -3 -31c-20 -23 -52 -46 -97 -46c-48 0 -89 28 -89 89c0 52 33 96 112 149l72 -17c-64 -52 -103 -88 -103 -125c0 -20 13 -28 25 -28c16 0 25 12 35 22c12 12 23 11 33 1z" />
    <glyph glyph-name="endash" unicode="&#x2013;" horiz-adv-x="613" 
d="M532 350c20 0 32 -12 32 -25v-20c0 -13 -12 -25 -32 -25h-467c-13 0 -25 12 -25 25v20c0 13 12 25 25 25h467z" />
    <glyph glyph-name="emdash" unicode="&#x2014;" horiz-adv-x="737" 
d="M650 350c20 0 32 -12 32 -25v-20c0 -13 -12 -25 -32 -25h-578c-20 0 -32 12 -32 25v20c0 13 12 25 32 25h578z" />
    <glyph glyph-name="quoteleft" unicode="&#x2018;" horiz-adv-x="190" 
d="M132 724c18 0 23 -12 21 -27l-29 -206c-2 -12 -13 -23 -32 -23h-28c-14 0 -26 12 -24 27l32 206c2 12 13 23 32 23h28z" />
    <glyph glyph-name="quoteright" unicode="&#x2019;" horiz-adv-x="190" 
d="M132 724c18 0 23 -12 21 -27l-29 -206c-2 -12 -13 -23 -32 -23h-28c-14 0 -26 12 -24 27l32 206c2 12 13 23 32 23h28z" />
    <glyph glyph-name="quotesinglbase" unicode="&#x201a;" horiz-adv-x="600" 
d="M160 141c18 0 23 -12 21 -27l-27 -198c-2 -12 -13 -23 -32 -23h-28c-14 0 -26 12 -24 27l30 198c2 12 13 23 32 23h28z" />
    <glyph glyph-name="quotedblleft" unicode="&#x201c;" horiz-adv-x="318" 
d="M132 724c18 0 23 -12 21 -27l-29 -206c-2 -12 -13 -23 -32 -23h-28c-14 0 -26 12 -24 27l32 206c2 12 13 23 32 23h28zM258 724c18 0 23 -12 21 -27l-29 -206c-2 -12 -13 -23 -32 -23h-28c-14 0 -26 12 -24 27l32 206c2 12 13 23 32 23h28z" />
    <glyph glyph-name="quotedblright" unicode="&#x201d;" horiz-adv-x="318" 
d="M132 724c18 0 23 -12 21 -27l-29 -206c-1 -12 -13 -23 -32 -23h-28c-14 0 -26 12 -24 27l32 206c1 12 13 23 32 23h28zM258 724c18 0 23 -12 21 -27l-29 -206c-1 -12 -13 -23 -32 -23h-28c-14 0 -26 12 -24 27l32 206c1 12 13 23 32 23h28z" />
    <glyph glyph-name="quotedblbase" unicode="&#x201e;" horiz-adv-x="600" 
d="M160 141c18 0 23 -12 21 -27l-27 -198c-2 -12 -13 -23 -32 -23h-28c-14 0 -26 12 -24 27l30 198c2 12 13 23 32 23h28z" />
    <glyph glyph-name="dagger" unicode="&#x2020;" horiz-adv-x="501" 
d="M427 507c20 0 32 -12 32 -25v-22c0 -11 -12 -23 -32 -23h-139v-544c0 -13 -12 -25 -32 -25h-21c-20 0 -29 12 -29 25v544h-139c-20 0 -32 12 -32 23v22c0 13 12 25 32 25h139v204c0 13 9 25 29 25h21c20 0 32 -12 32 -25v-204h139z" />
    <glyph glyph-name="daggerdbl" unicode="&#x2021;" horiz-adv-x="501" 
d="M288 437v-270h139c20 0 32 -12 32 -25v-22c0 -11 -12 -23 -32 -23h-139v-204c0 -13 -12 -25 -32 -25h-21c-20 0 -29 12 -29 25v204h-139c-20 0 -32 12 -32 23v22c0 13 12 25 32 25h139v270h-139c-20 0 -32 12 -32 23v22c0 13 12 25 32 25h139v204c0 13 9 25 29 25h21
c20 0 32 -12 32 -25v-204h139c20 0 32 -12 32 -25v-22c0 -11 -12 -23 -32 -23h-139z" />
    <glyph glyph-name="ellipsis" unicode="&#x2026;" horiz-adv-x="757" 
d="M148 148c16 0 26 -12 26 -25v-98c0 -13 -10 -25 -26 -25h-30c-20 0 -28 12 -28 25v98c0 13 8 25 28 25h30zM395 148c16 0 26 -12 26 -25v-98c0 -13 -10 -25 -26 -25h-30c-20 0 -28 12 -28 25v98c0 13 8 25 28 25h30zM641 148c16 0 26 -12 26 -25v-98
c0 -13 -10 -25 -26 -25h-30c-20 0 -28 12 -28 25v98c0 13 8 25 28 25h30z" />
    <glyph glyph-name="Euro" unicode="&#x20ac;" horiz-adv-x="656" 
d="M571 231c14 0 24 -10 22 -25c-14 -131 -109 -222 -252 -222c-215 0 -295 213 -295 384s80 385 295 385c143 0 237 -99 251 -230c2 -15 -8 -25 -22 -25h-36c-20 0 -25 12 -27 25c-15 88 -69 156 -166 156c-98 0 -169 -72 -197 -191h232c20 0 30 -12 30 -25v-20
c0 -13 -10 -25 -30 -25h-244c-1 -16 -2 -33 -2 -50c0 -21 1 -41 2 -60h244c20 0 30 -12 30 -25v-20c0 -13 -10 -25 -30 -25h-231c29 -113 101 -180 196 -180c97 0 152 61 167 148c2 13 7 25 27 25h36z" />
    <glyph glyph-name="trademark" unicode="&#x2122;" horiz-adv-x="1245" 
d="M440 736c20 0 28 -12 28 -25v-20c0 -13 -8 -25 -28 -25h-166v-641c0 -13 -10 -25 -30 -25h-22c-20 0 -30 12 -30 25v641h-161c-20 0 -27 12 -27 25v20c0 13 7 25 27 25h409zM1106 736c41 0 76 -28 76 -102v-609c0 -13 -11 -25 -31 -25h-23c-16 0 -28 12 -28 25v577
c0 23 -1 33 -5 35c-5 2 -9 -22 -14 -39l-123 -509c-20 -64 -48 -89 -94 -89s-73 25 -93 89l-144 508c-6 20 -9 42 -14 40c-4 -2 -5 -9 -5 -32v-580c0 -13 -12 -25 -28 -25h-23c-20 0 -31 12 -31 25v609c0 74 35 102 76 102c34 0 73 -25 88 -77l156 -544c6 -19 12 -35 18 -35
c7 0 12 16 18 35l135 543c13 52 55 78 89 78z" />
    <glyph glyph-name="fi" unicode="&#xfb01;" horiz-adv-x="461" 
d="M204 662c-36 0 -44 -12 -44 -61v-65h62c20 0 32 -12 32 -25v-20c0 -13 -12 -24 -32 -24h-62v-442c0 -13 -10 -25 -25 -25h-25c-20 0 -32 12 -32 25v442h-42c-20 0 -31 11 -31 24v20c0 13 11 25 31 25h42v81c0 64 28 117 105 119h40c20 0 32 -12 32 -25v-24
c0 -13 -12 -25 -32 -25h-19zM372 736c20 0 27 -12 27 -25v-89c0 -9 -7 -20 -27 -20h-28c-20 0 -27 11 -27 20v89c0 13 7 25 27 25h28zM372 536c20 0 27 -12 27 -25v-491c0 -9 -7 -20 -27 -20h-27c-20 0 -28 11 -28 20v491c0 13 8 25 28 25h27z" />
    <glyph glyph-name="fl" unicode="&#xfb02;" horiz-adv-x="477" 
d="M204 662c-36 0 -44 -12 -44 -61v-65h62c20 0 32 -12 32 -25v-20c0 -13 -12 -24 -32 -24h-62v-442c0 -13 -10 -25 -25 -25h-25c-20 0 -32 12 -32 25v442h-42c-20 0 -31 11 -31 24v20c0 13 11 25 31 25h42v81c0 64 28 117 105 119h40c20 0 32 -12 32 -25v-24
c0 -13 -12 -25 -32 -25h-19zM380 736c20 0 27 -12 27 -25v-691c0 -9 -7 -20 -27 -20h-28c-20 0 -27 11 -27 20v691c0 13 7 25 27 25h28z" />
    <glyph glyph-name="NULL" 
 />
    <glyph glyph-name="CR" horiz-adv-x="230" 
 />
    <glyph glyph-name="breve.001" horiz-adv-x="138" 
d="M72 601c-69 0 -111 42 -119 119c0 7 7 13 16 13h18c1 0 15 -7 21 -13c10 -45 32 -72 64 -72c30 0 50 25 59 72c6 6 14 13 21 13h20c14 0 21 -6 21 -13c-10 -77 -57 -119 -121 -119z" />
    <glyph glyph-name="_0002" 
 />
    <glyph glyph-name="dotlessi.001" horiz-adv-x="212" 
d="M124 536c20 0 27 -12 27 -25v-491c0 -9 -7 -20 -27 -20h-27c-20 0 -27 11 -27 20v491c0 13 7 25 27 25h27z" />
    </font>
</defs>
</svg>
