<?xml version="1.0" encoding="utf-8"?>
<svg
  version="1.1"
  xmlns="http://www.w3.org/2000/svg"
  xmlns:xlink="http://www.w3.org/1999/xlink" viewBox="0 0 1920 1080"
  preserveAspectRatio="xMidYMid meet"
>
  <style type="text/css">
    .st0 {
      fill: #010101;
    }
    .st1 {
      clip-path: url(#XMLID_52_);
      fill: #010101;
    }
    .st2 {
      clip-path: url(#XMLID_53_);
      fill: #010101;
    }
    .st3 {
      clip-path: url(#XMLID_54_);
      fill: #010101;
    }
    .st4 {
      clip-path: url(#XMLID_56_);
      fill: #010101;
    }
    .st5 {
      clip-path: url(#XMLID_57_);
      fill: #010101;
    }
    .st6 {
      clip-path: url(#XMLID_58_);
      fill: #010101;
    }
    .st7 {
      clip-path: url(#XMLID_60_);
      fill: #010101;
    }
    .st8 {
      clip-path: url(#XMLID_61_);
      fill: #010101;
    }
    .st9 {
      clip-path: url(#XMLID_62_);
      fill: #010101;
    }
    .st10 {
      clip-path: url(#XMLID_64_);
      fill: #010101;
    }
    .st11 {
      clip-path: url(#XMLID_65_);
      fill: #010101;
    }
    .st12 {
      clip-path: url(#XMLID_66_);
      fill: #010101;
    }
    .st13 {
      clip-path: url(#XMLID_68_);
      fill: #010101;
    }
    .st14 {
      clip-path: url(#XMLID_69_);
      fill: #010101;
    }
    .st15 {
      clip-path: url(#XMLID_70_);
      fill: #010101;
    }
    .st16 {
      clip-path: url(#XMLID_72_);
      fill: #010101;
    }
    .st17 {
      fill:none;
      stroke: #010101;
    }
    .st18 {
      fill: #F6F6F6;
    }
  </style>
  <symbol id="shape_1">
  <g id="XMLID_50_" transform="scale(4)">
    <polygon
      id="XMLID_48_"
      class="st0"
      points="9.938,9.989 18.887,11.052 18.887,8.926 	"
    />
    <g id="XMLID_111_">
      <defs>
        <rect
          id="XMLID_46_"
          x="-69.789"
          y="-17.449"
          width="111.691"
          height="78.973"
        />
      </defs>
      <clipPath id="XMLID_52_">
        <use xlink:href="#XMLID_46_" style="overflow: visible" />
      </clipPath>
      <path
        id="XMLID_47_"
        class="st1"
        d="M18.029,9.989c0,0.587,0.366,1.063,0.818,1.063c0.451,0,0.818-0.476,0.818-1.063
			c0-0.587-0.366-1.063-0.818-1.063C18.395,8.926,18.029,9.402,18.029,9.989"
      />
    </g>
    <polygon
      id="XMLID_45_"
      class="st0"
      points="9.938,9.989 0.989,11.052 0.989,8.926 	"
    />
    <g id="XMLID_107_">
      <defs>
        <rect
          id="XMLID_43_"
          x="-69.789"
          y="-17.449"
          width="111.691"
          height="78.973"
        />
      </defs>
      <clipPath id="XMLID_53_">
        <use xlink:href="#XMLID_43_" style="overflow: visible" />
      </clipPath>
      <path
        id="XMLID_44_"
        class="st2"
        d="M1.847,9.989c0,0.587-0.366,1.063-0.818,1.063c-0.451,0-0.818-0.476-0.818-1.063
			c0-0.587,0.366-1.063,0.818-1.063C1.481,8.926,1.847,9.402,1.847,9.989"
      />
    </g>
    <polygon
      id="XMLID_42_"
      class="st0"
      points="9.938,9.989 11.001,1.04 8.875,1.04 	"
    />
    <g id="XMLID_103_">
      <defs>
        <rect
          id="XMLID_40_"
          x="-69.789"
          y="-17.449"
          width="111.691"
          height="78.973"
        />
      </defs>
      <clipPath id="XMLID_54_">
        <use xlink:href="#XMLID_40_" style="overflow: visible" />
      </clipPath>
      <path
        id="XMLID_41_"
        class="st3"
        d="M9.938,1.898c0.587,0,1.063-0.366,1.063-0.818c0-0.451-0.476-0.818-1.063-0.818
			c-0.587,0-1.063,0.366-1.063,0.818C8.875,1.532,9.351,1.898,9.938,1.898"
      />
    </g>
    <polygon
      id="XMLID_39_"
      class="st0"
      points="9.938,9.989 17.017,4.413 15.514,2.91 	"
    />
    <g id="XMLID_99_">
      <defs>
        <rect
          id="XMLID_37_"
          x="-69.789"
          y="-17.449"
          width="111.691"
          height="78.973"
        />
      </defs>
      <clipPath id="XMLID_56_">
        <use xlink:href="#XMLID_37_" style="overflow: visible" />
      </clipPath>
      <path
        id="XMLID_38_"
        class="st4"
        d="M15.659,4.268c0.415,0.415,1.01,0.493,1.329,0.173c0.32-0.32,0.242-0.914-0.173-1.33
			c-0.415-0.415-1.01-0.493-1.33-0.174C15.166,3.258,15.244,3.853,15.659,4.268"
      />
    </g>
    <polygon
      id="XMLID_36_"
      class="st0"
      points="9.938,9.989 2.859,4.413 4.362,2.91 	"
    />
    <g id="XMLID_95_">
      <defs>
        <rect
          id="XMLID_34_"
          x="-69.789"
          y="-17.449"
          width="111.691"
          height="78.973"
        />
      </defs>
      <clipPath id="XMLID_57_">
        <use xlink:href="#XMLID_34_" style="overflow: visible" />
      </clipPath>
      <path
        id="XMLID_35_"
        class="st5"
        d="M4.217,4.268c-0.415,0.415-1.01,0.493-1.329,0.173c-0.32-0.32-0.242-0.914,0.173-1.33
			c0.415-0.415,1.01-0.493,1.33-0.174C4.71,3.258,4.632,3.853,4.217,4.268"
      />
    </g>
    <polygon
      id="XMLID_33_"
      class="st0"
      points="9.933,9.994 5.526,2.134 7.49,1.32 	"
    />
    <g id="XMLID_91_">
      <defs>
        <rect
          id="XMLID_31_"
          x="-69.789"
          y="-17.449"
          width="111.691"
          height="78.973"
        />
      </defs>
      <clipPath id="XMLID_58_">
        <use xlink:href="#XMLID_31_" style="overflow: visible" />
      </clipPath>
      <path
        id="XMLID_32_"
        class="st6"
        d="M6.837,2.52C6.294,2.744,5.714,2.588,5.542,2.171C5.369,1.754,5.668,1.233,6.211,1.008
			C6.753,0.784,7.333,0.94,7.506,1.357C7.679,1.774,7.379,2.295,6.837,2.52"
      />
    </g>
    <polygon
      id="XMLID_30_"
      class="st0"
      points="9.933,9.995 14.339,2.134 12.375,1.32 	"
    />
    <g id="XMLID_87_">
      <defs>
        <rect
          id="XMLID_28_"
          x="-69.789"
          y="-17.449"
          width="111.691"
          height="78.973"
        />
      </defs>
      <clipPath id="XMLID_60_">
        <use xlink:href="#XMLID_28_" style="overflow: visible" />
      </clipPath>
      <path
        id="XMLID_29_"
        class="st7"
        d="M13.029,2.52c0.542,0.225,1.122,0.068,1.295-0.349c0.173-0.417-0.127-0.937-0.669-1.162
			c-0.542-0.224-1.122-0.068-1.295,0.349C12.187,1.774,12.487,2.295,13.029,2.52"
      />
    </g>
    <polygon
      id="XMLID_27_"
      class="st0"
      points="9.938,9.989 18.612,7.547 17.799,5.582 	"
    />
    <g id="XMLID_83_">
      <defs>
        <rect
          id="XMLID_25_"
          x="-69.789"
          y="-17.449"
          width="111.691"
          height="78.973"
        />
      </defs>
      <clipPath id="XMLID_61_">
        <use xlink:href="#XMLID_25_" style="overflow: visible" />
      </clipPath>
      <path
        id="XMLID_26_"
        class="st8"
        d="M17.413,6.893c0.224,0.542,0.745,0.842,1.162,0.669c0.417-0.173,0.573-0.753,0.349-1.295
			c-0.225-0.542-0.745-0.842-1.162-0.669C17.344,5.771,17.188,6.35,17.413,6.893"
      />
    </g>
    <polygon
      id="XMLID_24_"
      class="st0"
      points="9.938,9.989 1.263,7.547 2.077,5.582 	"
    />
    <g id="XMLID_79_">
      <defs>
        <rect
          id="XMLID_22_"
          x="-69.789"
          y="-17.449"
          width="111.691"
          height="78.973"
        />
      </defs>
      <clipPath id="XMLID_62_">
        <use xlink:href="#XMLID_22_" style="overflow: visible" />
      </clipPath>
      <path
        id="XMLID_23_"
        class="st9"
        d="M2.463,6.893C2.238,7.435,1.718,7.735,1.3,7.562C0.883,7.389,0.727,6.809,0.952,6.267
			c0.225-0.542,0.745-0.842,1.162-0.669C2.532,5.771,2.688,6.35,2.463,6.893"
      />
    </g>
    <polygon
      id="XMLID_21_"
      class="st0"
      points="9.938,10 11.001,18.949 8.875,18.949 	"
    />
    <g id="XMLID_75_">
      <defs>
        <rect
          id="XMLID_19_"
          x="-69.789"
          y="-17.449"
          width="111.691"
          height="78.973"
        />
      </defs>
      <clipPath id="XMLID_64_">
        <use xlink:href="#XMLID_19_" style="overflow: visible" />
      </clipPath>
      <path
        id="XMLID_20_"
        class="st10"
        d="M9.938,18.091c0.587,0,1.063,0.366,1.063,0.818c0,0.451-0.476,0.818-1.063,0.818
			c-0.587,0-1.063-0.366-1.063-0.818C8.875,18.457,9.351,18.091,9.938,18.091"
      />
    </g>
    <polygon
      id="XMLID_18_"
      class="st0"
      points="9.938,10 17.017,15.576 15.514,17.079 	"
    />
    <g id="XMLID_71_">
      <defs>
        <rect
          id="XMLID_16_"
          x="-69.789"
          y="-17.449"
          width="111.691"
          height="78.973"
        />
      </defs>
      <clipPath id="XMLID_65_">
        <use xlink:href="#XMLID_16_" style="overflow: visible" />
      </clipPath>
      <path
        id="XMLID_17_"
        class="st11"
        d="M15.659,15.721c0.415-0.415,1.01-0.493,1.329-0.173c0.32,0.32,0.242,0.914-0.173,1.33
			c-0.415,0.415-1.01,0.493-1.33,0.174C15.166,16.732,15.244,16.136,15.659,15.721"
      />
    </g>
    <polygon
      id="XMLID_15_"
      class="st0"
      points="9.938,10 2.859,15.576 4.362,17.079 	"
    />
    <g id="XMLID_67_">
      <defs>
        <rect
          id="XMLID_13_"
          x="-69.789"
          y="-17.449"
          width="111.691"
          height="78.973"
        />
      </defs>
      <clipPath id="XMLID_66_">
        <use xlink:href="#XMLID_13_" style="overflow: visible" />
      </clipPath>
      <path
        id="XMLID_14_"
        class="st12"
        d="M4.217,15.721c-0.415-0.415-1.01-0.493-1.329-0.173c-0.32,0.32-0.242,0.914,0.173,1.33
			c0.415,0.415,1.01,0.493,1.33,0.174C4.71,16.732,4.632,16.136,4.217,15.721"
      />
    </g>
    <polygon
      id="XMLID_12_"
      class="st0"
      points="9.933,9.995 5.526,17.855 7.49,18.669 	"
    />
    <g id="XMLID_63_">
      <defs>
        <rect
          id="XMLID_10_"
          x="-69.789"
          y="-17.449"
          width="111.691"
          height="78.973"
        />
      </defs>
      <clipPath id="XMLID_68_">
        <use xlink:href="#XMLID_10_" style="overflow: visible" />
      </clipPath>
      <path
        id="XMLID_11_"
        class="st13"
        d="M6.837,17.469c-0.542-0.225-1.122-0.068-1.295,0.349c-0.173,0.417,0.127,0.937,0.669,1.162
			c0.542,0.224,1.122,0.068,1.295-0.349C7.679,18.215,7.379,17.694,6.837,17.469"
      />
    </g>
    <polygon
      id="XMLID_9_"
      class="st0"
      points="9.933,9.994 14.339,17.855 12.375,18.669 	"
    />
    <g id="XMLID_59_">
      <defs>
        <rect
          id="XMLID_7_"
          x="-69.789"
          y="-17.449"
          width="111.691"
          height="78.973"
        />
      </defs>
      <clipPath id="XMLID_69_">
        <use xlink:href="#XMLID_7_" style="overflow: visible" />
      </clipPath>
      <path
        id="XMLID_8_"
        class="st14"
        d="M13.029,17.469c0.542-0.225,1.122-0.068,1.295,0.349c0.173,0.417-0.127,0.937-0.669,1.162
			c-0.542,0.224-1.122,0.068-1.295-0.349C12.187,18.215,12.487,17.694,13.029,17.469"
      />
    </g>
    <polygon
      id="XMLID_6_"
      class="st0"
      points="9.938,10 18.612,12.443 17.799,14.407 	"
    />
    <g id="XMLID_55_">
      <defs>
        <rect
          id="XMLID_4_"
          x="-69.789"
          y="-17.449"
          width="111.691"
          height="78.973"
        />
      </defs>
      <clipPath id="XMLID_70_">
        <use xlink:href="#XMLID_4_" style="overflow: visible" />
      </clipPath>
      <path
        id="XMLID_5_"
        class="st15"
        d="M17.413,13.096c0.224-0.542,0.745-0.842,1.162-0.669c0.417,0.173,0.573,0.753,0.349,1.295
			c-0.225,0.542-0.745,0.842-1.162,0.669C17.344,14.219,17.188,13.639,17.413,13.096"
      />
    </g>
    <polygon
      id="XMLID_3_"
      class="st0"
      points="9.938,10 1.263,12.443 2.077,14.407 	"
    />
    <g id="XMLID_51_">
      <defs>
        <rect
          id="XMLID_1_"
          x="-69.789"
          y="-17.449"
          width="111.691"
          height="78.973"
        />
      </defs>
      <clipPath id="XMLID_72_">
        <use xlink:href="#XMLID_1_" style="overflow: visible" />
      </clipPath>
      <path
        id="XMLID_2_"
        class="st16"
        d="M2.463,13.096c-0.224-0.542-0.745-0.842-1.162-0.669C0.883,12.6,0.727,13.18,0.952,13.722
			c0.225,0.542,0.745,0.842,1.162,0.669C2.532,14.219,2.688,13.639,2.463,13.096"
      />
    </g>
  </g>
  </symbol>
  <symbol id="shape_2">
<path transform="scale(4)" id="XMLID_2_" class="st0" d="M10.262,0.483l0.723,7.404c0.017,0.176,0.203,0.283,0.364,0.21l6.791-3.077
	c0.285-0.129,0.512,0.263,0.258,0.445L12.33,9.79c-0.144,0.103-0.144,0.317,0,0.42l6.068,4.326c0.255,0.182,0.027,0.574-0.258,0.445
	l-6.791-3.077c-0.161-0.073-0.347,0.034-0.364,0.21l-0.723,7.404c-0.03,0.311-0.485,0.311-0.515,0l-0.723-7.404
	c-0.017-0.176-0.203-0.283-0.365-0.21l-6.791,3.077c-0.285,0.129-0.512-0.263-0.257-0.445l6.068-4.326
	c0.144-0.103,0.144-0.317,0-0.42L1.611,5.464C1.356,5.282,1.583,4.89,1.868,5.019l6.791,3.077c0.162,0.073,0.347-0.034,0.365-0.21
	l0.723-7.404C9.777,0.172,10.231,0.172,10.262,0.483"/>
  </symbol>
  <symbol id="shape_3">
  <path transform="scale(4)" id="XMLID_1_" class="st0" d="M10.23,0.478l0.088,2.377c0.01,0.28,0.404,0.312,0.457,0.037l0.45-2.334
	c0.057-0.298,0.49-0.227,0.455,0.074l-0.276,2.362c-0.032,0.279,0.351,0.373,0.445,0.11l0.8-2.233
	c0.102-0.285,0.519-0.146,0.438,0.146l-0.632,2.289c-0.075,0.27,0.29,0.425,0.423,0.18l1.131-2.077
	c0.144-0.265,0.535-0.061,0.411,0.214l-0.974,2.159c-0.115,0.255,0.221,0.466,0.39,0.245l1.434-1.87
	c0.183-0.239,0.538,0.026,0.373,0.278l-1.291,1.977C14.2,4.645,14.5,4.907,14.7,4.717l1.701-1.617
	c0.217-0.206,0.527,0.112,0.326,0.334l-1.577,1.745c-0.186,0.206,0.07,0.513,0.297,0.357l1.927-1.324
	c0.246-0.169,0.503,0.195,0.271,0.382l-1.823,1.471c-0.215,0.173-0.009,0.518,0.239,0.401l2.105-0.999
	c0.269-0.127,0.468,0.273,0.209,0.421l-2.025,1.16c-0.239,0.137-0.088,0.511,0.175,0.434l2.232-0.649
	c0.285-0.083,0.42,0.345,0.142,0.449l-2.177,0.821C16.467,8.2,16.559,8.593,16.83,8.56l2.303-0.283
	c0.294-0.036,0.362,0.408,0.072,0.467L16.93,9.205c-0.268,0.054-0.237,0.458,0.036,0.468l2.318,0.09
	c0.296,0.012,0.296,0.461,0,0.473l-2.318,0.09c-0.273,0.011-0.304,0.414-0.036,0.468l2.275,0.461
	c0.29,0.059,0.222,0.503-0.072,0.467L16.83,11.44c-0.272-0.033-0.364,0.36-0.107,0.457l2.177,0.821
	c0.278,0.105,0.142,0.532-0.142,0.449l-2.232-0.649c-0.263-0.076-0.414,0.297-0.175,0.434l2.025,1.16
	c0.258,0.148,0.059,0.549-0.209,0.421l-2.105-0.999c-0.248-0.118-0.454,0.227-0.239,0.401l1.823,1.47
	c0.233,0.188-0.025,0.551-0.271,0.382l-1.927-1.324c-0.227-0.156-0.483,0.151-0.297,0.357l1.577,1.745
	c0.201,0.223-0.109,0.541-0.326,0.334L14.7,15.283c-0.201-0.191-0.501,0.072-0.348,0.305l1.291,1.977
	c0.165,0.252-0.19,0.516-0.373,0.278l-1.434-1.87c-0.169-0.221-0.505-0.009-0.39,0.245l0.974,2.159
	c0.124,0.275-0.266,0.48-0.411,0.214l-1.131-2.077c-0.133-0.245-0.498-0.09-0.423,0.18l0.632,2.289
	c0.081,0.292-0.336,0.431-0.438,0.146l-0.8-2.233c-0.094-0.263-0.478-0.169-0.445,0.11l0.276,2.362
	c0.035,0.301-0.398,0.372-0.455,0.074l-0.45-2.334c-0.053-0.275-0.446-0.244-0.457,0.037l-0.088,2.377
	c-0.011,0.303-0.449,0.303-0.461,0l-0.088-2.377c-0.01-0.28-0.404-0.312-0.456-0.037l-0.45,2.334
	c-0.057,0.298-0.49,0.227-0.455-0.074l0.276-2.362c0.032-0.279-0.351-0.373-0.445-0.11l-0.8,2.233
	c-0.102,0.285-0.519,0.146-0.438-0.146l0.632-2.289c0.075-0.27-0.29-0.425-0.423-0.18l-1.131,2.077
	c-0.144,0.265-0.535,0.061-0.411-0.214l0.974-2.159c0.115-0.255-0.221-0.466-0.39-0.245l-1.434,1.87
	c-0.183,0.239-0.538-0.026-0.373-0.278l1.291-1.977C5.8,15.355,5.5,15.093,5.3,15.283l-1.701,1.617
	c-0.217,0.206-0.527-0.112-0.326-0.334l1.577-1.745c0.186-0.206-0.07-0.513-0.297-0.357l-1.927,1.324
	c-0.246,0.169-0.503-0.195-0.271-0.382l1.823-1.47c0.215-0.173,0.009-0.518-0.239-0.401l-2.105,0.999
	c-0.269,0.127-0.468-0.273-0.209-0.421l2.025-1.16c0.239-0.137,0.088-0.511-0.175-0.434l-2.232,0.649
	c-0.285,0.083-0.42-0.345-0.142-0.449l2.177-0.821c0.257-0.097,0.165-0.49-0.107-0.457l-2.303,0.283
	c-0.294,0.036-0.362-0.408-0.072-0.467l2.275-0.461c0.268-0.054,0.237-0.458-0.036-0.468l-2.318-0.09
	c-0.296-0.012-0.296-0.461,0-0.473l2.318-0.09C3.307,9.663,3.338,9.259,3.07,9.205L0.795,8.744c-0.29-0.059-0.222-0.503,0.072-0.467
	L3.17,8.56C3.441,8.593,3.533,8.2,3.277,8.103L1.1,7.282C0.822,7.177,0.957,6.75,1.242,6.833l2.232,0.649
	c0.263,0.076,0.414-0.297,0.175-0.434l-2.025-1.16C1.365,5.739,1.564,5.339,1.833,5.466l2.105,0.999
	c0.248,0.118,0.454-0.227,0.239-0.401L2.354,4.594C2.121,4.406,2.379,4.043,2.625,4.212l1.927,1.324
	c0.227,0.156,0.483-0.151,0.297-0.357L3.273,3.434C3.071,3.211,3.381,2.893,3.598,3.099L5.3,4.717C5.5,4.907,5.8,4.645,5.648,4.412
	L4.357,2.435C4.192,2.183,4.547,1.919,4.73,2.157l1.434,1.87c0.169,0.221,0.505,0.009,0.39-0.245L5.58,1.623
	C5.456,1.347,5.846,1.143,5.991,1.408l1.131,2.077c0.133,0.245,0.498,0.09,0.423-0.18L6.912,1.017
	C6.831,0.724,7.248,0.586,7.35,0.871l0.8,2.233c0.094,0.263,0.478,0.169,0.445-0.11L8.32,0.632C8.285,0.33,8.718,0.26,8.775,0.558
	l0.45,2.334c0.053,0.275,0.446,0.244,0.456-0.037L9.77,0.478C9.781,0.174,10.219,0.174,10.23,0.478"/>
    </symbol>
    <symbol id="shape_4">
    <path transform="scale(4)" id="XMLID_1_" class="st0" d="M10.289,0.511l0.353,3.666c0.029,0.297,0.436,0.361,0.555,0.087l1.475-3.377
	c0.14-0.321,0.626-0.164,0.55,0.178l-0.802,3.595c-0.065,0.291,0.302,0.477,0.501,0.254l2.451-2.759
	c0.233-0.262,0.646,0.036,0.467,0.338L13.96,5.665c-0.152,0.257,0.139,0.547,0.397,0.396l3.188-1.87
	c0.303-0.178,0.603,0.233,0.34,0.465l-2.772,2.439c-0.225,0.198-0.038,0.563,0.255,0.498l3.613-0.798
	c0.343-0.076,0.501,0.407,0.179,0.547l-3.394,1.467c-0.275,0.119-0.21,0.524,0.088,0.552l3.684,0.352c0.35,0.034,0.35,0.542,0,0.575
	l-3.684,0.352c-0.298,0.028-0.363,0.433-0.088,0.552l3.394,1.467c0.323,0.139,0.165,0.623-0.179,0.547l-3.613-0.798
	c-0.293-0.065-0.48,0.301-0.255,0.498l2.772,2.439c0.263,0.232-0.037,0.643-0.34,0.465l-3.188-1.87
	c-0.258-0.151-0.55,0.139-0.397,0.396l1.879,3.172c0.179,0.301-0.235,0.6-0.467,0.338l-2.451-2.759
	c-0.199-0.223-0.566-0.037-0.501,0.254l0.802,3.595c0.076,0.342-0.409,0.499-0.55,0.178l-1.475-3.377
	c-0.119-0.274-0.527-0.209-0.555,0.087l-0.353,3.665c-0.034,0.348-0.544,0.348-0.578,0l-0.353-3.665
	c-0.029-0.297-0.436-0.361-0.555-0.087l-1.475,3.377c-0.14,0.321-0.626,0.164-0.55-0.178l0.802-3.595
	c0.065-0.291-0.302-0.477-0.501-0.254l-2.451,2.759c-0.233,0.262-0.646-0.036-0.467-0.338l1.879-3.172
	c0.152-0.257-0.139-0.547-0.397-0.396l-3.188,1.87c-0.303,0.178-0.603-0.233-0.34-0.465l2.772-2.439
	c0.225-0.198,0.038-0.563-0.255-0.498L1.02,13.206c-0.343,0.076-0.501-0.407-0.179-0.547l3.394-1.467
	c0.275-0.119,0.21-0.524-0.088-0.552l-3.684-0.352c-0.35-0.034-0.35-0.542,0-0.575l3.684-0.352c0.298-0.028,0.363-0.433,0.088-0.552
	L0.841,7.341C0.519,7.202,0.677,6.719,1.02,6.794l3.613,0.798c0.293,0.065,0.48-0.301,0.255-0.498L2.115,4.655
	C1.852,4.423,2.152,4.012,2.455,4.19l3.188,1.87c0.258,0.151,0.55-0.139,0.397-0.396L4.161,2.492
	c-0.179-0.301,0.235-0.6,0.467-0.338L7.08,4.913c0.199,0.223,0.566,0.037,0.501-0.254L6.778,1.065
	c-0.076-0.342,0.409-0.499,0.55-0.178l1.475,3.377c0.119,0.274,0.526,0.209,0.555-0.087l0.353-3.666
	C9.745,0.163,10.255,0.163,10.289,0.511"/>
    </symbol>
    <symbol id="shape_5">
    <path transform="scale(4)" id="XMLID_1_" class="st0" d="M11.47,1.223L11.47,1.223c0.216,1.166,1.639,1.629,2.499,0.812
	c1.203-1.141,3.093,0.232,2.379,1.728c-0.511,1.07,0.369,2.281,1.545,2.126h0c1.644-0.216,2.366,2.005,0.909,2.797
	c-1.042,0.566-1.042,2.062,0,2.628c1.457,0.791,0.735,3.013-0.909,2.797h0c-1.176-0.155-2.055,1.056-1.545,2.126
	c0.714,1.496-1.176,2.87-2.379,1.728c-0.86-0.817-2.283-0.354-2.499,0.812c-0.302,1.63-2.638,1.63-2.941,0
	c-0.216-1.166-1.639-1.629-2.499-0.812c-1.203,1.141-3.093-0.232-2.379-1.728c0.511-1.071-0.369-2.281-1.545-2.126
	c-1.644,0.216-2.366-2.005-0.909-2.797c1.042-0.566,1.042-2.062,0-2.628c-1.457-0.791-0.735-3.013,0.909-2.797
	c1.176,0.155,2.055-1.056,1.545-2.126C2.938,2.267,4.828,0.894,6.03,2.035c0.86,0.817,2.283,0.354,2.499-0.812
	C8.832-0.408,11.168-0.408,11.47,1.223"/>
    </symbol>
    <symbol id="shape_6">
    <g id="XMLID_7_" transform="scale(4)">
	<path class="st0" d="M15.719,4.281C15.408,3.8,15.042,3.344,14.62,2.923c-3.23-3.23-8.468-3.23-11.698,0
		c-3.23,3.23-3.23,8.467,0,11.698c0.421,0.421,0.877,0.787,1.358,1.099C2.205,12.514,2.571,8.188,5.38,5.38
		C8.188,2.571,12.515,2.205,15.719,4.281 M17.077,17.077c3.23-3.23,3.23-8.468,0-11.698c-0.421-0.421-0.877-0.787-1.358-1.099
		c2.076,3.205,1.71,7.531-1.099,10.34c-2.809,2.809-7.135,3.175-10.34,1.099c0.311,0.481,0.678,0.937,1.099,1.358
		C8.61,20.307,13.847,20.308,17.077,17.077"/>
	<path class="st0" d="M12.841,7.159c-0.155-0.239-0.337-0.465-0.546-0.675c-1.604-1.604-4.206-1.605-5.811,0
		c-1.604,1.604-1.604,4.206,0,5.811c0.209,0.209,0.436,0.391,0.675,0.546C6.128,11.249,6.31,9.1,7.705,7.705
		C9.1,6.31,11.249,6.128,12.841,7.159 M13.515,13.515c1.605-1.605,1.604-4.206,0-5.811c-0.209-0.209-0.436-0.391-0.675-0.546
		c1.031,1.592,0.849,3.741-0.546,5.136c-1.395,1.395-3.544,1.577-5.136,0.546c0.155,0.239,0.337,0.465,0.546,0.675
		C9.309,15.12,11.911,15.12,13.515,13.515"/>
	<path class="st0" d="M11.172,8.828c-0.068-0.102-0.147-0.199-0.237-0.29c-0.692-0.692-1.79-0.717-2.452-0.055
		c-0.662,0.662-0.637,1.76,0.055,2.452c0.09,0.09,0.188,0.169,0.29,0.237C8.378,10.49,8.434,9.586,9.01,9.01
		C9.585,8.435,10.49,8.378,11.172,8.828 M11.516,11.516c0.662-0.662,0.637-1.76-0.055-2.452c-0.09-0.09-0.188-0.169-0.29-0.237
		c0.45,0.681,0.393,1.586-0.182,2.162c-0.576,0.576-1.48,0.632-2.162,0.182c0.067,0.102,0.146,0.199,0.237,0.29
		C9.757,12.154,10.854,12.178,11.516,11.516"/>
</g>
    </symbol>
    <symbol id="shape_7">
    <polygon transform="scale(4)" id="XMLID_18_" class="st0" points="10,14.416 11.084,5.293 8.916,5.293 "/>
<path transform="scale(4)" id="XMLID_17_" class="st0" d="M10,6.167c0.599,0,1.084-0.373,1.084-0.834C11.084,4.873,10.599,4.5,10,4.5
	c-0.599,0-1.084,0.373-1.084,0.834C8.916,5.794,9.402,6.167,10,6.167"/>
<polygon transform="scale(4)" id="XMLID_16_" class="st0" points="10,14.416 19.124,15.5 19.124,13.333 "/>
<path transform="scale(4)" id="XMLID_15_" class="st0" d="M18.249,14.416c0,0.599,0.373,1.084,0.834,1.084c0.461,0,0.834-0.485,0.834-1.084
	c0-0.599-0.373-1.084-0.834-1.084C18.622,13.333,18.249,13.818,18.249,14.416"/>
<polygon transform="scale(4)" id="XMLID_14_" class="st0" points="10,14.416 0.877,15.5 0.877,13.333 "/>
<path transform="scale(4)" id="XMLID_13_" class="st0" d="M1.751,14.416c0,0.599-0.373,1.084-0.834,1.084c-0.461,0-0.834-0.485-0.834-1.084
	c0-0.599,0.373-1.084,0.834-1.084C1.378,13.333,1.751,13.818,1.751,14.416"/>
<polygon transform="scale(4)" id="XMLID_12_" class="st0" points="10,14.416 17.218,8.731 15.685,7.198 "/>
<path transform="scale(4)" id="XMLID_11_" class="st0" d="M15.833,8.583c0.423,0.423,1.03,0.503,1.356,0.177c0.326-0.326,0.247-0.932-0.177-1.356
	c-0.423-0.423-1.03-0.502-1.356-0.177C15.331,7.553,15.41,8.16,15.833,8.583"/>
<polygon transform="scale(4)" id="XMLID_10_" class="st0" points="10,14.416 2.782,8.731 4.315,7.198 "/>
<path transform="scale(4)" id="XMLID_9_" class="st0" d="M4.167,8.583C3.743,9.006,3.137,9.086,2.811,8.76C2.486,8.435,2.565,7.828,2.988,7.404
	c0.423-0.423,1.03-0.502,1.356-0.177C4.669,7.553,4.59,8.16,4.167,8.583"/>
<polygon transform="scale(4)" id="XMLID_8_" class="st0" points="9.995,14.422 5.502,6.407 7.505,5.578 "/>
<path transform="scale(4)" id="XMLID_7_" class="st0" d="M6.838,6.8c-0.553,0.229-1.144,0.07-1.32-0.355C5.341,6.02,5.647,5.489,6.2,5.26
	c0.553-0.229,1.144-0.07,1.32,0.356C7.696,6.041,7.391,6.571,6.838,6.8"/>
<polygon transform="scale(4)" id="XMLID_6_" class="st0" points="9.995,14.422 14.488,6.407 12.485,5.578 "/>
<path transform="scale(4)" id="XMLID_5_" class="st0" d="M13.152,6.801c0.553,0.229,1.144,0.07,1.32-0.356c0.176-0.425-0.129-0.956-0.682-1.185
	c-0.553-0.229-1.144-0.07-1.32,0.356C12.293,6.041,12.599,6.572,13.152,6.801"/>
<polygon transform="scale(4)" id="XMLID_4_" class="st0" points="10,14.416 18.844,11.926 18.015,9.924 "/>
<path transform="scale(4)" id="XMLID_3_" class="st0" d="M17.621,11.26c0.229,0.553,0.76,0.858,1.185,0.682c0.425-0.176,0.584-0.767,0.355-1.32
	c-0.229-0.553-0.759-0.859-1.184-0.682C17.551,10.116,17.392,10.707,17.621,11.26"/>
<polygon transform="scale(4)" id="XMLID_2_" class="st0" points="10,14.416 1.156,11.926 1.985,9.924 "/>
<path transform="scale(4)" id="XMLID_1_" class="st0" d="M2.379,11.26c-0.229,0.553-0.76,0.858-1.185,0.682c-0.425-0.176-0.584-0.767-0.355-1.32
	c0.229-0.553,0.759-0.859,1.184-0.682C2.449,10.116,2.608,10.707,2.379,11.26"/>
    </symbol>
    <symbol id="shape_8">
<path transform="scale(4)" id="XMLID_45_" class="st0" d="M10,0.253c-5.385,0-9.75,4.365-9.75,9.75c0,5.385,4.365,9.75,9.75,9.75s9.75-4.365,9.75-9.75
	C19.75,4.618,15.385,0.253,10,0.253z M1.942,11.03c-0.568,0-1.028-0.46-1.028-1.028c0-0.568,0.46-1.028,1.028-1.028
	c0.567,0,1.028,0.46,1.028,1.028C2.97,10.57,2.509,11.03,1.942,11.03z M13.369,5.421c0.335-0.335,0.877-0.335,1.212,0
	c0.334,0.334,0.334,0.877-0.001,1.211c-0.334,0.333-0.877,0.334-1.211,0C13.035,6.297,13.035,5.755,13.369,5.421z M15.622,9.146
	c0.474,0,0.857,0.384,0.857,0.857s-0.383,0.857-0.857,0.857c-0.472,0-0.856-0.383-0.856-0.857S15.15,9.146,15.622,9.146z
	 M14.215,10.002c0,0.394-0.32,0.714-0.714,0.714c-0.394,0-0.714-0.32-0.714-0.714c0-0.394,0.32-0.714,0.714-0.714
	C13.895,9.288,14.215,9.608,14.215,10.002z M11.972,7.021c0.278-0.278,0.73-0.279,1.009,0c0.279,0.279,0.279,0.732,0.001,1.01
	c-0.279,0.279-0.731,0.279-1.01,0C11.692,7.752,11.693,7.3,11.972,7.021z M12.237,10.002c0,0.329-0.266,0.595-0.595,0.595
	c-0.329,0-0.595-0.266-0.595-0.595s0.266-0.595,0.595-0.595C11.97,9.407,12.237,9.674,12.237,10.002z M11.581,8.421
	c0.233,0.233,0.233,0.609,0,0.841s-0.609,0.233-0.841,0c-0.232-0.232-0.233-0.609,0-0.841S11.349,8.189,11.581,8.421z M10,14.218
	c-0.394,0-0.714-0.32-0.714-0.714c0-0.394,0.32-0.714,0.714-0.714s0.714,0.32,0.714,0.714C10.714,13.898,10.394,14.218,10,14.218z
	 M10.857,15.625c0,0.474-0.383,0.857-0.857,0.857s-0.857-0.383-0.857-0.857c0-0.472,0.384-0.856,0.857-0.856
	S10.857,15.153,10.857,15.625z M10,12.239c-0.329,0-0.595-0.266-0.595-0.595S9.671,11.049,10,11.049s0.595,0.266,0.595,0.595
	S10.329,12.239,10,12.239z M10,8.956c-0.329,0-0.595-0.266-0.595-0.595c0,0,0,0,0,0s0,0,0,0c0-0.329,0.266-0.595,0.595-0.595
	s0.595,0.266,0.595,0.595c0,0,0,0,0,0s0,0,0,0C10.595,8.69,10.329,8.956,10,8.956z M9.143,4.379c0-0.473,0.384-0.856,0.857-0.856
	s0.857,0.383,0.857,0.856c0,0,0,0,0,0.001s0,0,0,0.001c0,0.472-0.383,0.857-0.857,0.857S9.143,4.853,9.143,4.381
	C9.143,4.38,9.143,4.38,9.143,4.379C9.143,4.38,9.143,4.38,9.143,4.379z M9.495,5.997C9.624,5.867,9.803,5.788,10,5.788
	c0.394,0,0.714,0.32,0.714,0.714c0,0.394-0.32,0.714-0.714,0.714c-0.197,0-0.376-0.08-0.505-0.209
	C9.366,6.877,9.286,6.698,9.286,6.501C9.286,6.304,9.366,6.126,9.495,5.997z M9.273,1.217C9.459,1.031,9.716,0.916,10,0.916
	c0.568,0,1.028,0.46,1.028,1.028c0,0.567-0.46,1.028-1.028,1.028c-0.284,0-0.541-0.115-0.727-0.301
	C9.087,2.485,8.972,2.228,8.972,1.944C8.972,1.66,9.087,1.403,9.273,1.217z M8.419,8.421c0.233-0.233,0.609-0.233,0.841,0
	s0.233,0.609,0,0.841c-0.232,0.232-0.609,0.233-0.841,0S8.187,8.653,8.419,8.421z M8.953,10.002c0,0.329-0.266,0.595-0.595,0.595
	c-0.329,0-0.595-0.266-0.595-0.595S8.03,9.407,8.358,9.407C8.687,9.407,8.953,9.674,8.953,10.002z M8.029,7.021
	c0.279,0.279,0.279,0.731,0,1.01C7.75,8.31,7.298,8.309,7.019,8.03c-0.278-0.278-0.279-0.73,0-1.009
	C7.299,6.742,7.751,6.743,8.029,7.021z M7.212,10.002c0,0.394-0.32,0.714-0.714,0.714c-0.394,0-0.714-0.32-0.714-0.714
	s0.32-0.714,0.714-0.714C6.893,9.288,7.212,9.608,7.212,10.002z M6.63,5.422c0.333,0.334,0.334,0.876,0,1.211
	C6.295,6.967,5.753,6.966,5.419,6.633c-0.335-0.335-0.335-0.877,0-1.212C5.753,5.087,6.295,5.087,6.63,5.422z M5.234,10.002
	c0,0.473-0.384,0.857-0.856,0.857c-0.474,0-0.857-0.383-0.857-0.857s0.383-0.857,0.857-0.857C4.85,9.146,5.234,9.529,5.234,10.002z
	 M3.575,3.578c0.401-0.401,1.051-0.401,1.453,0.001c0.401,0.401,0.401,1.052,0,1.452C4.626,5.433,3.976,5.433,3.575,5.033
	C3.173,4.63,3.173,3.98,3.575,3.578z M5.029,16.426c-0.402,0.402-1.053,0.402-1.453,0.001c-0.402-0.402-0.402-1.053,0-1.455
	c0.401-0.401,1.051-0.401,1.453,0.001C5.429,15.375,5.429,16.025,5.029,16.426z M6.63,14.584c-0.335,0.335-0.877,0.335-1.211,0.001
	c-0.335-0.335-0.335-0.877,0-1.212c0.334-0.333,0.876-0.334,1.211,0.001C6.965,13.707,6.964,14.25,6.63,14.584z M8.029,12.983
	c-0.278,0.278-0.73,0.279-1.01-0.001c-0.279-0.279-0.278-0.731,0-1.009c0.279-0.279,0.731-0.279,1.01-0.001
	C8.308,12.252,8.308,12.705,8.029,12.983z M8.418,11.584c-0.232-0.232-0.233-0.609,0-0.841c0.233-0.233,0.609-0.232,0.841,0
	c0.233,0.233,0.233,0.609,0,0.841C9.027,11.816,8.651,11.816,8.418,11.584z M10,19.089c-0.568,0-1.028-0.46-1.028-1.028
	c0-0.567,0.46-1.028,1.028-1.028s1.028,0.461,1.028,1.028C11.028,18.629,10.568,19.089,10,19.089z M11.581,11.584
	c-0.232,0.232-0.609,0.233-0.841,0s-0.232-0.609,0-0.841c0.233-0.233,0.609-0.233,0.841,0S11.814,11.351,11.581,11.584z
	 M11.972,12.983c-0.279-0.279-0.279-0.731-0.001-1.009c0.279-0.279,0.732-0.279,1.01,0c0.278,0.278,0.279,0.73-0.001,1.009
	C12.702,13.262,12.25,13.261,11.972,12.983z M13.37,14.584c-0.333-0.334-0.334-0.876,0.001-1.211c0.334-0.334,0.877-0.333,1.211,0
	c0.335,0.335,0.335,0.877,0.001,1.211C14.247,14.919,13.704,14.919,13.37,14.584z M16.425,16.426c-0.402,0.402-1.053,0.402-1.455,0
	c-0.401-0.401-0.401-1.051,0.001-1.453c0.401-0.401,1.051-0.401,1.452,0C16.826,15.375,16.826,16.025,16.425,16.426z M16.424,5.031
	c-0.401,0.401-1.052,0.401-1.452,0c-0.402-0.402-0.402-1.053-0.001-1.453c0.402-0.402,1.053-0.402,1.455,0
	C16.826,3.979,16.826,4.629,16.424,5.031z M18.058,11.03c-0.567,0-1.028-0.46-1.028-1.028c0-0.568,0.461-1.028,1.028-1.028
	c0.568,0,1.028,0.46,1.028,1.028C19.086,10.57,18.627,11.03,18.058,11.03z"/>
    </symbol>
    <symbol id="shape_9">
    <path transform="scale(4)" id="XMLID_24_" class="st0" d="M10,10.889h3.726c0,2.033-1.668,3.68-3.726,3.68V10.889z"/>
<path transform="scale(4)" id="XMLID_23_" class="st0" d="M10,14.57h3.726c0,2.033-1.668,3.68-3.726,3.68V14.57z"/>
<path transform="scale(4)" id="XMLID_22_" class="st0" d="M10,7.209h3.726c0,2.033-1.668,3.68-3.726,3.68V7.209z"/>
<path transform="scale(4)" id="XMLID_21_" class="st0" d="M13.726,7.209H10c0-2.033,1.668-3.68,3.726-3.68V7.209z"/>
<path transform="scale(4)" id="XMLID_20_" class="st0" d="M10,9.111H6.274c0,2.033,1.668,3.68,3.726,3.68V9.111z"/>
<path transform="scale(4)" id="XMLID_19_" class="st0" d="M10,12.791H6.274c0,2.033,1.668,3.68,3.726,3.68V12.791z"/>
<path transform="scale(4)" id="XMLID_18_" class="st0" d="M10,5.43H6.274c0,2.033,1.668,3.68,3.726,3.68V5.43z"/>
<path transform="scale(4)" id="XMLID_17_" class="st0" d="M6.274,5.43H10c0-2.033-1.668-3.68-3.726-3.68V5.43z"/>
<path transform="scale(4)" id="XMLID_16_" class="st0" d="M17.148,12.945h2.686c0,1.465-1.203,2.653-2.686,2.653V12.945z"/>
<path transform="scale(4)" id="XMLID_15_" class="st0" d="M17.148,15.597h2.686c0,1.465-1.203,2.653-2.686,2.653V15.597z"/>
<path transform="scale(4)" id="XMLID_14_" class="st0" d="M17.148,10.292h2.686c0,1.465-1.203,2.653-2.686,2.653V10.292z"/>
<path transform="scale(4)" id="XMLID_13_" class="st0" d="M19.834,10.292h-2.686c0-1.465,1.203-2.653,2.686-2.653V10.292z"/>
<path transform="scale(4)" id="XMLID_12_" class="st0" d="M17.148,11.663h-2.686c0,1.465,1.203,2.653,2.686,2.653V11.663z"/>
<path transform="scale(4)" id="XMLID_11_" class="st0" d="M17.148,14.316h-2.686c0,1.465,1.203,2.653,2.686,2.653V14.316z"/>
<path transform="scale(4)" id="XMLID_10_" class="st0" d="M17.148,9.01h-2.686c0,1.465,1.203,2.653,2.686,2.653V9.01z"/>
<path transform="scale(4)" id="XMLID_9_" class="st0" d="M14.463,9.01h2.686c0-1.465-1.203-2.653-2.686-2.653V9.01z"/>
<path transform="scale(4)" id="XMLID_8_" class="st0" d="M2.852,12.945h2.686c0,1.465-1.203,2.653-2.686,2.653V12.945z"/>
<path transform="scale(4)" id="XMLID_7_" class="st0" d="M2.852,15.597h2.686c0,1.465-1.203,2.653-2.686,2.653V15.597z"/>
<path transform="scale(4)" id="XMLID_6_" class="st0" d="M2.852,10.292h2.686c0,1.465-1.203,2.653-2.686,2.653V10.292z"/>
<path transform="scale(4)" id="XMLID_5_" class="st0" d="M5.537,10.292H2.852c0-1.465,1.203-2.653,2.686-2.653V10.292z"/>
<path transform="scale(4)" id="XMLID_4_" class="st0" d="M2.852,11.663H0.166c0,1.465,1.203,2.653,2.686,2.653V11.663z"/>
<path transform="scale(4)" id="XMLID_3_" class="st0" d="M2.852,14.316H0.166c0,1.465,1.203,2.653,2.686,2.653V14.316z"/>
<path transform="scale(4)" id="XMLID_2_" class="st0" d="M2.852,9.01H0.166c0,1.465,1.203,2.653,2.686,2.653V9.01z"/>
<path transform="scale(4)" id="XMLID_1_" class="st0" d="M0.166,9.01h2.686c0-1.465-1.203-2.653-2.686-2.653V9.01z"/>
    </symbol>
    <symbol id="shape_10">
    <g id="XMLID_78_" transform="scale(4)">
	<path id="XMLID_77_" class="st0" d="M11.95,10c0,1.114-0.88,2.016-1.965,2.016c-1.085,0-1.965-0.903-1.965-2.016
		c0-1.114,0.88-2.016,1.965-2.016C11.07,7.984,11.95,8.887,11.95,10"/>
	<path id="XMLID_76_" class="st0" d="M11.95,8.18c0.979,0,1.773,0.815,1.773,1.82c0,1.005-0.794,1.82-1.773,1.82V8.18z"/>
	<path id="XMLID_75_" class="st0" d="M9.468,1.031C9.468,0.738,9.7,0.5,9.985,0.5c0.286,0,0.517,0.238,0.517,0.531H9.468z"/>
	<path id="XMLID_74_" class="st0" d="M11.95,10c0,1.114-0.88,2.016-1.965,2.016c-1.085,0-1.965-0.903-1.965-2.016
		c0-1.114,0.88-2.016,1.965-2.016C11.07,7.984,11.95,8.887,11.95,10"/>
	<path id="XMLID_73_" class="st0" d="M9.985,7.984c1.085,0,1.965,0.903,1.965,2.016s-0.88,2.016-1.965,2.016
		c-1.085,0-1.965-0.903-1.965-2.016S8.9,7.984,9.985,7.984"/>
	<path id="XMLID_72_" class="st0" d="M8.212,7.984c0-1.005,0.794-1.82,1.773-1.82s1.773,0.815,1.773,1.82H8.212z"/>
	<path id="XMLID_71_" class="st0" d="M8.021,10c0-1.114,0.88-2.016,1.965-2.016c1.085,0,1.965,0.903,1.965,2.016
		c0,1.114-0.88,2.016-1.965,2.016C8.9,12.016,8.021,11.114,8.021,10"/>
	<path id="XMLID_70_" class="st0" d="M9.985,12.016c-1.085,0-1.965-0.903-1.965-2.016S8.9,7.984,9.985,7.984
		c1.085,0,1.965,0.903,1.965,2.016S11.07,12.016,9.985,12.016"/>
	<path id="XMLID_69_" class="st0" d="M11.95,6.164c0.979,0,1.773,0.815,1.773,1.82H11.95V6.164z"/>
	<path id="XMLID_68_" class="st0" d="M8.656,5.52c0-0.754,0.595-1.365,1.33-1.365c0.734,0,1.33,0.611,1.33,1.365H8.656z"/>
	<path id="XMLID_67_" class="st0" d="M11.95,4.155c0.734,0,1.33,0.611,1.33,1.365h-1.33V4.155z"/>
	<path id="XMLID_66_" class="st0" d="M8.988,3.322c0-0.565,0.446-1.024,0.997-1.024s0.997,0.458,0.997,1.024H8.988z"/>
	<path id="XMLID_65_" class="st0" d="M11.95,2.299c0.551,0,0.997,0.458,0.997,1.024H11.95V2.299z"/>
	<path id="XMLID_64_" class="st0" d="M11.95,0.503c0.282,0,0.511,0.235,0.511,0.524H11.95V0.503z"/>
	<path id="XMLID_63_" class="st0" d="M14.136,8.635c0.734,0,1.33,0.611,1.33,1.365c0,0.754-0.595,1.365-1.33,1.365V8.635z"/>
	<path id="XMLID_62_" class="st0" d="M14.136,6.619c0.734,0,1.33,0.611,1.33,1.365h-1.33V6.619z"/>
	<path id="XMLID_61_" class="st0" d="M14.136,4.496c0.551,0,0.997,0.458,0.997,1.024h-0.997V4.496z"/>
	<path id="XMLID_60_" class="st0" d="M14.136,2.555c0.413,0,0.748,0.344,0.748,0.768h-0.748V2.555z"/>
	<path id="XMLID_59_" class="st0" d="M16.304,8.977c0.551,0,0.997,0.458,0.997,1.024c0,0.565-0.446,1.024-0.997,1.024V8.977z"/>
	<path id="XMLID_58_" class="st0" d="M18.667,9.497c0.271,0,0.491,0.225,0.491,0.503c0,0.278-0.22,0.504-0.491,0.504V9.497z"/>
	<path id="XMLID_57_" class="st0" d="M16.304,6.96c0.551,0,0.997,0.458,0.997,1.024h-0.997V6.96z"/>
	<path id="XMLID_56_" class="st0" d="M16.397,4.944c0.31,0,0.561,0.258,0.561,0.576h-0.561V4.944z"/>
	<path id="XMLID_55_" class="st0" d="M16.374,2.879c0.2,0,0.362,0.166,0.362,0.371h-0.362V2.879z"/>
	<path id="XMLID_54_" class="st0" d="M11.95,17.701c0.551,0,0.997-0.458,0.997-1.024H11.95V17.701z"/>
	<path id="XMLID_53_" class="st0" d="M14.136,17.445c0.413,0,0.748-0.344,0.748-0.768h-0.748V17.445z"/>
	<path id="XMLID_52_" class="st0" d="M16.374,17.121c0.2,0,0.362-0.166,0.362-0.371h-0.362V17.121z"/>
	<path id="XMLID_51_" class="st0" d="M18.621,7.51c0.255,0,0.462,0.212,0.462,0.474h-0.462V7.51z"/>
	<path id="XMLID_50_" class="st0" d="M11.95,13.836c0.979,0,1.773-0.815,1.773-1.82H11.95V13.836z"/>
	<path id="XMLID_49_" class="st0" d="M14.136,13.381c0.734,0,1.33-0.611,1.33-1.365h-1.33V13.381z"/>
	<path id="XMLID_48_" class="st0" d="M16.304,13.04c0.551,0,0.997-0.458,0.997-1.024h-0.997V13.04z"/>
	<path id="XMLID_47_" class="st0" d="M18.621,12.49c0.255,0,0.462-0.212,0.462-0.474h-0.462V12.49z"/>
	<path id="XMLID_46_" class="st0" d="M14.184,0.733c0.159,0,0.287,0.132,0.287,0.295h-0.287V0.733z"/>
	<path id="XMLID_45_" class="st0" d="M11.95,19.493c0.282,0,0.511-0.235,0.511-0.524H11.95V19.493z"/>
	<path id="XMLID_44_" class="st0" d="M14.184,19.264c0.159,0,0.287-0.132,0.287-0.295h-0.287V19.264z"/>
	<path id="XMLID_43_" class="st0" d="M18.621,5.226c0.159,0,0.287,0.132,0.287,0.295h-0.287V5.226z"/>
	<path id="XMLID_42_" class="st0" d="M11.95,15.845c0.734,0,1.33-0.611,1.33-1.365h-1.33V15.845z"/>
	<path id="XMLID_41_" class="st0" d="M14.136,15.504c0.551,0,0.997-0.458,0.997-1.024h-0.997V15.504z"/>
	<path id="XMLID_40_" class="st0" d="M16.445,15.007c0.284,0,0.513-0.236,0.513-0.527h-0.513V15.007z"/>
	<path id="XMLID_39_" class="st0" d="M18.621,14.775c0.159,0,0.287-0.132,0.287-0.295h-0.287V14.775z"/>
	<path id="XMLID_38_" class="st0" d="M8.05,8.18c-0.979,0-1.773,0.815-1.773,1.82c0,1.005,0.794,1.82,1.773,1.82V8.18z"/>
	<path id="XMLID_37_" class="st0" d="M8.05,6.164c-0.979,0-1.773,0.815-1.773,1.82H8.05V6.164z"/>
	<path id="XMLID_36_" class="st0" d="M8.05,4.155c-0.735,0-1.33,0.611-1.33,1.365h1.33V4.155z"/>
	<path id="XMLID_35_" class="st0" d="M8.05,2.299c-0.551,0-0.997,0.458-0.997,1.024H8.05V2.299z"/>
	<path id="XMLID_34_" class="st0" d="M8.05,0.503c-0.282,0-0.511,0.235-0.511,0.524H8.05V0.503z"/>
	<path id="XMLID_33_" class="st0" d="M5.864,8.635c-0.735,0-1.33,0.611-1.33,1.365c0,0.754,0.595,1.365,1.33,1.365V8.635z"/>
	<path id="XMLID_32_" class="st0" d="M5.864,6.619c-0.735,0-1.33,0.611-1.33,1.365h1.33V6.619z"/>
	<path id="XMLID_31_" class="st0" d="M5.864,4.496c-0.551,0-0.997,0.458-0.997,1.024h0.997V4.496z"/>
	<path id="XMLID_30_" class="st0" d="M5.864,2.555c-0.413,0-0.748,0.344-0.748,0.768h0.748V2.555z"/>
	<path id="XMLID_29_" class="st0" d="M3.696,8.977c-0.551,0-0.997,0.458-0.997,1.024c0,0.565,0.446,1.024,0.997,1.024V8.977z"/>
	<path id="XMLID_28_" class="st0" d="M1.333,9.497c-0.271,0-0.491,0.225-0.491,0.503c0,0.278,0.22,0.504,0.491,0.504V9.497z"/>
	<path id="XMLID_27_" class="st0" d="M3.696,6.96c-0.551,0-0.997,0.458-0.997,1.024h0.997V6.96z"/>
	<path id="XMLID_26_" class="st0" d="M3.603,4.944c-0.31,0-0.561,0.258-0.561,0.576h0.561V4.944z"/>
	<path id="XMLID_25_" class="st0" d="M3.626,2.879c-0.2,0-0.362,0.166-0.362,0.371h0.362V2.879z"/>
	<path id="XMLID_24_" class="st0" d="M8.05,17.701c-0.551,0-0.997-0.458-0.997-1.024H8.05V17.701z"/>
	<path id="XMLID_23_" class="st0" d="M5.864,17.445c-0.413,0-0.748-0.344-0.748-0.768h0.748V17.445z"/>
	<path id="XMLID_22_" class="st0" d="M3.626,17.121c-0.2,0-0.362-0.166-0.362-0.371h0.362V17.121z"/>
	<path id="XMLID_21_" class="st0" d="M1.379,7.51c-0.255,0-0.462,0.212-0.462,0.474h0.462V7.51z"/>
	<path id="XMLID_20_" class="st0" d="M8.05,13.836c-0.979,0-1.773-0.815-1.773-1.82H8.05V13.836z"/>
	<path id="XMLID_19_" class="st0" d="M5.864,13.381c-0.735,0-1.33-0.611-1.33-1.365h1.33V13.381z"/>
	<path id="XMLID_18_" class="st0" d="M3.696,13.04c-0.551,0-0.997-0.458-0.997-1.024h0.997V13.04z"/>
	<path id="XMLID_17_" class="st0" d="M1.379,12.49c-0.255,0-0.462-0.212-0.462-0.474h0.462V12.49z"/>
	<path id="XMLID_16_" class="st0" d="M5.816,0.733c-0.159,0-0.287,0.132-0.287,0.295h0.287V0.733z"/>
	<path id="XMLID_15_" class="st0" d="M8.05,19.493c-0.282,0-0.511-0.235-0.511-0.524H8.05V19.493z"/>
	<path id="XMLID_14_" class="st0" d="M5.816,19.264c-0.159,0-0.287-0.132-0.287-0.295h0.287V19.264z"/>
	<path id="XMLID_13_" class="st0" d="M1.379,5.226c-0.159,0-0.287,0.132-0.287,0.295h0.287V5.226z"/>
	<path id="XMLID_12_" class="st0" d="M8.05,15.845c-0.735,0-1.33-0.611-1.33-1.365h1.33V15.845z"/>
	<path id="XMLID_11_" class="st0" d="M5.864,15.504c-0.551,0-0.997-0.458-0.997-1.024h0.997V15.504z"/>
	<path id="XMLID_10_" class="st0" d="M3.555,15.007c-0.284,0-0.513-0.236-0.513-0.527h0.513V15.007z"/>
	<path id="XMLID_9_" class="st0" d="M1.379,14.775c-0.159,0-0.287-0.132-0.287-0.295h0.287V14.775z"/>
	<path id="XMLID_8_" class="st0" d="M11.95,10c0-1.114-0.88-2.016-1.965-2.016C8.9,7.984,8.021,8.886,8.021,10
		c0,1.114,0.88,2.016,1.965,2.016C11.07,12.016,11.95,11.113,11.95,10"/>
	<path id="XMLID_7_" class="st0" d="M9.468,18.969c0,0.293,0.232,0.531,0.517,0.531c0.286,0,0.517-0.238,0.517-0.531H9.468z"/>
	<path id="XMLID_6_" class="st0" d="M11.95,10c0-1.114-0.88-2.016-1.965-2.016C8.9,7.984,8.021,8.886,8.021,10
		c0,1.114,0.88,2.016,1.965,2.016C11.07,12.016,11.95,11.113,11.95,10"/>
	<path id="XMLID_5_" class="st0" d="M9.985,12.016c1.085,0,1.965-0.903,1.965-2.016s-0.88-2.016-1.965-2.016
		C8.9,7.984,8.021,8.886,8.021,10S8.9,12.016,9.985,12.016"/>
	<path id="XMLID_4_" class="st0" d="M8.212,12.016c0,1.005,0.794,1.82,1.773,1.82s1.773-0.815,1.773-1.82H8.212z"/>
	<path id="XMLID_3_" class="st0" d="M8.021,10c0,1.114,0.88,2.016,1.965,2.016c1.085,0,1.965-0.903,1.965-2.016
		c0-1.114-0.88-2.016-1.965-2.016C8.9,7.984,8.021,8.886,8.021,10"/>
	<path id="XMLID_2_" class="st0" d="M8.656,14.48c0,0.754,0.595,1.365,1.33,1.365c0.734,0,1.33-0.611,1.33-1.365H8.656z"/>
	<path id="XMLID_1_" class="st0" d="M8.988,16.678c0,0.565,0.446,1.024,0.997,1.024s0.997-0.458,0.997-1.024H8.988z"/>
</g>
    </symbol>
    <symbol id="shape_11">
    <g id="XMLID_43_" transform="scale(4)">
	<path id="XMLID_42_" class="st0" d="M8.174,10.265c-0.066-0.159,0.009-0.34,0.168-0.406c0.159-0.066,0.34,0.009,0.406,0.168
		c0.066,0.159-0.009,0.34-0.168,0.406C8.422,10.499,8.24,10.424,8.174,10.265"/>
	<path id="XMLID_41_" class="st0" d="M8.461,12.808C8.284,12.77,8.172,12.596,8.21,12.42c0.038-0.177,0.212-0.289,0.389-0.251
		c0.177,0.038,0.289,0.212,0.251,0.389C8.811,12.734,8.637,12.846,8.461,12.808"/>
	<path id="XMLID_40_" class="st0" d="M10.76,14.045c-0.142,0.126-0.359,0.114-0.485-0.028c-0.126-0.142-0.114-0.359,0.028-0.485
		c0.142-0.126,0.359-0.114,0.485,0.028C10.915,13.701,10.902,13.918,10.76,14.045"/>
	<path id="XMLID_39_" class="st0" d="M13.121,13.089c0,0.199-0.16,0.36-0.359,0.361c-0.199,0-0.36-0.16-0.361-0.359
		c0-0.199,0.16-0.36,0.359-0.361C12.959,12.73,13.12,12.89,13.121,13.089"/>
	<path id="XMLID_38_" class="st0" d="M14.009,10.606c0.152,0.141,0.161,0.38,0.02,0.532c-0.141,0.152-0.38,0.161-0.532,0.02
		c-0.152-0.141-0.161-0.38-0.02-0.532C13.618,10.474,13.856,10.464,14.009,10.606"/>
	<path id="XMLID_37_" class="st0" d="M12.949,8.283c0.217,0,0.393,0.176,0.393,0.393c0,0.217-0.176,0.393-0.393,0.393
		c-0.217,0-0.393-0.176-0.393-0.393S12.732,8.283,12.949,8.283"/>
	<path id="XMLID_36_" class="st0" d="M10.497,7.27c0.168-0.152,0.427-0.139,0.578,0.029c0.152,0.168,0.138,0.427-0.029,0.578
		c-0.168,0.152-0.427,0.139-0.578-0.029C10.316,7.68,10.329,7.421,10.497,7.27"/>
	<path id="XMLID_35_" class="st0" d="M8.048,8.014c0.04-0.232,0.261-0.387,0.493-0.346c0.232,0.04,0.387,0.261,0.346,0.493
		c-0.04,0.232-0.261,0.387-0.493,0.346C8.162,8.466,8.007,8.246,8.048,8.014"/>
	<path id="XMLID_34_" class="st0" d="M6.552,10.195c-0.117-0.215-0.038-0.483,0.177-0.6c0.215-0.117,0.483-0.038,0.6,0.177
		c0.117,0.215,0.038,0.483-0.177,0.6C6.938,10.489,6.669,10.41,6.552,10.195"/>
	<path id="XMLID_33_" class="st0" d="M6.614,12.79c-0.226-0.116-0.315-0.392-0.199-0.618c0.116-0.226,0.392-0.315,0.618-0.199
		c0.226,0.116,0.315,0.392,0.199,0.618C7.116,12.817,6.839,12.906,6.614,12.79"/>
	<path id="XMLID_32_" class="st0" d="M8.108,14.886c-0.261,0.031-0.497-0.156-0.528-0.417c-0.031-0.261,0.156-0.497,0.417-0.528
		c0.261-0.031,0.497,0.156,0.528,0.417S8.369,14.856,8.108,14.886"/>
	<path id="XMLID_31_" class="st0" d="M10.614,15.834c-0.209,0.173-0.519,0.145-0.693-0.065c-0.173-0.209-0.145-0.519,0.065-0.693
		c0.209-0.173,0.519-0.145,0.693,0.065C10.852,15.351,10.823,15.661,10.614,15.834"/>
	<path id="XMLID_30_" class="st0" d="M13.145,15.377c-0.098,0.263-0.39,0.398-0.653,0.3c-0.263-0.098-0.398-0.39-0.3-0.653
		c0.098-0.263,0.39-0.398,0.653-0.3C13.108,14.821,13.243,15.113,13.145,15.377"/>
	<path id="XMLID_29_" class="st0" d="M15.117,13.699c0.049,0.286-0.142,0.557-0.427,0.607c-0.286,0.049-0.557-0.142-0.607-0.427
		c-0.05-0.286,0.142-0.557,0.427-0.607C14.795,13.222,15.067,13.413,15.117,13.699"/>
	<path id="XMLID_28_" class="st0" d="M16.023,11.169c0.188,0.232,0.152,0.573-0.08,0.761c-0.232,0.188-0.573,0.152-0.761-0.08
		c-0.188-0.233-0.152-0.573,0.08-0.761C15.494,10.9,15.835,10.936,16.023,11.169"/>
	<path id="XMLID_27_" class="st0" d="M15.674,8.614c0.281,0.127,0.405,0.458,0.278,0.738c-0.127,0.281-0.458,0.405-0.738,0.278
		c-0.281-0.127-0.405-0.458-0.278-0.738S15.393,8.487,15.674,8.614"/>
	<path id="XMLID_26_" class="st0" d="M14.219,6.49c0.317-0.012,0.584,0.235,0.595,0.552c0.012,0.317-0.235,0.584-0.552,0.595
		c-0.317,0.012-0.583-0.235-0.595-0.552C13.655,6.769,13.902,6.502,14.219,6.49"/>
	<path id="XMLID_25_" class="st0" d="M11.858,5.206c0.285-0.158,0.645-0.055,0.803,0.231c0.158,0.285,0.055,0.645-0.231,0.803
		s-0.645,0.055-0.803-0.231C11.47,5.723,11.573,5.364,11.858,5.206"/>
	<path id="XMLID_24_" class="st0" d="M9.246,5.039c0.201-0.268,0.582-0.322,0.85-0.121c0.268,0.201,0.322,0.582,0.121,0.85
		c-0.201,0.268-0.582,0.322-0.85,0.121C9.099,5.687,9.045,5.307,9.246,5.039"/>
	<path id="XMLID_23_" class="st0" d="M6.84,5.921c0.081-0.335,0.418-0.541,0.753-0.46c0.335,0.081,0.541,0.418,0.46,0.753
		C7.972,6.549,7.635,6.754,7.3,6.673C6.965,6.593,6.759,6.256,6.84,5.921"/>
	<path id="XMLID_22_" class="st0" d="M4.963,7.724C4.9,7.376,5.131,7.043,5.479,6.98C5.827,6.917,6.16,7.148,6.223,7.495
		c0.063,0.348-0.168,0.681-0.516,0.744C5.359,8.302,5.026,8.072,4.963,7.724"/>
	<path id="XMLID_21_" class="st0" d="M3.932,10.223c-0.2-0.302-0.117-0.71,0.186-0.91c0.302-0.2,0.71-0.117,0.91,0.185
		c0.2,0.302,0.117,0.71-0.186,0.91C4.539,10.608,4.132,10.525,3.932,10.223"/>
	<path id="XMLID_20_" class="st0" d="M3.903,12.826c-0.303-0.215-0.376-0.635-0.161-0.938c0.215-0.303,0.635-0.376,0.938-0.161
		c0.304,0.215,0.376,0.635,0.161,0.938C4.627,12.969,4.207,13.041,3.903,12.826"/>
	<path id="XMLID_19_" class="st0" d="M4.796,15.228c-0.369-0.096-0.589-0.472-0.494-0.841c0.096-0.369,0.473-0.589,0.841-0.493
		c0.369,0.096,0.59,0.472,0.494,0.841C5.541,15.103,5.164,15.324,4.796,15.228"/>
	<path id="XMLID_18_" class="st0" d="M6.509,17.175c-0.387,0.044-0.737-0.235-0.781-0.622c-0.044-0.387,0.235-0.737,0.622-0.781
		c0.387-0.044,0.737,0.235,0.781,0.622C7.175,16.781,6.897,17.131,6.509,17.175"/>
	<path id="XMLID_17_" class="st0" d="M8.91,18.414c-0.354,0.185-0.79,0.048-0.975-0.306c-0.185-0.354-0.048-0.79,0.305-0.975
		c0.354-0.185,0.79-0.048,0.975,0.306C9.4,17.793,9.263,18.23,8.91,18.414"/>
	<path id="XMLID_16_" class="st0" d="M11.523,18.768c-0.28,0.297-0.748,0.311-1.045,0.031c-0.297-0.28-0.311-0.748-0.031-1.045
		c0.28-0.297,0.748-0.311,1.045-0.031C11.789,18.003,11.803,18.471,11.523,18.768"/>
	<path id="XMLID_15_" class="st0" d="M14.044,18.271c-0.175,0.379-0.624,0.543-1.003,0.368c-0.379-0.175-0.543-0.624-0.368-1.003
		c0.175-0.379,0.624-0.543,1.003-0.368S14.219,17.892,14.044,18.271"/>
	<path id="XMLID_14_" class="st0" d="M16.275,17.002c-0.048,0.424-0.43,0.728-0.854,0.68c-0.423-0.048-0.728-0.43-0.68-0.854
		c0.048-0.423,0.43-0.728,0.854-0.68C16.019,16.196,16.323,16.579,16.275,17.002"/>
	<path id="XMLID_13_" class="st0" d="M18.016,15.042c0.094,0.425-0.175,0.846-0.6,0.94c-0.425,0.094-0.846-0.175-0.94-0.6
		c-0.094-0.425,0.175-0.846,0.6-0.94C17.502,14.348,17.922,14.617,18.016,15.042"/>
	<path id="XMLID_12_" class="st0" d="M19.072,12.542c0.227,0.382,0.102,0.876-0.28,1.103c-0.382,0.227-0.876,0.102-1.103-0.28
		c-0.227-0.382-0.102-0.876,0.28-1.103C18.351,12.034,18.845,12.16,19.072,12.542"/>
	<path id="XMLID_11_" class="st0" d="M19.333,9.93c0.335,0.306,0.359,0.825,0.053,1.16s-0.825,0.359-1.16,0.053
		c-0.335-0.306-0.359-0.825-0.053-1.16C18.478,9.648,18.998,9.624,19.333,9.93"/>
	<path id="XMLID_10_" class="st0" d="M18.843,7.408c0.416,0.203,0.588,0.704,0.386,1.12c-0.203,0.416-0.704,0.589-1.12,0.386
		c-0.416-0.203-0.588-0.704-0.386-1.12C17.926,7.377,18.427,7.205,18.843,7.408"/>
	<path id="XMLID_9_" class="st0" d="M17.666,5.131c0.465,0.08,0.777,0.521,0.697,0.987c-0.08,0.465-0.522,0.777-0.987,0.697
		c-0.465-0.08-0.777-0.521-0.697-0.987C16.759,5.363,17.201,5.051,17.666,5.131"/>
	<path id="XMLID_8_" class="st0" d="M15.862,3.255c0.477-0.058,0.911,0.283,0.969,0.76c0.058,0.477-0.283,0.911-0.76,0.969
		c-0.477,0.058-0.911-0.283-0.969-0.76C15.045,3.747,15.385,3.313,15.862,3.255"/>
	<path id="XMLID_7_" class="st0" d="M13.505,1.939c0.448-0.198,0.972,0.005,1.17,0.453c0.198,0.448-0.005,0.972-0.453,1.17
		c-0.448,0.198-0.972-0.005-1.17-0.453C12.854,2.661,13.057,2.137,13.505,1.939"/>
	<path id="XMLID_6_" class="st0" d="M10.908,1.31c0.388-0.314,0.957-0.254,1.271,0.134c0.314,0.388,0.254,0.957-0.134,1.271
		c-0.388,0.314-0.957,0.254-1.271-0.134C10.46,2.193,10.52,1.624,10.908,1.31"/>
	<path id="XMLID_5_" class="st0" d="M8.316,1.376c0.301-0.41,0.877-0.498,1.286-0.197c0.41,0.301,0.498,0.877,0.197,1.286
		c-0.301,0.41-0.877,0.498-1.286,0.197C8.104,2.361,8.016,1.785,8.316,1.376"/>
	<path id="XMLID_4_" class="st0" d="M5.855,2.085c0.192-0.48,0.738-0.713,1.218-0.521c0.48,0.192,0.713,0.738,0.521,1.218
		c-0.192,0.48-0.738,0.713-1.218,0.521C5.895,3.11,5.662,2.565,5.855,2.085"/>
	<path id="XMLID_3_" class="st0" d="M3.645,3.389c0.068-0.522,0.546-0.89,1.068-0.822c0.522,0.068,0.89,0.546,0.822,1.068
		c-0.068,0.522-0.546,0.89-1.068,0.822C3.945,4.389,3.577,3.911,3.645,3.389"/>
	<path id="XMLID_2_" class="st0" d="M1.81,5.241C1.742,4.71,2.116,4.224,2.647,4.155c0.531-0.069,1.017,0.306,1.086,0.837
		c0.069,0.531-0.306,1.017-0.837,1.086C2.366,6.147,1.879,5.772,1.81,5.241"/>
	<path id="XMLID_1_" class="st0" d="M0.475,7.585c-0.209-0.503,0.029-1.08,0.532-1.289c0.503-0.209,1.08,0.029,1.289,0.532
		c0.209,0.503-0.029,1.08-0.532,1.289C1.261,8.327,0.684,8.088,0.475,7.585"/>
</g>
    </symbol>
</svg>
