<?xml version="1.0" standalone="no"?>
<!DOCTYPE svg PUBLIC "-//W3C//DTD SVG 20010904//EN"
 "http://www.w3.org/TR/2001/REC-SVG-20010904/DTD/svg10.dtd">
<svg version="1.0" xmlns="http://www.w3.org/2000/svg"
 width="1920.000000pt" height="1080.000000pt" viewBox="0 0 1920.000000 1080.000000"
 preserveAspectRatio="xMidYMid meet">

<g transform="translate(0.000000,1080.000000) scale(0.100000,-0.100000)"
fill="#000000" stroke="none">
<path d="M0 5400 l0 -5400 9600 0 9600 0 0 5400 0 5400 -9600 0 -9600 0 0
-5400z m12819 3671 c66 -22 158 -69 320 -163 124 -72 318 -180 431 -241 112
-60 265 -147 340 -194 230 -146 317 -195 570 -320 469 -233 678 -381 1036
-738 141 -141 222 -228 618 -670 160 -179 210 -231 362 -376 146 -140 305
-265 559 -438 170 -116 231 -170 286 -255 49 -75 77 -149 90 -242 23 -168 -67
-362 -247 -534 -159 -150 -310 -262 -519 -380 -60 -34 -150 -86 -200 -115 -49
-29 -232 -130 -405 -225 -732 -402 -1108 -636 -1557 -970 -201 -150 -310 -213
-438 -253 -126 -39 -219 -51 -368 -44 -157 7 -253 28 -557 122 -270 83 -368
105 -500 112 -131 7 -258 -9 -373 -48 -107 -35 -161 -66 -230 -129 -104 -95
-146 -200 -147 -360 -1 -207 -32 -327 -108 -411 -60 -67 -100 -88 -292 -153
-431 -145 -927 -208 -1465 -186 -354 15 -635 40 -945 86 -58 8 -116 17 -130
19 -82 11 -716 112 -885 140 -353 58 -626 97 -820 116 -55 5 -107 12 -115 14
-14 4 -433 29 -475 28 -11 -1 -69 3 -130 8 -60 4 -556 11 -1102 14 -545 3
-998 7 -1005 9 -7 3 -110 10 -228 16 -343 18 -738 65 -1015 121 -202 42 -461
135 -596 216 -227 135 -389 373 -389 572 0 72 32 183 86 301 57 126 70 187 54
257 -17 76 -64 130 -246 280 -266 219 -399 375 -443 519 -48 154 -5 318 113
433 l45 44 163 18 c90 10 267 27 393 38 127 12 289 28 360 36 72 8 189 19 260
25 72 6 166 14 210 20 44 5 132 14 195 20 144 13 224 35 370 100 222 99 452
222 845 455 887 525 1201 640 2150 791 350 55 711 139 928 214 176 60 453 203
683 352 168 109 458 277 577 333 139 66 329 130 450 151 68 12 131 15 242 11
129 -4 169 -9 286 -39 74 -20 199 -61 277 -92 733 -291 880 -330 1382 -367
333 -24 820 21 1050 97 145 48 279 143 296 209 9 38 -19 72 -133 164 -264 211
-466 458 -552 673 -85 210 -96 435 -31 576 31 67 128 177 188 214 109 67 265
74 431 19z"/>
</g>
</svg>
